<svg width="24" height="16" viewBox="0 0 24 16" fill="none" xmlns="http://www.w3.org/2000/svg">
<path d="M23.4674 3.77273V2.54545C23.4674 1.13964 22.3575 0 20.9883 0H3.27995C1.91074 0 0.800781 1.13964 0.800781 2.54545V3.77273C0.800781 3.89823 0.899904 4 1.02214 4H23.2461C23.3683 4 23.4674 3.89823 23.4674 3.77273Z" fill="#A1234B"/>
<path d="M0.800781 5.6818V13.4545C0.800781 14.8603 1.91074 16 3.27995 16H20.9883C22.3575 16 23.4674 14.8603 23.4674 13.4545V5.6818C23.4674 5.5563 23.3683 5.45453 23.2461 5.45453H1.02214C0.899904 5.45453 0.800781 5.5563 0.800781 5.6818Z" fill="#A1234B"/>
</svg>
