<svg width="24" height="16" viewBox="0 0 24 16" fill="none" xmlns="http://www.w3.org/2000/svg">
<path d="M23.4665 3.77273V2.54545C23.4665 1.13964 22.3565 0 20.9873 0H3.27897C1.90976 0 0.799805 1.13964 0.799805 2.54545V3.77273C0.799805 3.89823 0.898927 4 1.02116 4H23.2451C23.3673 4 23.4665 3.89823 23.4665 3.77273Z" fill="url(#paint0_linear)"/>
<path d="M0.799805 5.6818V13.4545C0.799805 14.8603 1.90976 16 3.27897 16H20.9873C22.3565 16 23.4665 14.8603 23.4665 13.4545V5.6818C23.4665 5.5563 23.3673 5.45453 23.2451 5.45453H1.02116C0.898927 5.45453 0.799805 5.5563 0.799805 5.6818Z" fill="url(#paint1_linear)"/>
<defs>
<linearGradient id="paint0_linear" x1="0.799805" y1="0" x2="4.37394" y2="10.4994" gradientUnits="userSpaceOnUse">
<stop offset="0.505208" stop-color="#E0E0E0"/>
<stop offset="1" stop-color="#797979"/>
</linearGradient>
<linearGradient id="paint1_linear" x1="0.799805" y1="5.45453" x2="16.1537" y2="22.5628" gradientUnits="userSpaceOnUse">
<stop offset="0.505208" stop-color="#E0E0E0"/>
<stop offset="1" stop-color="#797979"/>
</linearGradient>
</defs>
</svg>
