<svg width="28" height="28" viewBox="0 0 28 28" fill="none" xmlns="http://www.w3.org/2000/svg">
<path d="M24.0326 10.3011V9.22727C24.0326 7.99718 23.0613 7 21.8633 7H6.36849C5.17043 7 4.19922 7.99718 4.19922 9.22727V10.3011C4.19922 10.4109 4.28595 10.5 4.3929 10.5H23.8389C23.9458 10.5 24.0326 10.4109 24.0326 10.3011Z" fill="#EEAD12"/>
<path d="M4.375 11.5739V18.375C4.375 19.6051 5.34621 20.6023 6.54427 20.6023H22.0391C23.2371 20.6023 24.2083 19.6051 24.2083 18.375V11.5739C24.2083 11.4641 24.1216 11.375 24.0146 11.375H4.56868C4.46173 11.375 4.375 11.4641 4.375 11.5739Z" fill="#EEAD12"/>
<path d="M14.418 16.2417V17.6294C14.418 17.794 14.2846 17.9275 14.1199 17.9275C13.9552 17.9275 13.8217 17.794 13.8217 17.6294V16.2417H12.5482C12.3835 16.2417 12.25 16.1082 12.25 15.9435C12.25 15.7788 12.3835 15.6454 12.5482 15.6454H13.8217V14.2982C13.8217 14.1335 13.9552 14 14.1199 14C14.2846 14 14.418 14.1335 14.418 14.2982V15.6454H15.6916C15.8563 15.6454 15.9898 15.7788 15.9898 15.9435C15.9898 16.1082 15.8563 16.2417 15.6916 16.2417H14.418Z" fill="#EEF3F5"/>
</svg>