<svg width="24" height="24" viewBox="0 0 24 24" fill="none" xmlns="http://www.w3.org/2000/svg">
<path d="M13.98 12.0004L17.6923 8.28802C18.1025 7.87784 18.1025 7.21284 17.6923 6.80331L17.1974 6.3084C16.7871 5.8981 16.1221 5.8981 15.7126 6.3084L12.0004 10.0206L8.28802 6.30763C7.87784 5.89746 7.21284 5.89746 6.80331 6.30763L6.30763 6.80254C5.89746 7.21284 5.89746 7.87784 6.30763 8.28738L10.0206 12.0004L6.3084 15.7126C5.8981 16.1229 5.8981 16.7879 6.3084 17.1974L6.80331 17.6923C7.21348 18.1025 7.87848 18.1025 8.28802 17.6923L12.0004 13.98L15.7126 17.6923C16.1229 18.1025 16.7879 18.1025 17.1974 17.6923L17.6923 17.1974C18.1025 16.7871 18.1025 16.1221 17.6923 15.7126L13.98 12.0004Z" fill="#BFC5D2"/>
</svg>
