<svg width="32" height="32" viewBox="0 0 32 32" fill="none" xmlns="http://www.w3.org/2000/svg">
<circle cx="16" cy="16" r="16" fill="#EEF3F5"/>
<path d="M17.5146 11.7393L10.4644 18.7899C10.429 18.8255 10.4033 18.8704 10.3911 18.9187L9.6097 22.0552C9.58633 22.1496 9.61407 22.2501 9.68298 22.319C9.73511 22.3711 9.80616 22.4 9.87882 22.4C9.90108 22.4 9.92384 22.3972 9.946 22.3916L13.0825 21.6101C13.1314 21.5979 13.1758 21.5724 13.2113 21.5369L20.2621 14.4868L17.5146 11.7393Z" fill="#8798AD"/>
<path d="M22.0095 10.778L21.2247 9.99317C20.7002 9.46866 19.786 9.46916 19.2621 9.99317L18.3008 10.9545L21.0482 13.7019L22.0095 12.7406C22.2715 12.4787 22.4158 12.1301 22.4158 11.7593C22.4158 11.3886 22.2715 11.04 22.0095 10.778Z" fill="#8798AD"/>
</svg>
