<svg width="24" height="24" viewBox="0 0 24 24" fill="none" xmlns="http://www.w3.org/2000/svg">
<path fill-rule="evenodd" clip-rule="evenodd" d="M12 2C6.47715 2 2 6.47715 2 12C2 17.5228 6.47715 22 12 22C17.5228 22 22 17.5228 22 12C22 6.47715 17.5228 2 12 2Z" fill="#8798AD"/>
<path d="M13.4138 8.01239L6.81538 14.6112C6.78218 14.6445 6.75821 14.6866 6.7468 14.7318L6.01543 17.6673C5.99355 17.7557 6.01952 17.8497 6.08401 17.9141C6.13281 17.9629 6.19929 17.99 6.2673 17.99C6.28814 17.99 6.30944 17.9874 6.33018 17.9822L9.26573 17.2507C9.31148 17.2393 9.35305 17.2154 9.38624 17.1822L15.9852 10.5838L13.4138 8.01239Z" fill="white"/>
<path d="M17.6195 7.11264L16.885 6.37813C16.3941 5.88723 15.5385 5.8877 15.0482 6.37813L14.1484 7.27786L16.7198 9.8492L17.6195 8.94948C17.8647 8.70435 17.9998 8.3781 17.9998 8.0311C17.9998 7.68411 17.8647 7.35786 17.6195 7.11264Z" fill="white"/>
</svg>
