<svg width="40" height="40" viewBox="0 0 40 40" fill="none" xmlns="http://www.w3.org/2000/svg">
<circle cx="20" cy="20" r="20" fill="#EEF3F5"/>
<path d="M21.8913 14.6741L13.0786 23.4874C13.0342 23.5319 13.0022 23.588 12.987 23.6484L12.0102 27.569C11.981 27.6871 12.0156 27.8126 12.1018 27.8987C12.1669 27.9639 12.2557 28 12.3466 28C12.3744 28 12.4029 27.9965 12.4305 27.9895L16.3512 27.0126C16.4123 26.9974 16.4678 26.9655 16.5122 26.9211L25.3256 18.1084L21.8913 14.6741Z" fill="#8798AD"/>
<path d="M27.5109 13.4725L26.5299 12.4915C25.8743 11.8358 24.7315 11.8365 24.0767 12.4915L22.875 13.6932L26.3092 17.1274L27.5109 15.9257C27.8384 15.5984 28.0188 15.1626 28.0188 14.6992C28.0188 14.2357 27.8384 13.8 27.5109 13.4725Z" fill="#8798AD"/>
</svg>
