<svg width="20" height="20" viewBox="0 0 20 20" fill="none" xmlns="http://www.w3.org/2000/svg">
    <path d="M10.0001 4.02336C8.00142 4.02336 7.67603 2.07473 8.70044 1.07856L9.58079 0.176607C9.81036 -0.0586278 10.1891 -0.0590185 10.4191 0.176333L11.3237 1.10188C12.3182 2.1045 11.9845 4.02336 10.0001 4.02336Z" fill="#43BF41"/>
    <path d="M19.4141 17.4609H0.585938C0.262344 17.4609 0 17.6404 0 17.8618V19.5991C0 19.8205 0.262344 20 0.585938 20H19.4141C19.7377 20 20 19.8205 20 19.5991V17.8618C20 17.6404 19.7377 17.4609 19.4141 17.4609Z" fill="#43BF41"/>
    <path d="M1.6643 11.4607C1.83883 11.6326 2.18941 11.8766 2.44082 11.9098C2.7232 11.9484 3.14863 11.6449 3.33719 11.4592C3.41719 11.3792 4.15664 10.6641 4.99996 10.6641C5.84328 10.6641 6.58277 11.3792 6.66426 11.4607C6.8134 11.6077 7.21633 11.9141 7.49996 11.9141C7.78359 11.9141 8.18648 11.6076 8.33719 11.4592C8.41719 11.3792 9.15664 10.6641 9.99996 10.6641C10.8433 10.6641 11.5828 11.3792 11.6643 11.4607C11.8134 11.6077 12.2163 11.9141 12.5 11.9141C12.7836 11.9141 13.1865 11.6076 13.3372 11.4592C13.4172 11.3792 14.1566 10.6641 15 10.6641C15.8433 10.6641 16.5828 11.3792 16.6643 11.4607C16.8452 11.6389 17.2383 11.9141 17.5 11.9141C17.7605 11.9141 18.152 11.6416 18.3372 11.4592C18.3832 11.4132 18.6472 11.1575 19.0234 10.9483V9.92187C19.0234 8.95262 18.2348 8.16406 17.2656 8.16406H2.73438C1.76512 8.16406 0.976562 8.95262 0.976562 9.92187V10.9483C1.35297 11.1577 1.61746 11.4138 1.6643 11.4607Z" fill="#43BF41"/>
    <path d="M11.8359 6.99218V5.3125C11.8359 4.98891 11.5736 4.72656 11.25 4.72656H8.75C8.42641 4.72656 8.16406 4.98891 8.16406 5.3125V6.99218H11.8359Z" fill="#43BF41"/>
    <path d="M19.0234 16.2891V12.4185C18.9431 12.4874 18.833 12.5753 18.6999 12.6647C17.8667 13.2283 17.1394 13.2107 16.3511 12.6982C16.1495 12.5683 15.9556 12.4092 15.8356 12.2893C15.6865 12.1424 15.2836 11.8359 14.9999 11.8359C14.7163 11.8359 14.3134 12.1424 14.1627 12.2909C14.0827 12.3709 13.3432 13.0859 12.4999 13.0859C11.6566 13.0859 10.9171 12.3709 10.8356 12.2893C10.6865 12.1424 10.2836 11.8359 9.99992 11.8359C9.71628 11.8359 9.31339 12.1424 9.16269 12.2909C9.08269 12.3709 8.34324 13.0859 7.49992 13.0859C6.6566 13.0859 5.91711 12.3709 5.83562 12.2893C5.68648 12.1424 5.28355 11.8359 4.99992 11.8359C4.71628 11.8359 4.31339 12.1424 4.16269 12.2909C4.04132 12.4123 3.84492 12.5726 3.64148 12.703C2.84296 13.2192 2.11585 13.2189 1.29652 12.6624C1.16515 12.5739 1.05625 12.487 0.97644 12.4184V16.2891H19.0234V16.2891Z" fill="#43BF41"/>
</svg>
