<svg id="e6X7T9wLK8e1" xmlns="http://www.w3.org/2000/svg" xmlns:xlink="http://www.w3.org/1999/xlink" viewBox="0 0 32 32" shape-rendering="geometricPrecision" text-rendering="geometricPrecision"><style><![CDATA[#e6X7T9wLK8e2_ts {animation: e6X7T9wLK8e2_ts__ts 1000ms linear infinite normal forwards}@keyframes e6X7T9wLK8e2_ts__ts { 0% {transform: translate(16px,16px) scale(0,0)} 80% {transform: translate(16px,16px) scale(1,1)} 100% {transform: translate(16px,16px) scale(1,1)}} #e6X7T9wLK8e2 {animation: e6X7T9wLK8e2_c_o 1000ms linear infinite normal forwards}@keyframes e6X7T9wLK8e2_c_o { 0% {opacity: 1} 50% {opacity: 1} 100% {opacity: 0}}]]></style><g id="e6X7T9wLK8e2_ts" transform="translate(16,16) scale(0,0)"><g id="e6X7T9wLK8e2" transform="translate(-16,-16)"><circle id="e6X7T9wLK8e3" r="16" transform="matrix(1 0 0 1 16 16)" fill="rgb(214,54,73)" fill-opacity="0.12" stroke="none" stroke-width="1"/><circle id="e6X7T9wLK8e4" r="15.500000" transform="matrix(1 0 0 1 16 16)" fill="none" stroke="rgb(229,14,15)" stroke-width="1" stroke-opacity="0.19"/></g></g><path id="e6X7T9wLK8e5" d="M27.466700,11.772700L27.466700,10.545500C27.466700,9.139640,26.356800,8,24.987500,8L7.279220,8C5.910010,8,4.800050,9.139640,4.800050,10.545500L4.800050,11.772700C4.800050,11.898200,4.899170,12,5.021400,12L27.245400,12C27.367600,12,27.466700,11.898200,27.466700,11.772700Z" fill="rgb(229,14,15)" stroke="none" stroke-width="1"/><path id="e6X7T9wLK8e6" d="M4.800050,13.681900L4.800050,21.454600C4.800050,22.860400,5.910010,24,7.279220,24L24.987500,24C26.356800,24,27.466700,22.860400,27.466700,21.454600L27.466700,13.681900C27.466700,13.556400,27.367600,13.454600,27.245400,13.454600L5.021400,13.454600C4.899170,13.454600,4.800050,13.556400,4.800050,13.681900Z" fill="rgb(229,14,15)" stroke="none" stroke-width="1"/></svg>