<svg width="32" height="45" viewBox="0 0 32 45" fill="none" xmlns="http://www.w3.org/2000/svg">
<path d="M12.8857 32C12.581 32 12.3067 31.8933 12.0629 31.68C11.8495 31.4362 11.7429 31.1619 11.7429 30.8571V21.0286L1.13714 1.46286C1.04571 1.18857 1 1.02095 1 0.960001C1 0.716191 1.09143 0.502858 1.27429 0.320002C1.48762 0.106667 1.73143 0 2.00571 0H7.72C8.32952 0 8.86286 0.32 9.32 0.960001L15.8571 12.7543L22.44 0.960001C22.8057 0.32 23.3391 0 24.04 0H29.7543C30.0286 0 30.2571 0.106667 30.44 0.320002C30.6229 0.502858 30.7143 0.716191 30.7143 0.960001C30.7143 1.11238 30.6838 1.28 30.6229 1.46286L20.0171 21.0286V30.8571C20.0171 31.1924 19.8952 31.4667 19.6514 31.68C19.4381 31.8933 19.1638 32 18.8286 32H12.8857Z" fill="#E50E0F"/>
<path d="M3.30667 44.5333C2.2479 44.5333 1.44198 44.2489 0.888889 43.68C0.343704 43.1111 0.051358 42.3249 0.0118519 41.3215C0.00395062 41.1081 0 40.7605 0 40.2785C0 39.7886 0.00395062 39.4331 0.0118519 39.2119C0.051358 38.2163 0.347654 37.4341 0.900741 36.8652C1.45383 36.2884 2.2558 36 3.30667 36C4.00988 36 4.60642 36.1264 5.0963 36.3793C5.58617 36.6242 5.95753 36.9481 6.21037 37.3511C6.46321 37.7541 6.60148 38.1847 6.62518 38.643V38.6667C6.62518 38.7299 6.59753 38.7852 6.54222 38.8326C6.49481 38.8721 6.43951 38.8919 6.3763 38.8919H5.72444C5.56642 38.8919 5.46765 38.801 5.42815 38.6193C5.29383 38.0267 5.05284 37.6119 4.70518 37.3748C4.35753 37.1299 3.89136 37.0074 3.30667 37.0074C1.94765 37.0074 1.24444 37.762 1.19704 39.2711C1.18914 39.4844 1.18519 39.8123 1.18519 40.2548C1.18519 40.6973 1.18914 41.0331 1.19704 41.2622C1.24444 42.7714 1.94765 43.5259 3.30667 43.5259C3.89136 43.5259 4.35753 43.4074 4.70518 43.1704C5.06074 42.9254 5.30173 42.5067 5.42815 41.9141C5.45185 41.8114 5.48741 41.7402 5.53481 41.7007C5.58222 41.6612 5.64543 41.6415 5.72444 41.6415H6.3763C6.44741 41.6415 6.50667 41.6652 6.55407 41.7126C6.60938 41.7521 6.63309 41.8074 6.62518 41.8785C6.60148 42.3447 6.46321 42.7793 6.21037 43.1822C5.95753 43.5852 5.58617 43.9131 5.0963 44.1659C4.60642 44.4109 4.00988 44.5333 3.30667 44.5333Z" fill="white"/>
<path d="M12.3972 44.4148C12.3182 44.4148 12.251 44.3911 12.1957 44.3437C12.1483 44.2884 12.1246 44.2212 12.1246 44.1422V36.403C12.1246 36.316 12.1483 36.2489 12.1957 36.2015C12.251 36.1462 12.3182 36.1185 12.3972 36.1185H15.2891C16.1977 36.1185 16.9088 36.3319 17.4224 36.7585C17.936 37.1852 18.1928 37.8015 18.1928 38.6074C18.1928 39.2079 18.0427 39.7017 17.7424 40.0889C17.4501 40.476 17.0352 40.7447 16.498 40.8948L18.3231 44.0474C18.3469 44.0948 18.3587 44.1383 18.3587 44.1778C18.3587 44.241 18.331 44.2963 18.2757 44.3437C18.2283 44.3911 18.173 44.4148 18.1098 44.4148H17.5409C17.4224 44.4148 17.3276 44.3872 17.2565 44.3319C17.1933 44.2765 17.134 44.1975 17.0787 44.0948L15.3602 41.0844H13.2861V44.1422C13.2861 44.2212 13.2585 44.2884 13.2031 44.3437C13.1478 44.3911 13.0807 44.4148 13.0017 44.4148H12.3972ZM15.2417 40.077C16.4189 40.077 17.0076 39.5832 17.0076 38.5956C17.0076 37.6079 16.4189 37.1141 15.2417 37.1141H13.2861V40.077H15.2417Z" fill="white"/>
<path d="M24.0745 44.4148C23.9955 44.4148 23.9284 44.3911 23.8731 44.3437C23.8256 44.2884 23.8019 44.2212 23.8019 44.1422V36.403C23.8019 36.316 23.8256 36.2489 23.8731 36.2015C23.9284 36.1462 23.9955 36.1185 24.0745 36.1185H24.6671C24.7935 36.1185 24.8963 36.1817 24.9753 36.3081L27.476 41.0963L30.0005 36.3081C30.0163 36.2607 30.0479 36.2173 30.0953 36.1778C30.1506 36.1383 30.2177 36.1185 30.2968 36.1185H30.8775C30.9644 36.1185 31.0316 36.1462 31.079 36.2015C31.1343 36.2489 31.1619 36.316 31.1619 36.403V44.1422C31.1619 44.2212 31.1343 44.2884 31.079 44.3437C31.0237 44.3911 30.9565 44.4148 30.8775 44.4148H30.2968C30.2177 44.4148 30.1506 44.3911 30.0953 44.3437C30.0479 44.2884 30.0242 44.2212 30.0242 44.1422V38.3111L28.0449 42.1748C27.9659 42.3407 27.8395 42.4237 27.6656 42.4237H27.2982C27.1244 42.4237 26.998 42.3407 26.919 42.1748L24.9279 38.3111V44.1422C24.9279 44.2212 24.9002 44.2884 24.8449 44.3437C24.7975 44.3911 24.7343 44.4148 24.6553 44.4148H24.0745Z" fill="white"/>
</svg>
