<svg width="147" height="32" viewBox="0 0 147 32" fill="none" xmlns="http://www.w3.org/2000/svg">
<path d="M11.8857 32C11.581 32 11.3067 31.8933 11.0629 31.68C10.8495 31.4362 10.7429 31.1619 10.7429 30.8571V21.0286L0.137143 1.46286C0.0457143 1.18857 0 1.02095 0 0.960001C0 0.716191 0.0914286 0.502858 0.274286 0.320002C0.487619 0.106667 0.731429 0 1.00571 0H6.72C7.32952 0 7.86286 0.32 8.32 0.960001L14.8571 12.7543L21.44 0.960001C21.8057 0.32 22.3391 0 23.04 0H28.7543C29.0286 0 29.2571 0.106667 29.44 0.320002C29.6229 0.502858 29.7143 0.716191 29.7143 0.960001C29.7143 1.11238 29.6838 1.28 29.6229 1.46286L19.0171 21.0286V30.8571C19.0171 31.1924 18.8952 31.4667 18.6514 31.68C18.4381 31.8933 18.1638 32 17.8286 32H11.8857Z" fill="#F26869"/>
<path d="M39.82 14.9333C38.0916 14.9333 36.7227 14.5462 35.7133 13.7719C34.7039 12.9975 34.1992 11.8914 34.1992 10.4533C34.1992 10.1353 34.2338 9.75506 34.3029 9.31259C34.4688 8.31704 34.7316 7.08642 35.0911 5.62074C35.5474 3.78173 36.3839 2.38519 37.6007 1.43111C38.8175 0.477037 40.4076 0 42.3711 0C43.4496 0 44.4244 0.165926 45.2955 0.497777C46.1805 0.829629 46.8787 1.30667 47.3903 1.92889C47.9019 2.55111 48.1577 3.29086 48.1577 4.14815C48.1577 4.45235 48.1301 4.7358 48.0748 4.99852C48.0471 5.12296 47.9849 5.22667 47.8881 5.30963C47.8051 5.39259 47.7014 5.43407 47.577 5.43407H44.7563C44.5627 5.43407 44.4175 5.39951 44.3207 5.33037C44.2377 5.24741 44.1893 5.10222 44.1755 4.89481C44.1893 4.21728 44.0165 3.73333 43.657 3.44296C43.2975 3.13876 42.7721 2.98667 42.0807 2.98667C40.4214 2.98667 39.3706 3.89926 38.9281 5.72444C38.6377 6.85827 38.3888 8.01975 38.1814 9.20889C38.1261 9.49926 38.0985 9.78963 38.0985 10.08C38.0985 11.3244 38.7622 11.9467 40.0896 11.9467C40.7671 11.9467 41.3548 11.8015 41.8526 11.5111C42.3503 11.2069 42.7582 10.716 43.0763 10.0385C43.173 9.83111 43.2767 9.69284 43.3874 9.6237C43.498 9.54074 43.6501 9.49926 43.8437 9.49926H46.6644C46.7888 9.49926 46.8856 9.54074 46.9548 9.6237C47.0101 9.67901 47.0377 9.74815 47.0377 9.83111C47.0377 9.85876 47.0308 9.89333 47.017 9.93481C46.6298 11.4973 45.814 12.721 44.5696 13.6059C43.3251 14.4909 41.7419 14.9333 39.82 14.9333Z" fill="white"/>
<path d="M48.6591 14.7259C48.507 14.7259 48.3895 14.6775 48.3065 14.5807C48.2374 14.4839 48.2166 14.3595 48.2443 14.2074L51.1065 0.725927C51.1341 0.573827 51.2102 0.449382 51.3346 0.352593C51.4591 0.255802 51.5904 0.207407 51.7287 0.207407H54.4043C54.5564 0.207407 54.6739 0.255802 54.7569 0.352593C54.826 0.421728 54.8606 0.511605 54.8606 0.622223C54.8606 0.649876 54.8536 0.684445 54.8398 0.725927L53.782 5.72444H58.8843L59.942 0.725927C59.9697 0.573827 60.0457 0.449382 60.1702 0.352593C60.2946 0.255802 60.426 0.207407 60.5643 0.207407H63.2398C63.3919 0.207407 63.5095 0.255802 63.5924 0.352593C63.6616 0.421728 63.6961 0.511605 63.6961 0.622223C63.6961 0.649876 63.6892 0.684445 63.6754 0.725927L60.7924 14.2074C60.7648 14.3595 60.6887 14.4839 60.5643 14.5807C60.4536 14.6775 60.3223 14.7259 60.1702 14.7259H57.4946C57.3425 14.7259 57.225 14.6775 57.142 14.5807C57.0729 14.4701 57.0522 14.3457 57.0798 14.2074L58.1791 9.04296H53.0769L51.9776 14.2074C51.9499 14.3595 51.8739 14.4839 51.7495 14.5807C51.625 14.6775 51.4867 14.7259 51.3346 14.7259H48.6591Z" fill="white"/>
<path d="M62.8067 14.7259C62.6823 14.7259 62.5855 14.6914 62.5163 14.6222C62.4472 14.5393 62.4126 14.4425 62.4126 14.3319C62.4126 14.2627 62.4334 14.1867 62.4748 14.1037L70.1697 0.788148C70.3909 0.400988 70.702 0.207407 71.103 0.207407H74.2971C74.6981 0.207407 74.9262 0.400988 74.9815 0.788148L77.0141 14.1037C77.0418 14.2973 77.0072 14.4494 76.9104 14.56C76.8136 14.6706 76.6892 14.7259 76.5371 14.7259H74.0274C73.6679 14.7259 73.4605 14.56 73.4052 14.2281L73.0526 12.1748H67.5148L66.2704 14.2904C66.063 14.5807 65.8072 14.7259 65.503 14.7259H62.8067ZM72.8452 9.18815L72.0778 3.71259L68.9874 9.18815H72.8452Z" fill="white"/>
<path d="M79.082 14.7259C78.9299 14.7259 78.8124 14.6775 78.7294 14.5807C78.6465 14.4839 78.6188 14.3595 78.6465 14.2074L81.5087 0.725927C81.5363 0.573827 81.6124 0.449382 81.7368 0.352593C81.8613 0.255802 81.9995 0.207407 82.1516 0.207407H84.3916C84.7235 0.207407 84.9378 0.359506 85.0346 0.663704L87.2954 7.19704L92.3354 0.663704C92.4045 0.553086 92.5013 0.449382 92.6257 0.352593C92.764 0.255802 92.9299 0.207407 93.1235 0.207407H95.3842C95.5363 0.207407 95.6539 0.255802 95.7368 0.352593C95.7921 0.435555 95.8198 0.518519 95.8198 0.601481C95.8198 0.642963 95.8129 0.684445 95.7991 0.725927L92.9368 14.2074C92.9092 14.3595 92.8331 14.4839 92.7087 14.5807C92.5842 14.6775 92.4529 14.7259 92.3146 14.7259H89.805C89.6529 14.7259 89.5354 14.6775 89.4524 14.5807C89.3833 14.4701 89.3625 14.3457 89.3902 14.2074L91.0079 6.55407L87.8346 10.7644C87.6963 10.9165 87.565 11.0341 87.4405 11.117C87.3161 11.2 87.1709 11.2415 87.005 11.2415H85.9265C85.6361 11.2415 85.4356 11.0825 85.325 10.7644L83.8524 6.36741L82.1931 14.2074C82.1655 14.3595 82.0894 14.4839 81.965 14.5807C81.8405 14.6775 81.7092 14.7259 81.5709 14.7259H79.082Z" fill="white"/>
<path d="M96.2372 14.7259C96.0851 14.7259 95.9676 14.6775 95.8846 14.5807C95.8155 14.4701 95.7947 14.3457 95.8224 14.2074L98.6846 0.725927C98.7123 0.573827 98.7883 0.449382 98.9128 0.352593C99.0372 0.255802 99.1686 0.207407 99.3068 0.207407H104.824C106.359 0.207407 107.589 0.525432 108.516 1.16148C109.456 1.79753 109.926 2.71704 109.926 3.92C109.926 4.26568 109.885 4.62519 109.802 4.99852C109.456 6.58864 108.758 7.76395 107.707 8.52444C106.67 9.28494 105.246 9.66518 103.434 9.66518H100.634L99.6802 14.2074C99.6525 14.3595 99.5765 14.4839 99.452 14.5807C99.3276 14.6775 99.1962 14.7259 99.0579 14.7259H96.2372ZM103.579 6.80296C104.16 6.80296 104.665 6.64395 105.093 6.32593C105.536 6.0079 105.826 5.5516 105.965 4.95704C106.006 4.72198 106.027 4.51457 106.027 4.33481C106.027 3.93383 105.909 3.62963 105.674 3.42222C105.439 3.20099 105.038 3.09037 104.471 3.09037H101.982L101.194 6.80296H103.579Z" fill="white"/>
<path d="M110.274 14.7259C110.122 14.7259 110.004 14.6775 109.921 14.5807C109.838 14.4701 109.81 14.3457 109.838 14.2074L112.721 0.725927C112.749 0.573827 112.825 0.449382 112.949 0.352593C113.074 0.255802 113.205 0.207407 113.343 0.207407H116.143C116.295 0.207407 116.413 0.255802 116.496 0.352593C116.551 0.435555 116.579 0.518519 116.579 0.601481C116.579 0.642963 116.572 0.684445 116.558 0.725927L113.696 14.2074C113.668 14.3595 113.592 14.4839 113.468 14.5807C113.343 14.6775 113.212 14.7259 113.074 14.7259H110.274Z" fill="white"/>
<path d="M122.681 14.9333C121.036 14.9333 119.688 14.5462 118.637 13.7719C117.6 12.9837 117.081 11.8637 117.081 10.4119C117.081 10.1077 117.116 9.73432 117.185 9.29185C117.365 8.2963 117.62 7.10025 117.952 5.7037C118.893 1.90123 121.319 0 125.232 0C126.297 0 127.251 0.179753 128.094 0.53926C128.938 0.884938 129.602 1.41037 130.086 2.11556C130.57 2.80691 130.812 3.63654 130.812 4.60444C130.812 4.89481 130.777 5.26123 130.708 5.7037C130.5 6.93432 130.252 8.13037 129.961 9.29185C129.477 11.1862 128.641 12.6035 127.452 13.5437C126.262 14.4701 124.672 14.9333 122.681 14.9333ZM122.972 11.9467C123.746 11.9467 124.403 11.7185 124.942 11.2622C125.495 10.8059 125.889 10.1077 126.124 9.16741C126.442 7.86765 126.684 6.73383 126.85 5.76593C126.905 5.47556 126.933 5.17827 126.933 4.87407C126.933 3.6158 126.276 2.98667 124.963 2.98667C124.188 2.98667 123.525 3.21481 122.972 3.67111C122.432 4.12741 122.045 4.82568 121.81 5.76593C121.561 6.69235 121.312 7.82617 121.063 9.16741C121.008 9.44395 120.98 9.73432 120.98 10.0385C120.98 11.3106 121.644 11.9467 122.972 11.9467Z" fill="white"/>
<path d="M131.764 14.7259C131.612 14.7259 131.494 14.6775 131.411 14.5807C131.342 14.4701 131.321 14.3457 131.349 14.2074L134.211 0.725927C134.239 0.573827 134.315 0.449382 134.439 0.352593C134.564 0.255802 134.695 0.207407 134.833 0.207407H137.032C137.364 0.207407 137.571 0.338765 137.654 0.601481L141.035 8.62815L142.715 0.725927C142.743 0.573827 142.819 0.449382 142.943 0.352593C143.068 0.255802 143.199 0.207407 143.337 0.207407H145.826C145.978 0.207407 146.096 0.255802 146.179 0.352593C146.248 0.421728 146.282 0.511605 146.282 0.622223C146.282 0.649876 146.275 0.684445 146.262 0.725927L143.379 14.1867C143.351 14.3388 143.275 14.4701 143.15 14.5807C143.04 14.6775 142.909 14.7259 142.756 14.7259H140.558C140.364 14.7259 140.226 14.6914 140.143 14.6222C140.06 14.5393 139.991 14.4425 139.936 14.3319L136.513 6.59556L134.896 14.2074C134.868 14.3595 134.792 14.4839 134.668 14.5807C134.543 14.6775 134.405 14.7259 134.253 14.7259H131.764Z" fill="white"/>
<path d="M37.5059 32C36.4471 32 35.6412 31.7156 35.0881 31.1467C34.5429 30.5778 34.2506 29.7916 34.2111 28.7882C34.2032 28.5748 34.1992 28.2272 34.1992 27.7452C34.1992 27.2553 34.2032 26.8998 34.2111 26.6785C34.2506 25.683 34.5469 24.9007 35.1 24.3319C35.653 23.7551 36.455 23.4667 37.5059 23.4667C38.2091 23.4667 38.8056 23.5931 39.2955 23.8459C39.7854 24.0909 40.1567 24.4148 40.4096 24.8178C40.6624 25.2207 40.8007 25.6514 40.8244 26.1096V26.1333C40.8244 26.1966 40.7967 26.2519 40.7414 26.2993C40.694 26.3388 40.6387 26.3585 40.5755 26.3585H39.9237C39.7656 26.3585 39.6669 26.2677 39.6274 26.0859C39.493 25.4933 39.2521 25.0785 38.9044 24.8415C38.5567 24.5966 38.0906 24.4741 37.5059 24.4741C36.1469 24.4741 35.4437 25.2287 35.3963 26.7378C35.3884 26.9511 35.3844 27.279 35.3844 27.7215C35.3844 28.164 35.3884 28.4998 35.3963 28.7289C35.4437 30.238 36.1469 30.9926 37.5059 30.9926C38.0906 30.9926 38.5567 30.8741 38.9044 30.637C39.26 30.3921 39.5009 29.9733 39.6274 29.3807C39.6511 29.278 39.6866 29.2069 39.734 29.1674C39.7814 29.1279 39.8447 29.1082 39.9237 29.1082H40.5755C40.6466 29.1082 40.7059 29.1319 40.7533 29.1793C40.8086 29.2188 40.8323 29.2741 40.8244 29.3452C40.8007 29.8114 40.6624 30.2459 40.4096 30.6489C40.1567 31.0519 39.7854 31.3798 39.2955 31.6326C38.8056 31.8775 38.2091 32 37.5059 32Z" fill="white"/>
<path d="M46.5964 31.8815C46.5174 31.8815 46.4503 31.8578 46.395 31.8104C46.3476 31.7551 46.3238 31.6879 46.3238 31.6089V23.8696C46.3238 23.7827 46.3476 23.7156 46.395 23.6682C46.4503 23.6128 46.5174 23.5852 46.5964 23.5852H49.4883C50.3969 23.5852 51.108 23.7985 51.6216 24.2252C52.1352 24.6519 52.392 25.2682 52.392 26.0741C52.392 26.6746 52.2419 27.1684 51.9416 27.5556C51.6493 27.9427 51.2345 28.2114 50.6972 28.3615L52.5224 31.5141C52.5461 31.5615 52.5579 31.6049 52.5579 31.6445C52.5579 31.7077 52.5303 31.763 52.475 31.8104C52.4276 31.8578 52.3722 31.8815 52.309 31.8815H51.7401C51.6216 31.8815 51.5268 31.8538 51.4557 31.7985C51.3925 31.7432 51.3332 31.6642 51.2779 31.5615L49.5594 28.5511H47.4853V31.6089C47.4853 31.6879 47.4577 31.7551 47.4024 31.8104C47.3471 31.8578 47.2799 31.8815 47.2009 31.8815H46.5964ZM49.4409 27.5437C50.6182 27.5437 51.2068 27.0499 51.2068 26.0622C51.2068 25.0746 50.6182 24.5807 49.4409 24.5807H47.4853V27.5437H49.4409Z" fill="white"/>
<path d="M58.2738 31.8815C58.1947 31.8815 58.1276 31.8578 58.0723 31.8104C58.0249 31.7551 58.0012 31.6879 58.0012 31.6089V23.8696C58.0012 23.7827 58.0249 23.7156 58.0723 23.6682C58.1276 23.6128 58.1947 23.5852 58.2738 23.5852H58.8663C58.9928 23.5852 59.0955 23.6484 59.1745 23.7748L61.6752 28.563L64.1997 23.7748C64.2155 23.7274 64.2471 23.684 64.2945 23.6445C64.3498 23.6049 64.417 23.5852 64.496 23.5852H65.0767C65.1636 23.5852 65.2308 23.6128 65.2782 23.6682C65.3335 23.7156 65.3612 23.7827 65.3612 23.8696V31.6089C65.3612 31.6879 65.3335 31.7551 65.2782 31.8104C65.2229 31.8578 65.1557 31.8815 65.0767 31.8815H64.496C64.417 31.8815 64.3498 31.8578 64.2945 31.8104C64.2471 31.7551 64.2234 31.6879 64.2234 31.6089V25.7778L62.2441 29.6415C62.1651 29.8074 62.0387 29.8904 61.8649 29.8904H61.4975C61.3236 29.8904 61.1972 29.8074 61.1182 29.6415L59.1271 25.7778V31.6089C59.1271 31.6879 59.0994 31.7551 59.0441 31.8104C58.9967 31.8578 58.9335 31.8815 58.8545 31.8815H58.2738Z" fill="white"/>
<path d="M80.8049 32C80.1491 32 79.5802 31.8973 79.0982 31.6919C78.6241 31.4864 78.2607 31.2178 78.0078 30.8859C77.755 30.5462 77.6207 30.1827 77.6049 29.7956C77.6049 29.7324 77.6286 29.677 77.676 29.6296C77.7313 29.5743 77.7945 29.5467 77.8656 29.5467H78.47C78.6202 29.5467 78.7229 29.6257 78.7782 29.7837C78.8493 30.1156 79.0508 30.4 79.3826 30.637C79.7224 30.8741 80.1965 30.9926 80.8049 30.9926C81.4607 30.9926 81.9545 30.878 82.2863 30.6489C82.6182 30.4119 82.7841 30.084 82.7841 29.6652C82.7841 29.3966 82.7012 29.1793 82.5352 29.0133C82.3772 28.8474 82.1402 28.7012 81.8241 28.5748C81.5081 28.4484 81.034 28.2904 80.4019 28.1007C79.7856 27.9269 79.2957 27.7412 78.9323 27.5437C78.5688 27.3462 78.2962 27.1012 78.1145 26.8089C77.9328 26.5166 77.8419 26.1491 77.8419 25.7067C77.8419 25.28 77.9565 24.8968 78.1856 24.557C78.4226 24.2173 78.7584 23.9526 79.193 23.763C79.6276 23.5654 80.1451 23.4667 80.7456 23.4667C81.3619 23.4667 81.8913 23.5773 82.3337 23.7985C82.7762 24.0119 83.112 24.2845 83.3412 24.6163C83.5703 24.9482 83.6928 25.28 83.7086 25.6119C83.7086 25.6751 83.6849 25.7304 83.6375 25.7778C83.5979 25.8252 83.5387 25.8489 83.4597 25.8489H82.8315C82.6656 25.8489 82.5629 25.7738 82.5234 25.6237C82.476 25.2919 82.2903 25.0193 81.9663 24.8059C81.6424 24.5847 81.2355 24.4741 80.7456 24.4741C80.2083 24.4741 79.7856 24.5768 79.4775 24.7822C79.1693 24.9877 79.0152 25.2919 79.0152 25.6948C79.0152 25.9635 79.0863 26.1847 79.2286 26.3585C79.3787 26.5324 79.6039 26.6864 79.9041 26.8207C80.2044 26.9472 80.6429 27.0933 81.2197 27.2593C81.8913 27.441 82.4207 27.6306 82.8078 27.8282C83.195 28.0178 83.4834 28.2588 83.673 28.5511C83.8626 28.8356 83.9575 29.199 83.9575 29.6415C83.9575 30.3763 83.673 30.9531 83.1041 31.3719C82.5352 31.7906 81.7688 32 80.8049 32Z" fill="white"/>
<path d="M91.61 31.8815C91.5309 31.8815 91.4638 31.8578 91.4085 31.8104C91.3611 31.7551 91.3374 31.6879 91.3374 31.6089V28.8119L88.4811 23.9763C88.4811 23.9605 88.4771 23.9368 88.4692 23.9052C88.4534 23.8736 88.4455 23.8459 88.4455 23.8222C88.4455 23.759 88.4692 23.7037 88.5166 23.6563C88.564 23.6089 88.6193 23.5852 88.6825 23.5852H89.2988C89.4332 23.5852 89.5359 23.6524 89.607 23.7867L91.9181 27.6267L94.2292 23.7867C94.3161 23.6524 94.4228 23.5852 94.5492 23.5852H95.1537C95.2248 23.5852 95.284 23.6089 95.3314 23.6563C95.3788 23.7037 95.4025 23.759 95.4025 23.8222C95.4025 23.8617 95.3867 23.9131 95.3551 23.9763L92.5107 28.8119V31.6089C92.5107 31.6879 92.483 31.7551 92.4277 31.8104C92.3724 31.8578 92.3053 31.8815 92.2262 31.8815H91.61Z" fill="white"/>
<path d="M103.095 32C102.439 32 101.87 31.8973 101.388 31.6919C100.914 31.4864 100.55 31.2178 100.298 30.8859C100.045 30.5462 99.9105 30.1827 99.8947 29.7956C99.8947 29.7324 99.9184 29.677 99.9658 29.6296C100.021 29.5743 100.084 29.5467 100.155 29.5467H100.76C100.91 29.5467 101.013 29.6257 101.068 29.7837C101.139 30.1156 101.341 30.4 101.672 30.637C102.012 30.8741 102.486 30.9926 103.095 30.9926C103.75 30.9926 104.244 30.878 104.576 30.6489C104.908 30.4119 105.074 30.084 105.074 29.6652C105.074 29.3966 104.991 29.1793 104.825 29.0133C104.667 28.8474 104.43 28.7012 104.114 28.5748C103.798 28.4484 103.324 28.2904 102.692 28.1007C102.075 27.9269 101.586 27.7412 101.222 27.5437C100.859 27.3462 100.586 27.1012 100.404 26.8089C100.223 26.5166 100.132 26.1491 100.132 25.7067C100.132 25.28 100.246 24.8968 100.475 24.557C100.712 24.2173 101.048 23.9526 101.483 23.763C101.917 23.5654 102.435 23.4667 103.035 23.4667C103.652 23.4667 104.181 23.5773 104.624 23.7985C105.066 24.0119 105.402 24.2845 105.631 24.6163C105.86 24.9482 105.983 25.28 105.998 25.6119C105.998 25.6751 105.975 25.7304 105.927 25.7778C105.888 25.8252 105.828 25.8489 105.749 25.8489H105.121C104.955 25.8489 104.853 25.7738 104.813 25.6237C104.766 25.2919 104.58 25.0193 104.256 24.8059C103.932 24.5847 103.525 24.4741 103.035 24.4741C102.498 24.4741 102.075 24.5768 101.767 24.7822C101.459 24.9877 101.305 25.2919 101.305 25.6948C101.305 25.9635 101.376 26.1847 101.518 26.3585C101.669 26.5324 101.894 26.6864 102.194 26.8207C102.494 26.9472 102.933 27.0933 103.509 27.2593C104.181 27.441 104.71 27.6306 105.098 27.8282C105.485 28.0178 105.773 28.2588 105.963 28.5511C106.152 28.8356 106.247 29.199 106.247 29.6415C106.247 30.3763 105.963 30.9531 105.394 31.3719C104.825 31.7906 104.059 32 103.095 32Z" fill="white"/>
<path d="M113.705 31.8815C113.626 31.8815 113.559 31.8578 113.504 31.8104C113.456 31.7551 113.433 31.6879 113.433 31.6089V24.64H111.157C111.078 24.64 111.011 24.6163 110.956 24.5689C110.908 24.5136 110.884 24.4464 110.884 24.3674V23.8696C110.884 23.7906 110.908 23.7235 110.956 23.6682C111.011 23.6128 111.078 23.5852 111.157 23.5852H116.87C116.956 23.5852 117.024 23.6128 117.071 23.6682C117.126 23.7156 117.154 23.7827 117.154 23.8696V24.3674C117.154 24.4464 117.126 24.5136 117.071 24.5689C117.016 24.6163 116.949 24.64 116.87 24.64H114.606V31.6089C114.606 31.6879 114.578 31.7551 114.523 31.8104C114.468 31.8578 114.4 31.8815 114.321 31.8815H113.705Z" fill="white"/>
<path d="M122.666 31.8815C122.587 31.8815 122.52 31.8578 122.465 31.8104C122.417 31.7551 122.394 31.6879 122.394 31.6089V23.8696C122.394 23.7827 122.417 23.7156 122.465 23.6682C122.52 23.6128 122.587 23.5852 122.666 23.5852H127.561C127.64 23.5852 127.703 23.6128 127.751 23.6682C127.806 23.7156 127.834 23.7827 127.834 23.8696V24.32C127.834 24.399 127.81 24.4662 127.763 24.5215C127.715 24.5689 127.648 24.5926 127.561 24.5926H123.532V27.1882H127.3C127.379 27.1882 127.443 27.2158 127.49 27.2711C127.545 27.3185 127.573 27.3857 127.573 27.4726V27.9111C127.573 27.9901 127.545 28.0573 127.49 28.1126C127.443 28.16 127.379 28.1837 127.3 28.1837H123.532V30.8741H127.656C127.743 30.8741 127.81 30.8978 127.857 30.9452C127.905 30.9926 127.929 31.0598 127.929 31.1467V31.6089C127.929 31.6879 127.901 31.7551 127.846 31.8104C127.798 31.8578 127.735 31.8815 127.656 31.8815H122.666Z" fill="white"/>
<path d="M133.765 31.8815C133.686 31.8815 133.619 31.8578 133.563 31.8104C133.516 31.7551 133.492 31.6879 133.492 31.6089V23.8696C133.492 23.7827 133.516 23.7156 133.563 23.6682C133.619 23.6128 133.686 23.5852 133.765 23.5852H134.358C134.484 23.5852 134.587 23.6484 134.666 23.7748L137.166 28.563L139.691 23.7748C139.707 23.7274 139.738 23.684 139.786 23.6445C139.841 23.6049 139.908 23.5852 139.987 23.5852H140.568C140.655 23.5852 140.722 23.6128 140.769 23.6682C140.825 23.7156 140.852 23.7827 140.852 23.8696V31.6089C140.852 31.6879 140.825 31.7551 140.769 31.8104C140.714 31.8578 140.647 31.8815 140.568 31.8815H139.987C139.908 31.8815 139.841 31.8578 139.786 31.8104C139.738 31.7551 139.715 31.6879 139.715 31.6089V25.7778L137.735 29.6415C137.656 29.8074 137.53 29.8904 137.356 29.8904H136.989C136.815 29.8904 136.688 29.8074 136.609 29.6415L134.618 25.7778V31.6089C134.618 31.6879 134.591 31.7551 134.535 31.8104C134.488 31.8578 134.425 31.8815 134.346 31.8815H133.765Z" fill="white"/>
</svg>
