<svg width="16" height="16" viewBox="0 0 16 16" fill="none" xmlns="http://www.w3.org/2000/svg">
<g clip-path="url(#clip0)">
<path d="M15.8684 7.70945L13.9556 5.79661C13.7857 5.62659 13.4881 5.62659 13.3185 5.79661L13.0766 6.0383C12.901 6.21391 12.901 6.49566 13.0766 6.67114L13.7879 7.37813H8.62409V2.22445L9.33329 2.94419C9.50318 3.11395 9.7956 3.11395 9.9651 2.94419L10.2044 2.7025C10.3802 2.52676 10.3786 2.24084 10.203 2.06523L8.28718 0.144717C8.20263 0.060424 8.0892 0.00865173 7.96835 0.00865173H7.95521C7.8345 0.00865173 7.72146 0.0602939 7.63704 0.144717L5.76101 2.02348C5.67606 2.10829 5.62923 2.22263 5.62923 2.34335C5.62923 2.4638 5.67606 2.57775 5.76101 2.66256L6.0027 2.90465C6.17258 3.0744 6.47788 3.07466 6.64751 2.90478L7.37492 2.18504V7.37813H2.20485L2.92485 6.66243C3.00966 6.57761 3.05649 6.4664 3.05649 6.34594C3.05649 6.22549 3.00966 6.11309 2.92472 6.02854L2.6829 5.78724C2.51314 5.61762 2.21552 5.61814 2.04602 5.7875L0.130709 7.70282C0.0438149 7.78971 -0.00262398 7.90587 -0.000412597 8.02542C-0.00262398 8.14951 0.0436849 8.26568 0.130579 8.35244L2.00635 10.2286C2.17623 10.3984 2.47399 10.3984 2.64361 10.2286L2.88557 9.98665C2.97025 9.9021 3.01708 9.78879 3.01708 9.66834C3.01708 9.54749 2.97025 9.43315 2.88557 9.34847L2.16557 8.62743H7.37479V13.8317L6.6159 13.0809C6.4464 12.9111 6.14475 12.9111 5.97525 13.0809L5.73135 13.3228C5.64667 13.4074 5.59893 13.5207 5.59893 13.6413C5.59893 13.7617 5.64523 13.8749 5.72992 13.9597L7.63066 15.8607C7.71508 15.945 7.82799 15.9917 7.95261 15.9917C7.95339 15.9912 7.96042 15.9917 7.96146 15.9917C8.08217 15.9917 8.19534 15.9451 8.2799 15.8607L10.193 13.9475C10.2776 13.8628 10.3245 13.7495 10.3245 13.629C10.3245 13.5083 10.2777 13.3952 10.193 13.3105L9.95105 13.0685C9.78142 12.8988 9.49433 12.8988 9.32458 13.0685L8.62409 13.7797V8.6273H13.8398L13.0887 9.37956C13.0038 9.46437 12.9571 9.57832 12.9571 9.69891C12.9571 9.81949 13.0037 9.93279 13.0887 10.0176L13.3307 10.2597C13.5002 10.4296 13.7981 10.4296 13.9676 10.2597L15.8684 8.35881C15.9553 8.27218 16.0016 8.15576 15.9994 8.03634C16.0018 7.91225 15.9553 7.79621 15.8684 7.70945Z" fill="white"/>
</g>
<defs>
<clipPath id="clip0">
<rect width="16" height="16" fill="white"/>
</clipPath>
</defs>
</svg>
