<svg width="23" height="20" viewBox="0 0 23 20" fill="none" xmlns="http://www.w3.org/2000/svg">
<path d="M18.0444 0.210938H12.7111C10.1382 0.210938 8.04443 2.30467 8.04443 4.8776C8.04443 7.22463 9.78599 9.17254 12.0444 9.49676V11.5443C12.0444 11.8138 12.2065 12.0573 12.4559 12.1601C12.7018 12.2628 12.9903 12.2077 13.1825 12.0156L15.6538 9.54427H18.0444C20.6174 9.54427 22.7555 7.45054 22.7555 4.8776C22.7555 2.30467 20.6174 0.210938 18.0444 0.210938ZM12.7111 5.54418C12.3428 5.54418 12.0444 5.24569 12.0444 4.87751C12.0444 4.50934 12.3428 4.21085 12.7111 4.21085C13.0793 4.21085 13.3778 4.50934 13.3778 4.87751C13.3778 5.24569 13.0793 5.54418 12.7111 5.54418ZM15.3778 5.54418C15.0095 5.54418 14.7111 5.24569 14.7111 4.87751C14.7111 4.50934 15.0095 4.21085 15.3778 4.21085C15.7459 4.21085 16.0444 4.50934 16.0444 4.87751C16.0444 5.24569 15.7459 5.54418 15.3778 5.54418ZM18.0444 5.54418C17.6762 5.54418 17.3778 5.24569 17.3778 4.87751C17.3778 4.50934 17.6762 4.21085 18.0444 4.21085C18.4126 4.21085 18.7111 4.50934 18.7111 4.87751C18.7111 5.24569 18.4126 5.54418 18.0444 5.54418Z" fill="#E50E0F"/>
<path d="M14.9778 20.2109C16.0806 20.2109 16.9778 19.3138 16.9778 18.2109V15.5443C16.9778 15.2571 16.7942 15.0026 16.522 14.9121L12.5314 13.5787C12.3361 13.513 12.1226 13.5429 11.9507 13.6562L10.2541 14.7871C8.4572 13.9303 6.32507 11.7981 5.46827 10.0012L6.59911 8.30461C6.71302 8.13337 6.74169 7.91919 6.67658 7.7239L5.34324 3.73328C5.2528 3.46119 4.99822 3.27759 4.71111 3.27759H2C0.897156 3.27759 0 4.16537 0 5.26821C0 12.9492 7.2968 20.2109 14.9778 20.2109Z" fill="#E50E0F"/>
</svg>
