<svg width="27" height="24" viewBox="0 0 27 24" fill="none" xmlns="http://www.w3.org/2000/svg">
<path d="M24.4839 12.5857C24.0656 12.5356 23.6853 12.8346 23.6354 13.2532C23.0081 18.5094 18.5315 22.4733 13.2226 22.4733C8.44786 22.4733 4.34697 19.2668 3.11352 14.7977L4.02673 15.2993C4.39627 15.502 4.86023 15.3672 5.06318 14.9977C5.26614 14.6282 5.13117 14.1642 4.76163 13.9613L2.41937 12.6745C2.05958 12.4769 1.58767 12.6209 1.38312 12.9753L0.0948088 15.3148C-0.108546 15.6841 0.02603 16.1483 0.395169 16.3516C0.761128 16.4989 1.2064 16.4099 1.43202 16.0513L1.73059 15.5092C3.24313 20.4708 7.86204 24 13.2226 24C19.3042 24 24.4324 19.4576 25.1514 13.4341C25.2013 13.0154 24.9023 12.6356 24.4839 12.5857Z" fill="#69707F"/>
<path d="M13.6242 12.8491V17.089C13.6242 17.5921 13.2163 18 12.7132 18C12.2101 18 11.8022 17.5921 11.8022 17.089V12.8491H7.91097C7.40785 12.8491 7 12.4413 7 11.9381C7 11.435 7.40785 11.0272 7.91097 11.0272H11.8022V6.91097C11.8022 6.40785 12.2101 6 12.7132 6C13.2163 6 13.6242 6.40785 13.6242 6.91096V11.0272H17.5155C18.0186 11.0272 18.4264 11.435 18.4264 11.9381C18.4264 12.4413 18.0186 12.8491 17.5155 12.8491H13.6242Z" fill="#69707F"/>
<path d="M25.5923 6.51828C25.2054 6.3515 24.7562 6.52981 24.5892 6.91704L24.3487 7.47443C23.5971 5.63668 22.3909 3.99215 20.8372 2.71895C18.6981 0.965488 15.9935 0 13.2214 0C10.4494 0 7.74477 0.965488 5.60547 2.71895C3.49579 4.44796 2.0256 6.86118 1.46582 9.51374C1.37876 9.92621 1.64274 10.3311 2.05521 10.4182C2.46749 10.5055 2.87261 10.2413 2.95967 9.82901C3.44789 7.51498 4.73123 5.40927 6.57315 3.89952C8.44011 2.36929 10.8013 1.52665 13.2214 1.52665C15.6414 1.52665 18.0026 2.36929 19.8695 3.89952C21.3045 5.07552 22.4002 6.6135 23.0455 8.32979L22.079 7.91414C21.692 7.74775 21.2429 7.92646 21.0761 8.31369C20.9096 8.70092 21.0885 9.14997 21.4759 9.31655L23.9008 10.3596C24.2722 10.5011 24.7308 10.3906 24.9337 9.97352L25.991 7.52134C26.158 7.13431 25.9795 6.68526 25.5923 6.51828Z" fill="#69707F"/>
</svg>
