<svg width="32" height="32" viewBox="0 0 32 32" fill="none" xmlns="http://www.w3.org/2000/svg">
<circle cx="16" cy="16" r="16" fill="#EEF3F5"/>
<path fill-rule="evenodd" clip-rule="evenodd" d="M14.521 10.8334H17.479C17.405 10.5458 17.144 10.3334 16.8333 10.3334H15.1667C14.856 10.3334 14.595 10.5458 14.521 10.8334ZM12.5 11C12.5 9.52728 13.6939 8.33337 15.1667 8.33337H16.8333C18.3061 8.33337 19.5 9.52728 19.5 11H22.6667C23.1269 11 23.5 11.3731 23.5 11.8334C23.5 12.2936 23.1269 12.6667 22.6667 12.6667H21.8333V21C21.8333 22.3808 20.714 23.5 19.3333 23.5H12.6667C11.286 23.5 10.1667 22.3808 10.1667 21V12.6667H9.33333C8.8731 12.6667 8.5 12.2936 8.5 11.8334C8.5 11.3731 8.8731 11 9.33333 11H12.5ZM15.1667 15.1667C15.1667 14.7065 14.7936 14.3334 14.3333 14.3334C13.8731 14.3334 13.5 14.7065 13.5 15.1667V19.3334C13.5 19.7936 13.8731 20.1667 14.3333 20.1667C14.7936 20.1667 15.1667 19.7936 15.1667 19.3334V15.1667ZM18.5 15.1667C18.5 14.7065 18.1269 14.3334 17.6667 14.3334C17.2064 14.3334 16.8333 14.7065 16.8333 15.1667V19.3334C16.8333 19.7936 17.2064 20.1667 17.6667 20.1667C18.1269 20.1667 18.5 19.7936 18.5 19.3334V15.1667Z" fill="#8798AD"/>
</svg>
