<svg width="28" height="24" viewBox="0 0 28 24" fill="none" xmlns="http://www.w3.org/2000/svg">
<path d="M14.5803 15.7945L11.979 13.5817L14.6188 11.0329C14.795 10.8628 14.8869 10.6224 14.8696 10.377C14.8524 10.1317 14.7276 9.90688 14.5293 9.76354L10.3023 6.70866L13.2438 2.51757C13.3732 2.33321 13.4222 2.10343 13.3793 1.88174C13.3365 1.66006 13.2055 1.46567 13.0169 1.34372C11.6649 0.469939 10.0981 0.00534771 8.48577 5.51011e-05C8.47625 5.51011e-05 8.46706 0 8.45755 0C6.20873 0 4.0905 0.884307 2.49087 2.49166C0.884633 4.10574 0 6.24886 0 8.52634C0 10.7021 0.812991 12.7738 2.28929 14.3597L10.3657 23.0357C10.9361 23.6485 11.7413 24 12.5749 24H12.575C12.9599 24 13.2931 23.7301 13.376 23.3512L14.8524 16.6046C14.9181 16.3045 14.8133 15.9926 14.5803 15.7945ZM11.9488 22.1952C11.8052 22.1221 11.6738 22.024 11.562 21.9039L3.48559 13.2278C2.29586 11.9498 1.64064 10.28 1.64064 8.52634C1.64064 6.69168 2.35393 4.96458 3.64916 3.66315C4.93909 2.36695 6.64596 1.654 8.45777 1.654C8.46531 1.654 8.47292 1.654 8.48046 1.65405C9.48968 1.65736 10.4764 1.88373 11.3768 2.31414L8.49222 6.42429C8.23169 6.79549 8.31733 7.30909 8.68396 7.574L12.7705 10.5274L10.1854 13.0234C10.0173 13.1857 9.92548 13.4122 9.93287 13.6467C9.9402 13.8811 10.0459 14.1014 10.2238 14.2527L13.1435 16.7362L11.9488 22.1952Z" fill="#69707F"/>
<path d="M25.5095 2.49151C23.9097 0.884153 21.7919 0.00012207 19.5431 0.00012207C19.5334 0.00012207 19.5237 0.00012204 19.514 0.000177171H19.514C17.9156 0.00558004 16.3618 0.462508 15.0179 1.3219C14.9137 1.38193 14.8222 1.46518 14.7515 1.56756L11.8073 5.83087C11.5524 6.19997 11.6368 6.70674 11.9974 6.97165L16.5201 10.2947L13.9593 12.8871C13.8007 13.0476 13.7144 13.2667 13.7206 13.4932C13.7266 13.7196 13.8247 13.9337 13.9917 14.0852L16.234 16.1201L14.6272 22.9831C14.5696 23.229 14.6268 23.4881 14.7824 23.6862C14.938 23.8843 15.1749 24 15.4256 24H15.4257C16.2593 24 17.0646 23.6485 17.635 23.0357L25.7115 14.3597C27.1877 12.7738 28.0007 10.7022 28.0007 8.5264C28.0007 6.24876 27.1159 4.10553 25.5095 2.49151ZM24.5151 13.2279L16.6082 21.7219L17.9424 16.0233C18.0112 15.7293 17.9156 15.4209 17.6928 15.2187L15.7306 13.4379L18.3579 10.7782C18.5269 10.6072 18.6133 10.3703 18.5944 10.1296C18.5755 9.88886 18.4534 9.66856 18.2598 9.52637L13.6124 6.11165L16.0007 2.65332C17.0589 2.00321 18.272 1.6582 19.5196 1.65401H19.5196C19.5275 1.65401 19.5351 1.65395 19.543 1.65395C21.3546 1.65395 23.0615 2.36691 24.3514 3.66288C25.6467 4.96431 26.3601 6.69158 26.3601 8.52629C26.36 10.2801 25.7048 11.9498 24.5151 13.2279Z" fill="#69707F"/>
</svg>
