<svg width="16" height="16" viewBox="0 0 16 16" fill="none" xmlns="http://www.w3.org/2000/svg">
<g clip-path="url(#clip0)">
<path d="M15.6676 11.9985L10.0155 1.60864C9.10743 0.079855 6.89378 0.0778238 5.98447 1.60864L0.332715 11.9985C-0.595597 13.5607 0.528309 15.5389 2.34778 15.5389H13.652C15.47 15.5389 16.5959 13.5623 15.6676 11.9985ZM8 13.6639C7.48318 13.6639 7.0625 13.2432 7.0625 12.7264C7.0625 12.2095 7.48318 11.7889 8 11.7889C8.51681 11.7889 8.9375 12.2095 8.9375 12.7264C8.9375 13.2432 8.51681 13.6639 8 13.6639ZM8.9375 9.91385C8.9375 10.4307 8.51681 10.8514 8 10.8514C7.48318 10.8514 7.0625 10.4307 7.0625 9.91385V5.22636C7.0625 4.70954 7.48318 4.28885 8 4.28885C8.51681 4.28885 8.9375 4.70954 8.9375 5.22636V9.91385Z" fill="white"/>
</g>
<defs>
<clipPath id="clip0">
<rect width="16" height="16" fill="white"/>
</clipPath>
</defs>
</svg>
