<svg width="16" height="16" viewBox="0 0 16 16" fill="none" xmlns="http://www.w3.org/2000/svg">
<path fill-rule="evenodd" clip-rule="evenodd" d="M9.9987 2.6665C10.8695 2.6665 11.6103 3.22304 11.8849 3.99984H5.9987C4.15775 3.99984 2.66536 5.49222 2.66536 7.33317V10.5527C1.88857 10.2781 1.33203 9.53732 1.33203 8.6665V4.6665C1.33203 3.56193 2.22746 2.6665 3.33203 2.6665H9.9987ZM12.6654 5.33317H11.9987H5.9987C4.89413 5.33317 3.9987 6.2286 3.9987 7.33317V10.6665V11.3332C3.9987 12.4377 4.89413 13.3332 5.9987 13.3332H12.6654C13.7699 13.3332 14.6654 12.4377 14.6654 11.3332V7.33317C14.6654 6.2286 13.7699 5.33317 12.6654 5.33317ZM10.6654 9.33317C10.6654 10.0696 10.0684 10.6665 9.33203 10.6665C8.59565 10.6665 7.9987 10.0696 7.9987 9.33317C7.9987 8.59679 8.59565 7.99984 9.33203 7.99984C10.0684 7.99984 10.6654 8.59679 10.6654 9.33317Z" fill="#8798AD"/>
</svg>
