<svg width="16" height="16" viewBox="0 0 16 16" fill="none" xmlns="http://www.w3.org/2000/svg">
<path fill-rule="evenodd" clip-rule="evenodd" d="M1.33203 8.00016C1.33203 4.31826 4.3168 1.3335 7.9987 1.3335C11.6806 1.3335 14.6654 4.31826 14.6654 8.00016C14.6654 11.6821 11.6806 14.6668 7.9987 14.6668C4.3168 14.6668 1.33203 11.6821 1.33203 8.00016ZM8.66536 4.66683C8.66536 4.29864 8.36689 4.00016 7.9987 4.00016C7.63051 4.00016 7.33203 4.29864 7.33203 4.66683V7.17612C7.33203 7.93366 7.76004 8.62619 8.4376 8.96497L10.3672 9.92978C10.6965 10.0944 11.097 9.96096 11.2616 9.63164C11.4263 9.30232 11.2928 8.90187 10.9635 8.73721L9.03389 7.7724C8.80803 7.65947 8.66536 7.42863 8.66536 7.17612V4.66683Z" fill="#8798AD"/>
</svg>
