<svg width="16" height="16" viewBox="0 0 16 16" fill="none" xmlns="http://www.w3.org/2000/svg">
<g clip-path="url(#clip0)">
<path d="M15.8179 9.96947L8.64613 4.89774C8.638 4.89198 8.62965 4.88649 8.62125 4.88137C7.89778 4.37332 7.04875 4.10503 6.16359 4.10503C5.21318 4.10503 4.33437 4.41672 3.62317 4.94264C3.52082 4.03686 2.75024 3.33057 1.81748 3.33057C0.815326 3.33057 0 4.14589 0 5.14816C0 6.15037 0.815326 6.96575 1.81748 6.96575C1.92571 6.96575 2.03156 6.95568 2.13467 6.93748C1.97115 7.39051 1.88155 7.87864 1.88155 8.38733C1.88155 10.7484 3.80252 12.6692 6.16365 12.6692C7.07023 12.6692 8.02662 12.4476 9.03912 12.213C10.0762 11.9728 11.1486 11.7243 12.1808 11.7243C13.1095 11.7243 13.8987 11.9289 14.5938 12.3499C14.6991 12.4137 14.8268 12.4295 14.9444 12.3929C15.062 12.3564 15.1585 12.2714 15.2093 12.1592L15.9616 10.499C16.0468 10.3108 15.9865 10.0887 15.8179 9.96947ZM0.861468 5.14816C0.861468 4.62094 1.29032 4.19203 1.81748 4.19203C2.34476 4.19203 2.77371 4.62094 2.77371 5.14816C2.77371 5.67538 2.34476 6.10428 1.81748 6.10428C1.29032 6.10428 0.861468 5.67538 0.861468 5.14816Z" fill="#8798AD"/>
</g>
<defs>
<clipPath id="clip0">
<rect width="16" height="16" fill="white"/>
</clipPath>
</defs>
</svg>
