<svg width="16" height="16" viewBox="0 0 16 16" fill="none" xmlns="http://www.w3.org/2000/svg">
<path fill-rule="evenodd" clip-rule="evenodd" d="M1.33203 4.66683C1.33203 3.93045 1.92898 3.3335 2.66536 3.3335H3.9987C4.73508 3.3335 5.33203 3.93045 5.33203 4.66683C5.33203 5.40321 4.73508 6.00016 3.9987 6.00016H2.66536C1.92898 6.00016 1.33203 5.40321 1.33203 4.66683ZM1.33203 8.00016C1.33203 7.26378 1.92898 6.66683 2.66536 6.66683H3.9987C4.73508 6.66683 5.33203 7.26378 5.33203 8.00016C5.33203 8.73654 4.73508 9.3335 3.9987 9.3335H2.66536C1.92898 9.3335 1.33203 8.73654 1.33203 8.00016ZM2.66536 10.0002C1.92898 10.0002 1.33203 10.5971 1.33203 11.3335C1.33203 12.0699 1.92899 12.6668 2.66536 12.6668H3.9987C4.73508 12.6668 5.33203 12.0699 5.33203 11.3335C5.33203 10.5971 4.73508 10.0002 3.9987 10.0002H2.66536ZM5.9987 4.66683C5.9987 3.93045 6.59565 3.3335 7.33203 3.3335H8.66536C9.40174 3.3335 9.9987 3.93045 9.9987 4.66683C9.9987 5.40321 9.40174 6.00016 8.66536 6.00016H7.33203C6.59565 6.00016 5.9987 5.40321 5.9987 4.66683ZM7.33203 6.66683C6.59565 6.66683 5.9987 7.26378 5.9987 8.00016C5.9987 8.73654 6.59565 9.3335 7.33203 9.3335H8.66536C9.40174 9.3335 9.9987 8.73654 9.9987 8.00016C9.9987 7.26378 9.40174 6.66683 8.66536 6.66683H7.33203ZM5.9987 11.3335C5.9987 10.5971 6.59565 10.0002 7.33203 10.0002H8.66536C9.40174 10.0002 9.9987 10.5971 9.9987 11.3335C9.9987 12.0699 9.40174 12.6668 8.66536 12.6668H7.33203C6.59565 12.6668 5.9987 12.0699 5.9987 11.3335ZM11.9987 3.3335C11.2623 3.3335 10.6654 3.93045 10.6654 4.66683C10.6654 5.40321 11.2623 6.00016 11.9987 6.00016H13.332C14.0684 6.00016 14.6654 5.40321 14.6654 4.66683C14.6654 3.93045 14.0684 3.3335 13.332 3.3335H11.9987ZM10.6654 8.00016C10.6654 7.26378 11.2623 6.66683 11.9987 6.66683H13.332C14.0684 6.66683 14.6654 7.26378 14.6654 8.00016C14.6654 8.73654 14.0684 9.3335 13.332 9.3335H11.9987C11.2623 9.3335 10.6654 8.73654 10.6654 8.00016ZM11.9987 10.0002C11.2623 10.0002 10.6654 10.5971 10.6654 11.3335C10.6654 12.0699 11.2623 12.6668 11.9987 12.6668H13.332C14.0684 12.6668 14.6654 12.0699 14.6654 11.3335C14.6654 10.5971 14.0684 10.0002 13.332 10.0002H11.9987Z" fill="#8798AD"/>
</svg>
