<svg width="16" height="16" viewBox="0 0 16 16" fill="none" xmlns="http://www.w3.org/2000/svg">
<path fill-rule="evenodd" clip-rule="evenodd" d="M7.67494 2.0839C7.87628 1.97203 8.12111 1.97203 8.32246 2.0839L14.3225 5.41723C14.5341 5.53481 14.6654 5.75789 14.6654 6V10.6667C14.6654 11.0349 14.3669 11.3333 13.9987 11.3333C13.6305 11.3333 13.332 11.0349 13.332 10.6667V7.13301L12.6654 7.50338V7.50599L8.93173 9.362C8.34694 9.6527 7.65706 9.63959 7.08375 9.32687L1.56975 6.31923C1.509 6.2861 1.44535 6.26339 1.38088 6.25052C1.34911 6.1722 1.33203 6.08734 1.33203 6C1.33203 5.75789 1.46329 5.53481 1.67494 5.41723L7.67494 2.0839ZM3.33203 8.79926V11.3333C3.33203 11.5858 3.4747 11.8167 3.70056 11.9296L7.70056 13.9296C7.88824 14.0235 8.10916 14.0235 8.29684 13.9296L12.2968 11.9296C12.5227 11.8167 12.6654 11.5858 12.6654 11.3333V9.16241L8.91517 10.916C8.33889 11.1855 7.66878 11.1648 7.11029 10.8601L3.33203 8.79926Z" fill="#8798AD"/>
</svg>
