<svg width="16" height="16" viewBox="0 0 16 16" fill="none" xmlns="http://www.w3.org/2000/svg">
<g clip-path="url(#clip0)">
<g clip-path="url(#clip1)">
<path d="M8.00075 3.21869C6.40182 3.21869 6.14151 1.65979 6.96103 0.862848L7.66531 0.141285C7.84897 -0.0469023 8.152 -0.0472148 8.336 0.141066L9.05965 0.881504C9.85521 1.6836 9.58831 3.21869 8.00075 3.21869Z" fill="#8798AD"/>
<path d="M15.5312 13.9688H0.46875C0.209875 13.9688 0 14.1123 0 14.2895V15.6793C0 15.8564 0.209875 16 0.46875 16H15.5312C15.7901 16 16 15.8564 16 15.6793V14.2895C16 14.1123 15.7901 13.9688 15.5312 13.9688Z" fill="#8798AD"/>
<path d="M1.33144 9.16856C1.47106 9.30606 1.75153 9.50131 1.95266 9.52781C2.17856 9.55869 2.51891 9.31591 2.66975 9.16734C2.73375 9.10334 3.32531 8.53128 3.99997 8.53128C4.67462 8.53128 5.26622 9.10334 5.33141 9.16859C5.45072 9.28612 5.77306 9.53128 5.99997 9.53128C6.22687 9.53128 6.54919 9.28609 6.66975 9.16734C6.73375 9.10334 7.32531 8.53128 7.99997 8.53128C8.67462 8.53128 9.26622 9.10334 9.33141 9.16859C9.45072 9.28612 9.77306 9.53128 9.99997 9.53128C10.2269 9.53128 10.5492 9.28609 10.6697 9.16734C10.7337 9.10334 11.3253 8.53128 12 8.53128C12.6746 8.53128 13.2662 9.10334 13.3314 9.16859C13.4761 9.31112 13.7906 9.53128 14 9.53128C14.2084 9.53128 14.5216 9.31328 14.6697 9.16734C14.7065 9.13056 14.9178 8.926 15.2187 8.75862V7.9375C15.2187 7.16209 14.5879 6.53125 13.8125 6.53125H2.1875C1.41209 6.53125 0.78125 7.16209 0.78125 7.9375V8.75866C1.08237 8.92619 1.29397 9.13106 1.33144 9.16856Z" fill="#8798AD"/>
<path d="M9.46875 5.59375V4.25C9.46875 3.99112 9.25887 3.78125 9 3.78125H7C6.74112 3.78125 6.53125 3.99112 6.53125 4.25V5.59375H9.46875Z" fill="#8798AD"/>
<path d="M15.2188 13.0312V9.93478C15.1546 9.98991 15.0665 10.0602 14.96 10.1317C14.2935 10.5827 13.7116 10.5686 13.081 10.1586C12.9197 10.0546 12.7646 9.92738 12.6686 9.83144C12.5493 9.71391 12.2269 9.46875 12 9.46875C11.7731 9.46875 11.4508 9.71394 11.3303 9.83269C11.2663 9.89669 10.6747 10.4687 10 10.4687C9.32538 10.4687 8.73378 9.89669 8.66859 9.83144C8.54928 9.71391 8.22694 9.46875 8.00003 9.46875C7.77313 9.46875 7.45081 9.71394 7.33025 9.83269C7.26625 9.89669 6.67469 10.4687 6.00003 10.4687C5.32538 10.4687 4.73378 9.89669 4.66859 9.83144C4.54928 9.71391 4.22694 9.46875 4.00003 9.46875C3.77313 9.46875 3.45081 9.71394 3.33025 9.83269C3.23316 9.92981 3.07603 10.0581 2.91328 10.1624C2.27447 10.5754 1.69278 10.5752 1.03731 10.1299C0.932219 10.0591 0.845094 9.98956 0.78125 9.93475V13.0313H15.2188V13.0312Z" fill="#8798AD"/>
</g>
</g>
<defs>
<clipPath id="clip0">
<rect width="16" height="16" fill="white"/>
</clipPath>
<clipPath id="clip1">
<rect width="16" height="16" fill="white"/>
</clipPath>
</defs>
</svg>
