<svg width="16" height="16" viewBox="0 0 16 16" fill="none" xmlns="http://www.w3.org/2000/svg">
<path d="M13.727 2.19138C11.6253 2.19138 9.59735 1.42088 8.0304 0.0270312L8 0L7.9696 0.0270312C6.40262 1.42088 4.37462 2.19138 2.27298 2.19138H1V5.56844C1 9.95397 3.55503 13.9417 7.55038 15.7917L8 16L8.44962 15.7918C12.445 13.9417 15 9.95397 15 5.56847V2.19138H13.727ZM12.6667 9.44209H9.50861V12.8H6.49139V9.44209H3.33333V6.43938H6.49139V3.2H9.50861V6.43938H12.6667V9.44209Z" fill="#8798AD"/>
<path d="M8.8 7.2V4.8C8.8 4.35817 8.44183 4 8 4C7.55817 4 7.2 4.35817 7.2 4.8V7.2H4.8C4.35817 7.2 4 7.55817 4 8C4 8.44183 4.35817 8.8 4.8 8.8H7.2V11.2C7.2 11.6418 7.55817 12 8 12C8.44183 12 8.8 11.6418 8.8 11.2V8.8H11.2C11.6418 8.8 12 8.44183 12 8C12 7.55817 11.6418 7.2 11.2 7.2H8.8Z" fill="#8798AD"/>
</svg>
