<svg width="16" height="16" viewBox="0 0 16 16" fill="none" xmlns="http://www.w3.org/2000/svg">
<path d="M13.5378 15.1998C14.4756 15.1998 15.2386 14.4369 15.2386 13.499V11.2313C15.2386 10.9871 15.0824 10.7707 14.851 10.6937L11.4574 9.55984C11.2913 9.50394 11.1097 9.52938 10.9636 9.62572L9.52079 10.5874C7.99273 9.8588 6.17958 8.04561 5.45096 6.51755L6.41262 5.07475C6.50949 4.92913 6.53387 4.74699 6.4785 4.58092L5.34464 1.18732C5.26773 0.955937 5.05124 0.799805 4.80708 0.799805H2.50157C1.56372 0.799805 0.800781 1.55477 0.800781 2.49262C0.800781 9.02447 7.00593 15.1998 13.5378 15.1998Z" fill="#8798AD"/>
</svg>
