<svg width="12" height="14" viewBox="0 0 12 14" fill="none" xmlns="http://www.w3.org/2000/svg">
<path fill-rule="evenodd" clip-rule="evenodd" d="M2.27713 1.52556C3.52591 0.626439 5.00443 0.333252 6 0.333252C8.35061 0.333252 9.88409 1.32761 10.8077 2.61038C11.7068 3.85916 12 5.33768 12 6.33325V12.3333C12 12.6029 11.8376 12.846 11.5885 12.9492C11.3393 13.0524 11.0526 12.9953 10.8619 12.8047L10 11.9427L8.94281 12.9999C8.42211 13.5206 7.57789 13.5206 7.05719 12.9999L6 11.9427L4.94281 12.9999C4.42211 13.5206 3.57789 13.5206 3.05719 12.9999L2 11.9427L1.13807 12.8047C0.947406 12.9953 0.660661 13.0524 0.411544 12.9492C0.162428 12.846 0 12.6029 0 12.3333V6.33325C0 3.98264 0.994355 2.44916 2.27713 1.52556ZM2.66667 5.66658C2.66667 4.93021 3.26362 4.33325 4 4.33325C4.73638 4.33325 5.33333 4.93021 5.33333 5.66658C5.33333 6.40296 4.73638 6.99992 4 6.99992C3.26362 6.99992 2.66667 6.40296 2.66667 5.66658ZM6.66667 5.66658C6.66667 4.93021 7.26362 4.33325 8 4.33325C8.73638 4.33325 9.33333 4.93021 9.33333 5.66658C9.33333 6.40296 8.73638 6.99992 8 6.99992C7.26362 6.99992 6.66667 6.40296 6.66667 5.66658Z" fill="#43BF41"/>
</svg>
