<svg width="28" height="28" viewBox="0 0 28 28" fill="none" xmlns="http://www.w3.org/2000/svg">
<g clip-path="url(#clip0)">
<path d="M27.6246 10.7984C27.5348 10.557 27.2664 10.4339 27.0249 10.5235C26.373 10.7787 25.7652 11.1348 25.2239 11.5787C25.1934 11.0455 25.1244 10.5152 25.0176 9.99196C24.8856 9.34841 24.6956 8.71814 24.4501 8.10883H24.4547C24.577 8.10855 24.6943 8.06032 24.7814 7.9744C25.451 7.42015 25.7886 6.56057 25.6751 5.69874C25.3783 4.03405 23.1334 3.00027 23.0378 2.9569C22.803 2.85113 22.5268 2.95553 22.4208 3.19027C22.2516 3.58142 22.1197 3.98772 22.0269 4.40371C22.0036 4.37992 21.983 4.35705 21.9593 4.33228C21.6309 4.00665 21.2831 3.70131 20.9176 3.418C21.0231 2.41502 20.6352 1.42319 19.8773 0.757817C18.1911 -0.61149 15.1072 0.285065 14.9765 0.324716C14.7297 0.398276 14.5891 0.657896 14.6624 0.904828C14.7011 1.03549 15.6369 4.10826 17.703 4.77561C17.9653 4.86115 18.2395 4.90479 18.5155 4.9049C19.2126 4.88171 19.8863 4.64768 20.4476 4.23378C20.7459 4.47081 21.0312 4.72381 21.3022 4.99169C21.5187 5.20871 21.7124 5.42337 21.8972 5.64181C21.8972 5.67588 21.8972 5.70946 21.9 5.74354C21.0381 5.58389 20.1522 5.60664 19.2996 5.81026C19.0498 5.87392 18.8989 6.12802 18.9626 6.37779C18.9883 6.47908 19.6113 8.86668 21.1967 9.45101C21.4292 9.53747 21.6753 9.58172 21.9233 9.58167C22.5309 9.55684 23.1155 9.34277 23.5955 8.96934C23.6441 8.93384 23.6852 8.88911 23.7164 8.83775C23.876 9.27545 24.0047 9.72381 24.1014 10.1795C24.2059 10.7092 24.2683 11.2464 24.2881 11.7859C23.8941 11.3708 23.4496 11.0067 22.965 10.7022C22.8589 10.6383 22.7318 10.6192 22.6116 10.649C22.4915 10.6789 22.388 10.7553 22.3242 10.8614C22.2706 10.951 21.0123 13.075 21.7133 14.6122C22.0856 15.3458 22.7983 15.8462 23.6147 15.9475C23.5759 16.0464 23.5428 16.1477 23.5012 16.2452C23.2446 16.8575 22.9272 17.4426 22.5538 17.9916C22.5235 18.0383 22.4857 18.085 22.4539 18.1283C22.3512 17.4731 22.1528 16.8366 21.865 16.2391C21.8089 16.1288 21.7112 16.0452 21.5935 16.0069C21.4757 15.9685 21.3476 15.9785 21.2373 16.0347C21.1439 16.0813 18.9505 17.2141 18.7287 18.889C18.6534 19.655 18.9482 20.411 19.5222 20.9238C19.1532 21.1576 18.7692 21.3668 18.3727 21.5502C18.1102 21.2044 17.7016 21.0007 17.2675 20.9995H14.4673V16.2078L16.4055 17.2346C16.7195 17.4008 17.1007 17.3744 17.3887 17.1664C17.6768 16.9584 17.8217 16.6049 17.7627 16.2545L17.3021 13.5477L19.2576 11.6267C19.5136 11.3787 19.6061 11.0064 19.4957 10.6674C19.3854 10.3284 19.0916 10.0818 18.7386 10.032L16.0425 9.63718L14.8407 7.18235C14.6841 6.86219 14.3587 6.65918 14.0023 6.65918C13.6459 6.65918 13.3205 6.86219 13.1639 7.18235L11.9612 9.63904L9.26463 10.0339C8.91373 10.085 8.62212 10.3305 8.51202 10.6676C8.40187 11.0046 8.49222 11.3749 8.74522 11.6234L10.7016 13.5443L10.2405 16.2512C10.1816 16.6014 10.3265 16.9547 10.6144 17.1626C10.9023 17.3706 11.2832 17.3972 11.5972 17.2312L13.534 16.2077V20.9994H10.7338C10.3003 21.0006 9.8921 21.2037 9.62958 21.5487C9.23313 21.3653 8.84914 21.1561 8.48008 20.9224C9.05401 20.4095 9.34874 19.6536 9.27349 18.8876C9.05183 17.2126 6.85783 16.0804 6.76496 16.0332C6.65459 15.977 6.52651 15.967 6.40876 16.0054C6.29101 16.0437 6.19338 16.1273 6.13727 16.2377C5.84888 16.8353 5.64991 17.4722 5.54688 18.1278C5.51423 18.0811 5.47594 18.0344 5.44466 17.9878C5.07172 17.4395 4.75462 16.8552 4.49817 16.2437C4.45666 16.1466 4.42352 16.0459 4.38523 15.9474C5.20259 15.8464 5.9161 15.3453 6.28844 14.6108C6.98848 13.0734 5.73119 10.9495 5.67753 10.8599C5.61371 10.7538 5.51029 10.6774 5.39013 10.6475C5.26997 10.6177 5.14282 10.6368 5.03677 10.7008C4.55215 11.0052 4.10767 11.3693 3.71368 11.7844C3.73358 11.2441 3.79604 10.7062 3.90034 10.1757C3.99698 9.72096 4.1255 9.27353 4.28487 8.83677C4.31627 8.8879 4.35734 8.93248 4.40574 8.96792C4.88566 9.34135 5.47031 9.55541 6.07793 9.58024C6.32601 9.5803 6.57206 9.536 6.80456 9.44958C8.39132 8.86526 9.01299 6.47766 9.03864 6.37637C9.1023 6.12659 8.95147 5.87255 8.70169 5.80884C7.84905 5.605 6.96316 5.58225 6.10123 5.74211C6.10123 5.70804 6.10358 5.67446 6.10402 5.64039C6.29068 5.42195 6.48254 5.20729 6.69906 4.99027C6.96994 4.72245 7.25521 4.46961 7.55361 4.2328C8.11496 4.64675 8.78865 4.88078 9.48575 4.90391C9.76172 4.90386 10.0359 4.86022 10.2983 4.77462C12.3644 4.10722 13.3001 1.0345 13.3389 0.903788C13.4116 0.657185 13.2712 0.398167 13.0248 0.324607C12.8941 0.286323 9.81012 -0.60881 8.12114 0.754426C7.36241 1.4204 6.97448 2.41349 7.08086 3.4174C6.71519 3.70032 6.3673 4.0055 6.03921 4.33119C6.01542 4.35498 5.99256 4.37784 5.97155 4.40261C5.8788 3.98663 5.74688 3.58033 5.57767 3.18918C5.47162 2.9545 5.19548 2.85003 4.96069 2.95581C4.86504 2.99923 2.62018 4.03295 2.32337 5.69765C2.20966 6.55958 2.54733 7.41944 3.21708 7.97374C3.30415 8.0596 3.42146 8.1079 3.54375 8.10817H3.55168C3.30727 8.71688 3.11809 9.34633 2.9865 9.98895C2.87931 10.5132 2.8099 11.0444 2.77884 11.5786C2.23816 11.1347 1.63103 10.7786 0.979711 10.5233C0.738194 10.4338 0.469769 10.5568 0.38002 10.7982C0.343158 10.8962 -0.502534 13.2152 0.469605 14.5981C0.988954 15.2732 1.81567 15.6383 2.66448 15.5674H2.71534C2.8484 15.5661 2.97458 15.508 3.06208 15.4078C3.10223 15.3612 3.13767 15.3145 3.17551 15.2678C3.30185 15.7233 3.45696 16.1704 3.6399 16.6063C3.91964 17.2736 4.26518 17.9113 4.67132 18.51C4.69653 18.5473 4.72733 18.5842 4.75298 18.6215C4.13179 18.5666 3.50601 18.5972 2.8932 18.7125C2.64107 18.7651 2.47918 19.0119 2.53152 19.2641C2.55302 19.3668 3.06914 21.7843 4.62795 22.4377C4.88588 22.5471 5.16316 22.6034 5.44329 22.6033C6.01755 22.5817 6.57338 22.3949 7.04405 22.0652C7.15502 21.9939 7.23066 21.879 7.25221 21.7488C7.27868 21.5863 7.29525 21.4223 7.30165 21.2578C7.43094 21.3544 7.5616 21.4478 7.69182 21.5355C8.21215 21.8838 8.76147 22.1867 9.33365 22.4409V24.7329H8.40023C7.62695 24.7329 7.00013 25.3597 7.00013 26.133V27.5331C7.00013 27.7908 7.20905 27.9997 7.46681 27.9997H20.5344C20.7921 27.9997 21.0011 27.7908 21.0011 27.5331V26.133C21.0011 25.3597 20.3742 24.7329 19.601 24.7329H18.6675V22.4409C19.2386 22.1865 19.7869 21.8837 20.3062 21.5355C20.4387 21.4464 20.5675 21.3418 20.6982 21.2443C20.7041 21.413 20.7207 21.5812 20.7477 21.7478C20.7692 21.878 20.8448 21.9929 20.9558 22.0643C21.4266 22.3939 21.9824 22.5807 22.5566 22.6024C22.8367 22.6024 23.114 22.5461 23.3719 22.4367C24.9307 21.7833 25.4469 19.3649 25.4684 19.2631C25.5202 19.0117 25.3592 18.7657 25.1081 18.7124C24.4963 18.5981 23.8719 18.5681 23.252 18.6233C23.2767 18.5874 23.3066 18.5514 23.3309 18.515C23.7368 17.915 24.082 17.276 24.3614 16.6076C24.5438 16.1712 24.6984 15.7237 24.8243 15.2677C24.8621 15.3144 24.8976 15.3611 24.9377 15.4077C25.0253 15.5079 25.1514 15.566 25.2845 15.5673H25.3354C26.1857 15.6397 27.0145 15.2745 27.5349 14.598C28.5071 13.2155 27.6614 10.8964 27.6246 10.7984ZM17.7505 2.41754C17.7725 2.58473 17.8829 2.72709 18.0395 2.78982C18.5928 3.02499 19.1239 3.30939 19.6262 3.63967C19.1411 3.95032 18.5467 4.04023 17.9914 3.88704H17.9933C16.8008 3.50343 16.0368 1.90262 15.7218 1.09991C16.694 0.897827 18.382 0.744308 19.2935 1.47936C19.668 1.80171 19.9042 2.2557 19.9534 2.74738C19.4589 2.43367 18.94 2.16027 18.4016 1.92974C18.2474 1.86165 18.0683 1.88205 17.9334 1.98318C17.7984 2.08425 17.7285 2.25034 17.7505 2.41754ZM8.70694 1.48029C9.67859 0.693446 11.4381 0.931462 12.2814 1.10412C11.9188 2.02868 11.124 3.52722 10.0114 3.88704C9.45561 4.04067 8.86068 3.9507 8.37513 3.63967C8.87741 3.30922 9.40847 3.02477 9.96189 2.78982C10.1184 2.72703 10.2289 2.58473 10.2509 2.41754C10.2729 2.25034 10.203 2.08425 10.068 1.98318C9.93301 1.88205 9.75401 1.86165 9.59972 1.92974C9.06134 2.16038 8.54237 2.43394 8.04797 2.74787C8.09713 2.25652 8.33302 1.8028 8.70694 1.48029ZM2.7691 14.1936C2.69325 14.3487 2.60093 14.4951 2.49373 14.6304C2.00703 14.6537 1.53855 14.4425 1.23364 14.0625C0.783752 13.4245 0.92934 12.3114 1.10999 11.5997C1.79598 11.9011 2.37965 12.3953 2.7901 13.0222C2.79617 13.1272 2.8041 13.2248 2.81296 13.3069C2.77594 13.4444 2.75198 13.585 2.74154 13.7269C2.73333 13.883 2.74258 14.0396 2.7691 14.1936ZM5.54688 7.0074C6.13442 6.49264 7.25592 6.51829 7.98026 6.62095C7.72403 7.30842 7.21113 8.30528 6.47887 8.57409C6.01131 8.71327 5.50531 8.6197 5.11842 8.32256C5.04207 7.84084 5.20139 7.35168 5.54688 7.0074ZM3.24185 5.86353C3.37815 5.0944 4.27235 4.413 4.90562 4.03968C5.16601 4.72655 5.22715 5.47298 5.08205 6.19304C5.03212 6.22991 4.98126 6.26398 4.93411 6.30505C4.72935 6.48515 4.56194 6.70364 4.44129 6.94817C4.36286 6.99154 4.28088 7.02823 4.19627 7.05782L4.17106 7.06625C4.02607 7.11071 3.87737 7.14194 3.72675 7.1596C3.36655 6.83036 3.18618 6.34831 3.24185 5.86353ZM3.66938 13.7844C3.71603 13.0055 4.52251 12.2256 5.10727 11.7832V11.7836C5.41529 12.4496 5.76066 13.516 5.43815 14.2254C5.20817 14.6556 4.78557 14.9492 4.30221 15.0146C3.90646 14.7294 3.67118 14.2721 3.66938 13.7844ZM6.36128 21.3878C5.9616 21.6664 5.4527 21.7367 4.99247 21.5768C4.27142 21.2749 3.80288 20.2528 3.57788 19.5528C4.30522 19.4487 5.04716 19.5529 5.71768 19.8533C5.7424 19.9098 5.76433 19.9672 5.79419 20.0218C5.92512 20.2609 6.10156 20.4721 6.31365 20.6434C6.37403 20.8867 6.39016 21.1388 6.36128 21.3878ZM7.80388 20.2836C7.66786 20.2622 7.53381 20.2298 7.40299 20.187C7.39178 20.1817 7.38024 20.177 7.36848 20.173C7.0505 20.0774 6.78082 19.8643 6.61429 19.5771C6.23998 18.8924 6.51114 17.8036 6.77158 17.1175C7.38483 17.5166 8.24447 18.2339 8.34762 19.01C8.38109 19.4972 8.17884 19.9708 7.80388 20.2836ZM11.1585 16.4095L11.6196 13.7027C11.6708 13.4016 11.5715 13.0944 11.3536 12.8804L9.39764 10.9594L12.0947 10.5646C12.3993 10.5199 12.6623 10.3278 12.7975 10.0512L14.0007 7.59035L15.2053 10.0489C15.3406 10.3256 15.6038 10.5177 15.9086 10.5623L18.6047 10.9572L16.6479 12.879C16.4301 13.093 16.3308 13.3999 16.3818 13.7009L16.8429 16.4077L14.4385 15.1341C14.1652 14.9882 13.8372 14.9882 13.5639 15.1341L11.1585 16.4095ZM10.2671 22.3996C10.2671 22.1419 10.476 21.9329 10.7337 21.9329H17.2676C17.5253 21.9329 17.7342 22.1419 17.7342 22.3996V24.7331H10.2671V22.3996ZM19.6011 25.6665C19.8588 25.6665 20.0678 25.8754 20.0678 26.1332V27.0666H7.93361V26.1332C7.93361 25.8754 8.14258 25.6665 8.40029 25.6665H19.6011ZM21.3871 19.5751C21.2205 19.8622 20.9509 20.0751 20.6329 20.1706C20.6208 20.1743 20.6096 20.1809 20.5974 20.1851C20.4669 20.228 20.3332 20.2604 20.1975 20.2817C19.823 19.9693 19.6209 19.4965 19.6538 19.01C19.7555 18.238 20.6161 17.5189 21.2303 17.1184V17.1165C21.4903 17.8026 21.7609 18.89 21.3871 19.5751ZM24.4235 19.5528C24.198 20.2528 23.7295 21.2735 23.0089 21.575C22.5487 21.7348 22.0398 21.6645 21.6401 21.386C21.611 21.1373 21.6268 20.8855 21.6867 20.6425C21.8988 20.4711 22.0753 20.26 22.2062 20.0209C22.236 19.9663 22.258 19.9089 22.2827 19.8529C22.9539 19.5534 23.6959 19.4495 24.4235 19.5528ZM22.881 8.32212C22.4942 8.61937 21.9882 8.71311 21.5206 8.57414V8.57365C20.7879 8.30484 20.275 7.30705 20.0192 6.61958C20.744 6.516 21.8631 6.48936 22.4511 7.00603C22.7978 7.35009 22.9577 7.8398 22.881 8.32212ZM23.6992 15.0136C23.2158 14.9483 22.7933 14.6549 22.5632 14.2249V14.2244C22.2365 13.515 22.5861 12.4486 22.8941 11.7827C23.4789 12.2265 24.2853 13.005 24.332 13.7834C24.3302 14.2712 24.0949 14.7285 23.6992 15.0136ZM24.2746 7.1572C24.124 7.13953 23.9753 7.1083 23.8303 7.06384L23.8051 7.05542C23.7205 7.02583 23.6385 6.98913 23.5601 6.94576C23.4394 6.70124 23.272 6.48274 23.0672 6.30264C23.0206 6.26157 22.9692 6.2275 22.9197 6.19113C22.7759 5.47177 22.8371 4.72644 23.0962 4.04012V4.03963C23.7295 4.413 24.6232 5.09391 24.7595 5.86304C24.8146 6.34722 24.6343 6.82845 24.2746 7.1572ZM26.7701 14.0615C26.4654 14.442 25.9969 14.6536 25.51 14.6304C25.4043 14.4949 25.3131 14.3486 25.2379 14.1941C25.2647 14.04 25.2741 13.8835 25.2659 13.7274C25.2555 13.5854 25.2314 13.4447 25.194 13.3073C25.2034 13.2118 25.2104 13.1194 25.215 13.0301C25.624 12.4005 26.2075 11.9036 26.8942 11.6002C27.0748 12.3101 27.2209 13.4203 26.7701 14.0615Z" fill="#43BF41"/>
<path d="M15.4036 22.8662H12.6034C12.3456 22.8662 12.1367 23.0751 12.1367 23.3329C12.1367 23.5907 12.3456 23.7996 12.6034 23.7996H15.4036C15.6614 23.7996 15.8703 23.5907 15.8703 23.3329C15.8703 23.0751 15.6614 22.8662 15.4036 22.8662Z" fill="#E50E0F"/>
</g>
<defs>
<clipPath id="clip0">
<rect width="28" height="28" fill="white"/>
</clipPath>
</defs>
</svg>
