<svg width="28" height="28" viewBox="0 0 28 28" fill="none" xmlns="http://www.w3.org/2000/svg">
<path d="M3.32336 22.699C3.57957 22.957 3.92853 23.1016 4.29216 23.1003C4.65456 23.1006 5.0021 22.9563 5.2577 22.6994L7.09216 20.865C9.13756 20.2205 10.9921 18.4724 12.1322 17.3799C12.4975 17.2242 12.833 17.0063 13.1238 16.7359C13.4795 16.4109 13.7818 16.032 14.0198 15.6131C14.2582 16.0319 14.5606 16.4108 14.9163 16.7359C15.2072 17.0065 15.5429 17.2244 15.9084 17.3799C17.0499 18.4724 18.9044 20.2205 20.9484 20.865L22.7829 22.6994C23.3179 23.2333 24.1841 23.2333 24.7191 22.6994L27.5966 19.8224C28.1293 19.2872 28.1293 18.422 27.5966 17.8867L25.8405 16.1311C25.9338 15.1595 26.1205 11.4882 23.8338 9.19971C23.145 8.51091 22.502 8.23464 21.9158 8.37557C21.4769 8.50289 21.1141 8.81303 20.92 9.22677C19.985 8.48601 18.7194 8.31658 17.6225 8.78531C16.7607 9.14579 15.9823 9.67986 15.3358 10.3542C14.7974 10.8728 14.3523 11.4802 14.0203 12.15C13.6888 11.4799 13.2437 10.8723 12.7048 10.3542C12.0585 9.67961 11.2801 9.14551 10.4181 8.78531C9.32113 8.31616 8.05533 8.48542 7.12016 9.22631C6.92596 8.81292 6.56335 8.50302 6.12476 8.37557C5.5419 8.23557 4.89603 8.51091 4.20676 9.19971C1.9201 11.4864 2.10676 15.1595 2.2001 16.1311L0.44683 17.8867C-0.0864433 18.4218 -0.0864433 19.2874 0.44683 19.8224L3.32336 22.699ZM22.1384 9.28277C22.376 9.22491 22.7526 9.43537 23.1763 9.85957C25.2035 11.8868 24.9814 15.3522 24.9081 16.09L23.0256 17.973C22.9043 18.0902 22.8556 18.2637 22.8983 18.4269C22.941 18.59 23.0684 18.7175 23.2316 18.7602C23.3948 18.8029 23.5683 18.7542 23.6854 18.6329L25.3552 16.9627L25.9712 17.5787L24.3803 19.1696C24.259 19.2867 24.2103 19.4602 24.253 19.6234C24.2957 19.7866 24.4232 19.914 24.5863 19.9567C24.7495 19.9994 24.923 19.9508 25.0402 19.8294L26.631 18.2386L26.939 18.5466C27.109 18.7167 27.109 18.9924 26.939 19.1626L24.062 22.0396C23.8919 22.2095 23.6162 22.2095 23.446 22.0396L21.8626 20.4557L22.4096 19.9083C22.5864 19.7252 22.5839 19.4341 22.4039 19.2541C22.2239 19.0741 21.9328 19.0716 21.7497 19.2484L21.0754 19.9232C19.7915 19.3983 18.6168 18.6387 17.6113 17.6832C18.7262 17.6311 19.8015 17.2535 20.7044 16.5973C22.2761 15.4596 23.5977 13.235 22.151 10.7103C21.9953 10.4383 21.819 10.1785 21.6237 9.93331C21.7712 9.56697 21.9527 9.32757 22.1384 9.28277ZM14.7894 12.7067C15.0849 12.0656 15.4997 11.4867 16.0116 11.0006C16.5641 10.4266 17.2263 9.96951 17.959 9.65657C18.2818 9.52639 18.6259 9.45679 18.974 9.45124C19.898 9.45124 20.6782 10.0224 21.3395 11.1779C22.4786 13.1631 21.4753 14.8902 20.1574 15.8446C18.7999 16.8274 16.7853 17.203 15.5561 16.056C14.5089 15.0736 14.2508 13.9499 14.7894 12.7067ZM9.0713 9.45124C9.41938 9.4567 9.76346 9.52631 10.0863 9.65657C10.8329 9.97688 11.5066 10.4454 12.0668 11.0337C12.5666 11.5102 12.9702 12.0781 13.2559 12.7067C13.7949 13.9499 13.5359 15.0755 12.4896 16.0536C11.2618 17.1998 9.24863 16.8269 7.8883 15.8422C6.57043 14.8879 5.56756 13.1608 6.70576 11.1756C7.3675 10.022 8.14776 9.45124 9.0713 9.45124ZM4.8713 9.85957C5.2955 9.43537 5.67256 9.22257 5.9087 9.28277C6.09536 9.32944 6.27596 9.56604 6.4253 9.93611C6.22971 10.1811 6.0534 10.4409 5.89796 10.7131C4.4513 13.2378 5.77103 15.4624 7.34463 16.6001C8.24752 17.2566 9.32302 17.6342 10.4382 17.686C9.4326 18.6416 8.25767 19.4012 6.97363 19.926L6.2993 19.2512C6.18192 19.1328 6.01027 19.0859 5.849 19.1284C5.68772 19.1708 5.56133 19.296 5.51743 19.4569C5.47353 19.6178 5.51879 19.7898 5.63616 19.9083L6.1831 20.4557L4.59923 22.0396C4.5179 22.1212 4.40739 22.167 4.29216 22.167C4.17692 22.1671 4.0664 22.1212 3.9851 22.0396L1.1067 19.1626C0.938027 18.9919 0.938027 18.7173 1.1067 18.5466L1.4147 18.2386L3.0051 19.8294C3.12227 19.9508 3.29577 19.9994 3.45893 19.9567C3.62209 19.914 3.74952 19.7866 3.79222 19.6234C3.83493 19.4602 3.78628 19.2867 3.66496 19.1696L2.07456 17.5787L2.69056 16.9627L4.3603 18.6329C4.47746 18.7542 4.65097 18.8029 4.81413 18.7602C4.97729 18.7175 5.10471 18.59 5.14742 18.4269C5.19013 18.2637 5.14148 18.0902 5.02016 17.973L3.13716 16.09C3.06296 15.3536 2.83663 11.8928 4.8699 9.85957H4.8713Z" fill="#43BF41"/>
<path d="M7.68737 12.2771C7.91083 12.4055 8.196 12.3284 8.32437 12.1049C8.65664 11.5258 8.93104 11.3191 9.07104 11.3191C9.18926 11.325 9.30545 11.3522 9.41404 11.3993C9.65451 11.4925 9.92497 11.3731 10.0181 11.1326C10.1113 10.8922 9.99191 10.6217 9.75144 10.5285C9.53605 10.4399 9.30623 10.3915 9.07338 10.3857C8.50917 10.3857 8.00004 10.7964 7.51517 11.6401C7.38686 11.8636 7.46395 12.1488 7.68737 12.2771Z" fill="#43BF41"/>
<path d="M22.2145 7.30898C22.0239 7.30893 21.8524 7.19289 21.7815 7.01591C21.4451 6.17204 21.3443 5.25262 21.4898 4.35591C20.4631 5.04144 18.9231 5.77131 17.3411 5.42924C15.9729 5.13384 14.8519 4.10017 14.0012 2.35344C13.1505 4.10017 12.0295 5.13291 10.6608 5.42971C9.07975 5.77224 7.53928 5.04237 6.51215 4.35637C6.6577 5.25309 6.55689 6.17251 6.22048 7.01638C6.16204 7.17625 6.02118 7.29162 5.85292 7.31742C5.68467 7.34323 5.51571 7.27537 5.41204 7.14036C5.30837 7.00534 5.28644 6.8246 5.35481 6.66871C5.79256 5.5538 5.72966 4.30448 5.18215 3.23917C5.08493 3.03517 5.14786 2.79082 5.33153 2.65915C5.5152 2.52748 5.76682 2.54634 5.92881 2.70391C5.95215 2.72724 8.25841 4.99664 10.4643 4.51737C11.7509 4.23737 12.793 3.05484 13.5621 1.00384C13.6301 0.821263 13.8045 0.700195 13.9993 0.700195C14.1942 0.700195 14.3685 0.821263 14.4366 1.00384C15.2057 3.05484 16.2477 4.23691 17.5343 4.51737C19.7412 4.99384 22.0484 2.72631 22.0717 2.70344C22.2337 2.54587 22.4854 2.52701 22.669 2.65868C22.8527 2.79035 22.9156 3.0347 22.8184 3.23871C22.2711 4.30407 22.2082 5.55329 22.6457 6.66824C22.7035 6.81199 22.6862 6.97504 22.5995 7.10344C22.5128 7.23184 22.3681 7.30885 22.2131 7.30898H22.2145Z" fill="#E50E0F"/>
<path d="M13.9979 26.9825C13.8032 26.9826 13.6289 26.8619 13.5606 26.6796C12.7916 24.6263 11.7495 23.4465 10.4629 23.1661C8.25648 22.6887 5.95069 24.9562 5.92735 24.9795C5.74412 25.1563 5.45305 25.1535 5.27317 24.9734C5.09329 24.7932 5.09096 24.5022 5.26795 24.3192C5.37622 24.2105 7.95735 21.6685 10.6575 22.2533C12.0262 22.5501 13.1472 23.5828 13.9979 25.3291C14.8486 23.5828 15.9696 22.5501 17.3383 22.2533C20.0389 21.6695 22.6196 24.2133 22.7278 24.3192C22.9048 24.5022 22.9025 24.7932 22.7226 24.9734C22.5427 25.1535 22.2517 25.1563 22.0684 24.9795C22.0451 24.9567 19.7384 22.6868 17.5329 23.1661C16.2463 23.4461 15.2042 24.6281 14.4352 26.6796C14.3668 26.8619 14.1925 26.9826 13.9979 26.9825Z" fill="#E50E0F"/>
</svg>
