<svg width="28" height="28" viewBox="0 0 28 28" fill="none" xmlns="http://www.w3.org/2000/svg">
<path d="M5.48058 7.36679C5.59661 7.36679 5.70789 7.32069 5.78994 7.23865C5.87199 7.1566 5.91808 7.04532 5.91808 6.92929C5.91046 5.60074 6.32993 4.30491 7.11464 3.23285C7.24981 4.18232 7.68933 5.06233 8.3672 5.74076C9.04507 6.41918 9.92472 6.85941 10.8741 6.99535C10.9362 7.00426 10.9995 6.99971 11.0597 6.982C11.1199 6.96429 11.1756 6.93384 11.2229 6.89271C11.2703 6.85159 11.3083 6.80076 11.3343 6.74366C11.3604 6.68656 11.3738 6.62453 11.3737 6.56179C11.3761 5.52788 11.7171 4.52323 12.3446 3.70152C12.9721 2.87981 13.8515 2.2863 14.8483 2.01179L14.9879 1.97372C14.7185 2.84525 14.7309 3.77955 15.0233 4.64362C15.3158 5.50769 15.8734 6.25747 16.6167 6.78622L16.8092 6.92185C16.871 6.96533 16.9429 6.99208 17.0181 6.9995C17.0933 7.00692 17.1691 6.99475 17.2381 6.96418C17.3072 6.93361 17.3672 6.88568 17.4122 6.82506C17.4573 6.76443 17.4859 6.69317 17.4952 6.61822C17.6105 5.72675 18.0251 4.90086 18.6712 4.27587C19.3172 3.65087 20.1564 3.26383 21.0512 3.17816L21.1475 3.16941L21.1269 3.18997C20.4649 3.85229 20.0931 4.75037 20.0931 5.68679C20.0931 6.6232 20.4649 7.52129 21.1269 8.1836C21.1879 8.24479 21.2657 8.28638 21.3505 8.30304C21.9568 8.4229 22.5844 8.37364 23.1646 8.16067C23.7448 7.94769 24.2552 7.5792 24.64 7.09554C24.6812 8.20862 24.5484 9.32131 24.2463 10.3934C24.2147 10.5051 24.2288 10.6247 24.2855 10.726C24.3421 10.8273 24.4367 10.9019 24.5484 10.9335C24.66 10.9651 24.7797 10.951 24.881 10.8943C24.9823 10.8377 25.0569 10.7431 25.0885 10.6314C25.5471 8.99961 25.6416 7.28697 25.3654 5.6146C25.3502 5.52348 25.3065 5.43952 25.2406 5.37474C25.1748 5.30997 25.0901 5.26771 24.9987 5.25401C24.9074 5.24031 24.814 5.25589 24.7321 5.2985C24.6501 5.34111 24.5837 5.40858 24.5425 5.49122L24.2279 6.12079C23.9932 6.58661 23.6184 6.96712 23.1561 7.20876C22.6939 7.4504 22.1675 7.54102 21.651 7.46785C21.195 6.96207 20.9503 6.30062 20.9675 5.61982C20.9847 4.93902 21.2624 4.29074 21.7433 3.8086L22.6183 2.9336C22.6815 2.86988 22.7236 2.78828 22.7388 2.69986C22.754 2.61144 22.7417 2.52048 22.7035 2.43929C22.6653 2.35811 22.6031 2.29064 22.5252 2.24602C22.4474 2.2014 22.3577 2.18179 22.2683 2.18985L20.9681 2.30797C20.0007 2.40133 19.0836 2.7828 18.3354 3.40302C17.5872 4.02325 17.0423 4.8537 16.7711 5.78697C16.1992 5.25425 15.8244 4.54361 15.7078 3.77075C15.5912 2.99789 15.7396 2.2083 16.1289 1.53054C16.1718 1.45542 16.1915 1.36926 16.1855 1.28296C16.1794 1.19665 16.1479 1.11408 16.095 1.04567C16.042 0.977253 15.97 0.926079 15.8879 0.898611C15.8059 0.871144 15.7176 0.868617 15.6341 0.891349L14.6186 1.16741C13.5245 1.46848 12.5474 2.09439 11.8164 2.96245C11.0854 3.83051 10.635 4.8999 10.5245 6.02935C9.84603 5.83531 9.24059 5.44384 8.78523 4.90473C8.32987 4.36562 8.04516 3.70323 7.96733 3.00185L7.87108 2.13997C7.86215 2.05803 7.83026 1.98028 7.77907 1.91568C7.72789 1.85107 7.65949 1.80224 7.58177 1.77481C7.50404 1.74738 7.42015 1.74246 7.33975 1.76062C7.25935 1.77879 7.18572 1.81929 7.12733 1.87747C6.46197 2.5392 5.935 3.32676 5.57716 4.19425C5.21932 5.06173 5.03777 5.99178 5.04308 6.93016C5.04331 7.04604 5.08951 7.1571 5.17153 7.23896C5.25355 7.32081 5.3647 7.36679 5.48058 7.36679Z" fill="#E50E0F"/>
<path d="M7.95241 23.0755C7.02552 22.9104 6.1405 22.5633 5.34841 22.0544L5.29329 22.0216C4.43264 21.4723 3.69189 20.7548 3.11554 19.9121C2.53919 19.0694 2.13914 18.1189 1.93941 17.1176C1.88779 16.8551 1.8366 16.5926 1.78673 16.3384C2.31623 16.9753 2.97943 17.4879 3.72926 17.8397C4.47908 18.1915 5.29716 18.374 6.12541 18.3741C6.20948 18.3741 6.29177 18.3499 6.36243 18.3043C6.43308 18.2588 6.48912 18.1938 6.52383 18.1172C6.55853 18.0407 6.57045 17.9557 6.55814 17.8726C6.54583 17.7894 6.50982 17.7115 6.45441 17.6483C4.79657 15.7628 3.69378 13.4548 3.26854 10.9804C3.77489 11.601 4.45836 12.0526 5.22786 12.275C5.99737 12.4973 6.81637 12.4799 7.57573 12.2251C7.64021 12.2036 7.69881 12.1675 7.74689 12.1195C7.79497 12.0715 7.83121 12.0129 7.85274 11.9485C7.87426 11.884 7.88048 11.8155 7.8709 11.7482C7.86132 11.6809 7.8362 11.6168 7.79754 11.5609L7.02798 10.4501C6.62815 9.87114 6.32797 9.22937 6.13985 8.55137C6.10785 8.44067 6.03347 8.34706 5.93287 8.29088C5.83226 8.23469 5.71355 8.22047 5.60252 8.2513C5.49149 8.28212 5.3971 8.35551 5.33986 8.45552C5.28261 8.55553 5.26714 8.67408 5.29679 8.78543C5.51121 9.55744 5.85308 10.2882 6.30829 10.9476L6.71123 11.529C6.12895 11.6038 5.53744 11.5098 5.00703 11.2582C4.47661 11.0066 4.02961 10.608 3.71916 10.1097L2.99729 8.95474C2.94585 8.87009 2.8672 8.8054 2.77421 8.77125C2.68122 8.73711 2.57939 8.73553 2.48539 8.76678C2.39139 8.79803 2.31078 8.86025 2.25674 8.94328C2.2027 9.0263 2.17843 9.1252 2.18791 9.22381L2.24085 9.83981C2.46204 12.5797 3.46059 15.1995 5.11916 17.3915C4.45584 17.2478 3.83079 16.9644 3.28572 16.56C2.74064 16.1556 2.28808 15.6396 1.95823 15.0465L1.25823 13.7865C1.20769 13.6947 1.1259 13.6241 1.02772 13.5876C0.929549 13.551 0.821512 13.5509 0.723253 13.5872C0.624993 13.6235 0.543035 13.6939 0.492278 13.7856C0.441521 13.8772 0.425335 13.9841 0.446663 14.0866C0.446663 14.0866 0.765601 15.6739 1.0806 17.2874C1.30427 18.4066 1.75201 19.469 2.39687 20.4107C3.04174 21.3524 3.8704 22.1539 4.83304 22.7671L4.88729 22.7994C5.77313 23.3669 6.7625 23.7535 7.79841 23.9369C7.82382 23.9415 7.8496 23.9437 7.87541 23.9435C7.98455 23.9432 8.08962 23.902 8.17 23.8282C8.25038 23.7544 8.30026 23.6532 8.30985 23.5444C8.31944 23.4357 8.28804 23.3273 8.22183 23.2406C8.15562 23.1538 8.05937 23.0949 7.95198 23.0755H7.95241Z" fill="#E50E0F"/>
<path d="M18.8125 22.8536V21.1806L18.9731 21.02C19.3395 20.6556 19.6299 20.2222 19.8277 19.7448C20.0254 19.2674 20.1265 18.7555 20.125 18.2388V17.4189C20.125 17.3029 20.0789 17.1916 19.9969 17.1096C19.9148 17.0275 19.8035 16.9814 19.6875 16.9814C19.5715 16.9814 19.4602 17.0275 19.3781 17.1096C19.2961 17.1916 19.25 17.3029 19.25 17.4189V18.2388C19.2511 18.6406 19.1725 19.0386 19.0188 19.4098C18.8651 19.781 18.6393 20.118 18.3544 20.4014L18.0657 20.6901C17.9836 20.7722 17.9375 20.8834 17.9375 20.9994V26.6869C17.9375 26.803 17.9836 26.9143 18.0656 26.9963C18.1477 27.0784 18.259 27.1244 18.375 27.1244C18.491 27.1244 18.6023 27.0784 18.6844 26.9963C18.7664 26.9143 18.8125 26.803 18.8125 26.6869V23.7312C19.6009 23.7312 19.25 22.7831 18.8125 22.8536Z" fill="#43BF41"/>
<path fill-rule="evenodd" clip-rule="evenodd" d="M26.5448 12.7108C26.6397 12.6782 26.7429 12.6791 26.8371 12.7135C26.9317 12.7479 27.0114 12.8137 27.0631 12.9C27.1147 12.9863 27.135 13.0878 27.1206 13.1873L26.6656 16.3811C26.3899 18.3176 25.4611 20.1019 24.033 21.4386C22.6507 22.7323 20.8809 23.5315 19 23.7149V22.8354C20.6697 22.6542 22.2366 21.9322 23.4603 20.7769C24.7297 19.5783 25.5547 17.9844 25.8003 16.2559L25.9875 14.9413C25.4481 15.5159 24.7373 15.9005 23.9612 16.0378C23.1851 16.1751 22.3854 16.0576 21.6816 15.7029C21.6213 15.673 21.5688 15.6294 21.5281 15.5758C21.4873 15.5222 21.4595 15.4599 21.4468 15.3937C21.4341 15.3276 21.4369 15.2594 21.4548 15.1945C21.4728 15.1296 21.5055 15.0698 21.5504 15.0196L21.9266 14.5996C22.6332 13.8138 23.2184 12.9268 23.6626 11.968C23.7115 11.8628 23.8003 11.7813 23.9093 11.7414C24.0183 11.7016 24.1386 11.7067 24.2439 11.7556C24.296 11.7798 24.3428 11.8141 24.3817 11.8564C24.4205 11.8987 24.4507 11.9482 24.4704 12.0022C24.4902 12.0562 24.4991 12.1135 24.4966 12.1709C24.4942 12.2283 24.4805 12.2847 24.4563 12.3368C23.9846 13.3514 23.3673 14.2918 22.624 15.1281C23.1984 15.2777 23.8056 15.2395 24.3567 15.0191C24.9077 14.7986 25.3738 14.4075 25.6865 13.9031L26.3161 12.8929C26.3692 12.8078 26.45 12.7435 26.5448 12.7108Z" fill="#E50E0F"/>
<path d="M19.25 16.1872C19.7141 16.1872 20.1592 16.0028 20.4874 15.6746C20.8156 15.3464 21 14.9013 21 14.4372V12.2497C21 11.7855 20.8156 11.3404 20.4874 11.0122C20.1592 10.684 19.7141 10.4997 19.25 10.4997C18.9345 10.5012 18.6254 10.589 18.3562 10.7534C18.3261 10.4531 18.2185 10.1657 18.0438 9.91945C17.8692 9.67324 17.6335 9.47669 17.3599 9.34908C17.0863 9.22147 16.7843 9.1672 16.4834 9.19158C16.1825 9.21597 15.8931 9.31817 15.6437 9.48817C15.5254 9.14537 15.3033 8.84794 15.0081 8.63724C14.713 8.42654 14.3595 8.31303 13.9969 8.3125C13.6343 8.31197 13.2805 8.42445 12.9847 8.63429C12.689 8.84413 12.466 9.14091 12.3467 9.48336C12.0833 9.30751 11.7771 9.20643 11.4608 9.19091C11.1444 9.17539 10.8298 9.246 10.5505 9.39522C10.2711 9.54444 10.0375 9.76667 9.87452 10.0382C9.71153 10.3098 9.6253 10.6205 9.625 10.9372V12.5887C8.89034 12.7146 8.22386 13.0962 7.74347 13.6661C7.26308 14.236 6.99973 14.9575 7 15.7029C7.00055 16.2951 7.13832 16.8791 7.4025 17.4091L9.24919 21.1016L9.1875 26.6824C9.18686 26.7398 9.19755 26.7968 9.21895 26.8502C9.24036 26.9035 9.27205 26.9521 9.31223 26.9931C9.35241 27.0342 9.40029 27.067 9.45313 27.0895C9.50597 27.1121 9.56273 27.124 9.62019 27.1247H9.625C9.7402 27.1247 9.85076 27.0792 9.93267 26.9982C10.0146 26.9172 10.0612 26.8072 10.0625 26.692L10.1251 21.0045C10.1257 20.935 10.11 20.8664 10.0791 20.8041L8.18519 17.0184C7.98186 16.6107 7.87569 16.1615 7.875 15.7059C7.87504 15.3784 7.94545 15.0546 8.08147 14.7566C8.21749 14.4586 8.41594 14.1933 8.66339 13.9787C8.91084 13.7641 9.20152 13.6051 9.51574 13.5126C9.82996 13.42 10.1604 13.396 10.4847 13.4423L14.8361 14.064C14.7499 14.4707 14.5267 14.8354 14.2039 15.0974C13.8811 15.3593 13.4781 15.5024 13.0624 15.5029H10.2502C10.1342 15.5029 10.0229 15.549 9.94083 15.6311C9.85878 15.7131 9.81269 15.8244 9.81269 15.9404C9.81269 16.0565 9.85878 16.1677 9.94083 16.2498C10.0229 16.3318 10.1342 16.3779 10.2502 16.3779C10.8798 16.3786 11.4834 16.629 11.9286 17.0742C12.3738 17.5194 12.6242 18.1231 12.6249 18.7527V20.9997C12.6249 21.1157 12.671 21.227 12.7531 21.309C12.8351 21.3911 12.9464 21.4372 13.0624 21.4372C13.1785 21.4372 13.2897 21.3911 13.3718 21.309C13.4538 21.227 13.4999 21.1157 13.4999 20.9997V18.7496C13.5004 18.3042 13.409 17.8634 13.2316 17.4549C13.0542 17.0463 12.7945 16.6786 12.4688 16.3749H13.0646C13.5125 16.3746 13.9531 16.2624 14.3466 16.0485C14.74 15.8346 15.0737 15.5256 15.3173 15.1499C15.465 15.3223 15.6454 15.4639 15.8481 15.5663C16.0508 15.6688 16.2717 15.7301 16.4982 15.7468C16.7247 15.7635 16.9522 15.7352 17.1677 15.6635C17.3832 15.5918 17.5824 15.4782 17.7538 15.3292C17.9074 15.5896 18.1261 15.8056 18.3884 15.956C18.6508 16.1064 18.9476 16.1861 19.25 16.1872ZM19.25 11.3747C19.4821 11.3747 19.7046 11.4669 19.8687 11.631C20.0328 11.795 20.125 12.0176 20.125 12.2497V14.4372C20.125 14.6692 20.0328 14.8918 19.8687 15.0559C19.7046 15.22 19.4821 15.3122 19.25 15.3122C19.0179 15.3122 18.7954 15.22 18.6313 15.0559C18.4672 14.8918 18.375 14.6692 18.375 14.4372V12.2497C18.375 12.0176 18.4672 11.795 18.6313 11.631C18.7954 11.4669 19.0179 11.3747 19.25 11.3747ZM10.5 12.5638V10.9372C10.5 10.7051 10.5922 10.4825 10.7563 10.3185C10.9204 10.1544 11.1429 10.0622 11.375 10.0622C11.6071 10.0622 11.8296 10.1544 11.9937 10.3185C12.1578 10.4825 12.25 10.7051 12.25 10.9372V12.8079L10.6089 12.5734C10.5726 12.5682 10.5363 12.5677 10.5 12.5638ZM16.625 14.8747C16.3929 14.8747 16.1704 14.7825 16.0063 14.6184C15.8422 14.4543 15.75 14.2317 15.75 13.9997C15.7473 13.9785 15.7431 13.9576 15.7373 13.9371C15.7452 13.8544 15.75 13.7713 15.75 13.6873C15.75 13.582 15.7121 13.4803 15.6431 13.4007C15.5742 13.3211 15.4788 13.2691 15.3746 13.2542L13.125 12.9326V10.0622C13.125 9.83011 13.2172 9.60755 13.3813 9.44345C13.5454 9.27936 13.7679 9.18717 14 9.18717C14.2321 9.18717 14.4546 9.27936 14.6187 9.44345C14.7828 9.60755 14.875 9.83011 14.875 10.0622V12.2497C14.875 12.3657 14.9211 12.477 15.0031 12.559C15.0852 12.6411 15.1965 12.6872 15.3125 12.6872C15.4285 12.6872 15.5398 12.6411 15.6219 12.559C15.7039 12.477 15.75 12.3657 15.75 12.2497V10.9372C15.75 10.7051 15.8422 10.4825 16.0063 10.3185C16.1704 10.1544 16.3929 10.0622 16.625 10.0622C16.8571 10.0622 17.0796 10.1544 17.2437 10.3185C17.4078 10.4825 17.5 10.7051 17.5 10.9372V13.9997C17.5 14.2317 17.4078 14.4543 17.2437 14.6184C17.0796 14.7825 16.8571 14.8747 16.625 14.8747Z" fill="#43BF41"/>
</svg>
