<svg width="28" height="28" viewBox="0 0 28 28" fill="none" xmlns="http://www.w3.org/2000/svg">
<path d="M1.55763 26.4872C1.41224 26.4811 1.26893 26.4504 1.13385 26.3963C0.962075 26.3403 0.803123 26.2508 0.666196 26.1329C0.529269 26.015 0.417087 25.8712 0.336146 25.7096C0.255205 25.5481 0.207113 25.3721 0.194657 25.1919C0.1822 25.0116 0.205625 24.8307 0.263576 24.6596L2.85925 17.0731C2.49979 16.4034 2.17439 15.1812 3.07871 14.3563C3.14867 14.2946 3.23895 14.2609 3.33222 14.2617H7.20682C7.26782 14.2618 7.32789 14.2767 7.38192 14.305C7.43594 14.3333 7.48232 14.3743 7.51709 14.4244L10.8014 19.1466C10.877 19.2523 10.931 19.3719 10.9603 19.4985L12.262 24.6672C12.3578 25.0063 12.315 25.3697 12.1429 25.6773C11.9708 25.9849 11.6836 26.2116 11.3444 26.3074C11.0052 26.4033 10.6418 26.3604 10.3342 26.1883C10.0266 26.0163 9.79995 25.729 9.70412 25.3899L8.24736 20.7812L5.67439 17.2547L2.85168 25.545C2.76202 25.8179 2.58883 26.0557 2.35661 26.2248C2.12438 26.3938 1.84488 26.4856 1.55763 26.4872ZM3.48736 15.0336C2.89709 15.7185 3.56304 16.8007 3.59331 16.8461C3.62359 16.894 3.64272 16.9481 3.64927 17.0045C3.65582 17.0608 3.64962 17.1179 3.63114 17.1715L0.982495 24.9207C0.956261 24.9964 0.945243 25.0766 0.950072 25.1567C0.954901 25.2367 0.975482 25.315 1.01064 25.3871C1.04579 25.4591 1.09482 25.5235 1.15492 25.5766C1.21503 25.6297 1.28501 25.6704 1.36087 25.6963C1.51393 25.7483 1.68132 25.7377 1.82659 25.6668C1.97186 25.5959 2.08326 25.4706 2.13655 25.318L5.21277 16.3352C5.23559 16.2703 5.27572 16.2127 5.32883 16.1689C5.38195 16.125 5.44603 16.0965 5.51417 16.0863C5.58231 16.0762 5.65192 16.0849 5.7155 16.1114C5.77907 16.1379 5.8342 16.1813 5.87493 16.2369L8.90195 20.399C8.92554 20.4311 8.94345 20.4669 8.95493 20.505L10.423 25.1628C10.4688 25.2954 10.5612 25.4069 10.683 25.4765C10.8048 25.5461 10.9477 25.5691 11.0852 25.5412C11.1621 25.5253 11.2351 25.4943 11.3 25.4502C11.3649 25.406 11.4205 25.3495 11.4636 25.2839C11.5051 25.2182 11.5326 25.1446 11.5443 25.0678C11.556 24.9909 11.5517 24.9125 11.5317 24.8374L10.2149 19.6763C10.2064 19.6379 10.1896 19.6017 10.1657 19.5704L7.01006 15.0185L3.48736 15.0336Z" fill="#43BF41"/>
<path d="M3.33408 15.0142C3.24965 15.0176 3.16652 14.9926 3.09794 14.9432C3.02937 14.8938 2.97929 14.8229 2.9557 14.7418C1.44219 9.66772 4.25732 6.58016 4.58273 6.2434C4.61611 6.20339 4.65739 6.17071 4.704 6.1474C4.7506 6.12409 4.80151 6.11065 4.85355 6.10794C4.90559 6.10522 4.95762 6.11328 5.0064 6.13162C5.05517 6.14995 5.09964 6.17816 5.137 6.21448C5.17436 6.2508 5.20382 6.29444 5.22353 6.34268C5.24324 6.39091 5.25278 6.4427 5.25154 6.49479C5.2503 6.54688 5.23832 6.59816 5.21634 6.6454C5.19436 6.69265 5.16286 6.73484 5.12381 6.76935C4.83246 7.07205 2.30111 9.86448 3.6784 14.5299C3.70665 14.6257 3.69585 14.7288 3.64836 14.8167C3.60086 14.9046 3.52053 14.9702 3.42489 14.9991C3.39544 15.0082 3.3649 15.0133 3.33408 15.0142Z" fill="#43BF41"/>
<path d="M7.21004 15.0178C7.12609 15.0213 7.04334 14.9969 6.97483 14.9482C6.90632 14.8996 6.85595 14.8295 6.83166 14.7491C6.53727 13.6576 6.44494 12.5214 6.55923 11.3967C6.56469 11.347 6.57989 11.2988 6.60396 11.255C6.62802 11.2112 6.66048 11.1726 6.69948 11.1413C6.73848 11.11 6.78326 11.0867 6.83126 11.0728C6.87926 11.0588 6.92954 11.0544 6.97923 11.0599C7.02891 11.0654 7.07704 11.0806 7.12086 11.1046C7.16467 11.1287 7.20332 11.1612 7.23459 11.2002C7.26586 11.2392 7.28914 11.2839 7.30311 11.3319C7.31707 11.3799 7.32145 11.4302 7.31598 11.4799C7.21466 12.5034 7.30056 13.5369 7.56949 14.5296C7.59774 14.6255 7.58694 14.7286 7.53945 14.8165C7.49195 14.9044 7.41162 14.9699 7.31598 14.9988C7.28175 15.0102 7.24607 15.0165 7.21004 15.0178Z" fill="#43BF41"/>
<path d="M7.63314 12.1534C7.40433 12.1534 7.18251 12.0746 7.00503 11.9302L4.31476 9.73935C4.27342 9.70903 4.23866 9.67062 4.21262 9.62645C4.18657 9.58229 4.16977 9.53329 4.16324 9.48243C4.15671 9.43157 4.16058 9.37992 4.17462 9.33061C4.18867 9.28129 4.21259 9.23535 4.24493 9.19556C4.27727 9.15577 4.31736 9.12297 4.36277 9.09916C4.40818 9.07534 4.45795 9.061 4.50907 9.057C4.56019 9.05301 4.61158 9.05945 4.66014 9.07593C4.70869 9.09241 4.75339 9.11858 4.79152 9.15286L7.48179 11.3512C7.52436 11.3832 7.57614 11.4004 7.62936 11.4004C7.68257 11.4004 7.73435 11.3832 7.77692 11.3512L10.5467 9.308C10.6309 9.24372 10.6868 9.14924 10.7027 9.04449C10.7187 8.93974 10.6932 8.83291 10.6319 8.74652C10.5705 8.66014 10.478 8.60097 10.3739 8.58148C10.2698 8.56198 10.1621 8.5837 10.0737 8.64205L7.87152 10.1177C7.76865 10.1857 7.64634 10.218 7.52333 10.2098C7.40032 10.2016 7.28338 10.1533 7.19044 10.0723L5.21152 8.32421C5.16881 8.29321 5.13306 8.2536 5.10657 8.20796C5.08008 8.16231 5.06343 8.11162 5.05769 8.05916C5.05195 8.00669 5.05726 7.9536 5.07326 7.90331C5.08926 7.85302 5.11561 7.80662 5.1506 7.76712C5.1856 7.72761 5.22848 7.69587 5.27648 7.67392C5.32448 7.65197 5.37654 7.64031 5.42931 7.63968C5.48208 7.63905 5.53441 7.64946 5.58292 7.67026C5.63143 7.69106 5.67505 7.72177 5.71098 7.76043L7.56882 9.41016L9.65368 8.01394C9.90484 7.87298 10.1993 7.83002 10.4803 7.89333C10.7612 7.95665 11.0088 8.12176 11.1752 8.35682C11.3416 8.59188 11.4151 8.88023 11.3815 9.16627C11.3479 9.45231 11.2095 9.71577 10.9931 9.90584L8.22341 11.9491C8.05381 12.079 7.84678 12.1507 7.63314 12.1534Z" fill="#43BF41"/>
<path d="M6.83588 9.64499C6.76811 9.64392 6.70172 9.6257 6.64291 9.59202C6.55866 9.54089 6.49768 9.4589 6.47295 9.36351C6.44822 9.26811 6.46168 9.16683 6.51048 9.0812C6.61678 8.83922 6.66269 8.57503 6.64423 8.31138C6.62577 8.04772 6.54351 7.7925 6.40453 7.56769C6.35887 7.47787 6.35076 7.3736 6.38198 7.2778C6.4132 7.182 6.4812 7.10254 6.57102 7.05687C6.66083 7.01121 6.76511 7.0031 6.8609 7.03433C6.9567 7.06555 7.03616 7.13355 7.08182 7.22336C7.27864 7.56058 7.38891 7.94128 7.40277 8.33148C7.41664 8.72168 7.33367 9.10925 7.16128 9.45958C7.1278 9.51607 7.08018 9.56286 7.02313 9.59537C6.96608 9.62788 6.90154 9.64498 6.83588 9.64499Z" fill="#43BF41"/>
<path d="M6.69003 7.78337C6.15644 7.78337 5.63485 7.62514 5.19119 7.3287C4.74753 7.03226 4.40174 6.61091 4.19755 6.11795C3.99336 5.62498 3.93993 5.08254 4.04403 4.55921C4.14812 4.03588 4.40507 3.55517 4.78237 3.17787C5.15967 2.80058 5.64038 2.54363 6.1637 2.43953C6.68703 2.33544 7.22948 2.38886 7.72244 2.59306C8.21541 2.79725 8.63675 3.14304 8.9332 3.58669C9.22964 4.03035 9.38786 4.55195 9.38786 5.08553C9.38686 5.80073 9.10231 6.48636 8.59658 6.99208C8.09085 7.49781 7.40523 7.78236 6.69003 7.78337ZM6.69003 3.14445C6.30612 3.14445 5.93083 3.25829 5.61162 3.47158C5.29241 3.68487 5.04362 3.98803 4.8967 4.34271C4.74979 4.6974 4.71135 5.08768 4.78624 5.46422C4.86114 5.84075 5.04601 6.18662 5.31748 6.45808C5.58894 6.72955 5.93481 6.91441 6.31134 6.98931C6.68787 7.06421 7.07816 7.02577 7.43285 6.87885C7.78753 6.73194 8.09069 6.48315 8.30398 6.16394C8.51726 5.84473 8.63111 5.46944 8.63111 5.08553C8.63111 4.57072 8.4266 4.077 8.06258 3.71298C7.69855 3.34896 7.20483 3.14445 6.69003 3.14445Z" fill="#43BF41"/>
<path d="M9.05308 9.24405H6.96822C6.86787 9.24405 6.77163 9.20419 6.70067 9.13323C6.62971 9.06227 6.58984 8.96603 6.58984 8.86568C6.58984 8.76533 6.62971 8.66909 6.70067 8.59813C6.77163 8.52717 6.86787 8.4873 6.96822 8.4873H9.05308C9.15343 8.4873 9.24967 8.52717 9.32063 8.59813C9.39159 8.66909 9.43146 8.76533 9.43146 8.86568C9.43146 8.96603 9.39159 9.06227 9.32063 9.13323C9.24967 9.20419 9.15343 9.24405 9.05308 9.24405Z" fill="#43BF41"/>
<path d="M14.4058 9.24347H11.076C10.9757 9.24347 10.8795 9.20361 10.8085 9.13265C10.7375 9.06169 10.6977 8.96545 10.6977 8.8651C10.6977 8.76475 10.7375 8.6685 10.8085 8.59754C10.8795 8.52658 10.9757 8.48672 11.076 8.48672H14.4058C14.4518 8.48672 14.4974 8.47759 14.5399 8.45986C14.5824 8.44213 14.6209 8.41615 14.6533 8.38343C14.6857 8.3507 14.7112 8.31188 14.7285 8.26921C14.7458 8.22653 14.7544 8.18086 14.7539 8.13483C14.7539 8.0405 14.7164 7.95003 14.6497 7.88333C14.583 7.81663 14.4925 7.77915 14.3982 7.77915H6.68307C6.58271 7.77915 6.48647 7.73929 6.41551 7.66833C6.34455 7.59737 6.30469 7.50113 6.30469 7.40078C6.30469 7.30043 6.34455 7.20418 6.41551 7.13322C6.48647 7.06226 6.58271 7.0224 6.68307 7.0224H14.4058C14.5571 7.01357 14.7086 7.03574 14.851 7.08755C14.9934 7.13937 15.1237 7.21974 15.234 7.32373C15.3442 7.42772 15.432 7.55314 15.4921 7.69229C15.5521 7.83144 15.5831 7.98139 15.5831 8.13294C15.5831 8.28449 15.5521 8.43443 15.4921 8.57359C15.432 8.71274 15.3442 8.83816 15.234 8.94215C15.1237 9.04614 14.9934 9.12651 14.851 9.17832C14.7086 9.23014 14.5571 9.25231 14.4058 9.24347Z" fill="#43BF41"/>
<path d="M15.7702 25.1885C15.3919 25.1885 15.0291 25.0382 14.7616 24.7707C14.494 24.5032 14.3438 24.1403 14.3438 23.762V21.4917C14.3438 21.3914 14.3836 21.2952 14.4546 21.2242C14.5255 21.1532 14.6218 21.1134 14.7221 21.1134C14.8225 21.1134 14.9187 21.1532 14.9897 21.2242C15.0606 21.2952 15.1005 21.3914 15.1005 21.4917V23.762C15.0936 23.8539 15.1057 23.9463 15.1361 24.0333C15.1666 24.1204 15.2146 24.2002 15.2773 24.2678C15.34 24.3354 15.416 24.3893 15.5005 24.4261C15.585 24.463 15.6762 24.4821 15.7683 24.4821C15.8605 24.4821 15.9517 24.463 16.0362 24.4261C16.1207 24.3893 16.1967 24.3354 16.2594 24.2678C16.3221 24.2002 16.3701 24.1204 16.4006 24.0333C16.431 23.9463 16.4431 23.8539 16.4362 23.762V20.6858C16.4359 20.5168 16.4857 20.3514 16.5793 20.2107C16.6729 20.0699 16.8061 19.9601 16.9621 19.895L18.7859 19.1382C18.8787 19.0991 18.9833 19.0984 19.0766 19.1364C19.1699 19.1744 19.2443 19.2478 19.2835 19.3407C19.3226 19.4335 19.3233 19.5381 19.2853 19.6314C19.2474 19.7247 19.1739 19.7991 19.0811 19.8382L17.2573 20.595C17.2383 20.6025 17.2221 20.6156 17.2106 20.6324C17.1992 20.6493 17.193 20.6692 17.1929 20.6896V23.762C17.1929 24.1397 17.0432 24.502 16.7765 24.7694C16.5098 25.0368 16.1479 25.1875 15.7702 25.1885Z" fill="#E50E0F"/>
<path d="M13.5121 23.2782C13.3253 23.2795 13.1408 23.2372 12.9731 23.1548C12.8055 23.0724 12.6594 22.9521 12.5463 22.8034C12.4332 22.6547 12.3563 22.4817 12.3217 22.2981C12.287 22.1146 12.2956 21.9255 12.3467 21.7458L13.3721 18.0604C13.4809 17.6739 13.6902 17.3233 13.9786 17.0441C14.2671 16.7649 14.6245 16.5672 15.0143 16.4712C16.1599 16.1467 17.3586 16.0528 18.5407 16.195L19.971 14.5604C20.0372 14.4846 20.1309 14.4383 20.2313 14.4315C20.3317 14.4248 20.4306 14.4582 20.5064 14.5244C20.5822 14.5907 20.6285 14.6843 20.6353 14.7847C20.642 14.8851 20.6086 14.9841 20.5424 15.0598L20.0959 15.5669L22.8467 17.6063C22.9149 17.6566 22.9643 17.7282 22.9869 17.8099C23.0096 17.8915 23.0041 17.9784 22.9715 18.0566C22.705 18.6432 22.2951 19.1532 21.7797 19.5398C21.3779 19.8475 20.8766 19.9957 20.3721 19.9561L15.858 19.6155C15.8171 19.6125 15.7764 19.6231 15.7421 19.6457C15.7079 19.6683 15.6821 19.7016 15.6689 19.7404L14.6434 22.4874C14.5588 22.7194 14.4048 22.9197 14.2024 23.0612C14.0001 23.2026 13.759 23.2784 13.5121 23.2782ZM17.5645 16.8685C16.7657 16.8873 15.972 17.0003 15.1997 17.2052C14.9398 17.2686 14.7013 17.3996 14.5086 17.585C14.3158 17.7705 14.1757 18.0037 14.1024 18.2609L13.077 21.9463C13.044 22.0592 13.0569 22.1806 13.1129 22.284C13.1688 22.3874 13.2633 22.4646 13.3759 22.4988C13.4868 22.5331 13.6067 22.5236 13.7109 22.4722C13.8151 22.4208 13.8956 22.3315 13.9359 22.2225L14.9424 19.4755C15.0125 19.284 15.1432 19.1206 15.3146 19.01C15.4859 18.8994 15.6887 18.8476 15.8921 18.8625L20.4061 19.2031C20.7235 19.2289 21.039 19.1359 21.2915 18.942C21.6238 18.6911 21.905 18.379 22.1202 18.0225L19.5737 16.1306L18.9418 16.8534C18.8958 16.906 18.836 16.9448 18.7692 16.9655C18.7024 16.9862 18.6312 16.988 18.5634 16.9706C18.2356 16.8975 17.9004 16.8632 17.5645 16.8685Z" fill="#E50E0F"/>
<path d="M20.224 15.207C19.3083 15.1861 18.3975 15.0668 17.5073 14.8513C17.2511 14.7858 17.0298 14.6244 16.889 14.4006C16.7482 14.1767 16.6987 13.9074 16.7505 13.6481C16.7955 13.408 16.923 13.1911 17.1109 13.0349C17.2988 12.8788 17.5354 12.7932 17.7797 12.793C17.8561 12.7941 17.9321 12.803 18.0067 12.8195C19.1759 13.0958 20.3915 13.1113 21.5673 12.8649C21.617 12.8514 21.6688 12.8479 21.7199 12.8546C21.7709 12.8612 21.8201 12.8778 21.8648 12.9034C21.9094 12.9291 21.9485 12.9633 21.9799 13.0041C22.0113 13.0448 22.0344 13.0914 22.0478 13.1411C22.0612 13.1908 22.0647 13.2426 22.0581 13.2937C22.0515 13.3447 22.0349 13.3939 22.0092 13.4386C21.9836 13.4832 21.9494 13.5223 21.9086 13.5537C21.8679 13.5851 21.8213 13.6082 21.7716 13.6216C20.4652 13.9012 19.1128 13.8844 17.8138 13.5724H17.7532C17.6856 13.5731 17.6203 13.5972 17.5685 13.6407C17.5168 13.6842 17.4817 13.7443 17.4694 13.8108C17.4565 13.8808 17.4703 13.9531 17.5082 14.0133C17.546 14.0736 17.6051 14.1175 17.6738 14.1362C18.5106 14.3395 19.3669 14.4524 20.2278 14.473C20.3282 14.473 20.4244 14.5128 20.4954 14.5838C20.5663 14.6548 20.6062 14.751 20.6062 14.8513C20.6062 14.9517 20.5663 15.0479 20.4954 15.1189C20.4244 15.1899 20.3282 15.2297 20.2278 15.2297L20.224 15.207Z" fill="#E50E0F"/>
<path d="M21.6762 13.6213C21.6185 13.6215 21.5616 13.6086 21.5097 13.5834C21.4649 13.5616 21.4249 13.5312 21.3919 13.4939C21.3589 13.4566 21.3335 13.4132 21.3174 13.366C21.3012 13.3189 21.2945 13.2691 21.2976 13.2194C21.3008 13.1697 21.3137 13.1211 21.3356 13.0764C21.3735 12.9969 22.2816 11.1845 23.708 10.4277C23.752 10.4002 23.8012 10.382 23.8525 10.3743C23.9038 10.3666 23.9561 10.3695 24.0062 10.3829C24.0564 10.3963 24.1032 10.4198 24.1438 10.452C24.1845 10.4842 24.2181 10.5245 24.2425 10.5702C24.267 10.616 24.2817 10.6663 24.2859 10.718C24.2901 10.7697 24.2836 10.8217 24.2668 10.8708C24.2501 10.9199 24.2234 10.965 24.1884 11.0034C24.1535 11.0417 24.111 11.0724 24.0637 11.0937C22.8491 11.7294 22.0243 13.3942 22.0167 13.4094C21.9855 13.473 21.937 13.5267 21.8768 13.5641C21.8166 13.6016 21.7471 13.6214 21.6762 13.6213Z" fill="#E50E0F"/>
<path d="M22.6036 18.2866C22.5279 18.2863 22.4539 18.2633 22.3913 18.2205C22.3288 18.1777 22.2805 18.1171 22.2528 18.0466C22.2251 17.9761 22.2192 17.8988 22.2358 17.8249C22.2525 17.751 22.291 17.6838 22.3463 17.632C22.3842 17.5941 26.1301 14.0828 25.4339 11.2714C25.4186 11.2221 25.4136 11.1701 25.4192 11.1187C25.4248 11.0674 25.4409 11.0177 25.4664 10.9727C25.4919 10.9278 25.5263 10.8886 25.5676 10.8575C25.6089 10.8264 25.6561 10.8041 25.7063 10.7919C25.7565 10.7797 25.8087 10.778 25.8596 10.7867C25.9105 10.7955 25.9591 10.8146 26.0024 10.8429C26.0456 10.8712 26.0826 10.908 26.1111 10.9511C26.1396 10.9942 26.1589 11.0427 26.168 11.0936C26.9512 14.3325 23.0274 18.0293 22.8609 18.1844C22.7912 18.2497 22.6992 18.2862 22.6036 18.2866Z" fill="#E50E0F"/>
<path d="M25.265 11.6308C24.7604 11.6316 24.267 11.4826 23.8471 11.2028C23.4272 10.9231 23.0998 10.525 22.9062 10.0591C22.7126 9.59317 22.6615 9.08028 22.7595 8.58533C22.8575 8.09038 23.1 7.63561 23.4566 7.27857C23.8131 6.92153 24.2675 6.67826 24.7623 6.57955C25.2571 6.48085 25.7701 6.53113 26.2363 6.72404C26.7025 6.91695 27.101 7.24382 27.3814 7.66329C27.6618 8.08276 27.8115 8.57598 27.8115 9.08054C27.8115 9.75626 27.5433 10.4044 27.0659 10.8825C26.5884 11.3607 25.9407 11.6298 25.265 11.6308ZM25.265 7.29081C24.9099 7.29006 24.5627 7.39471 24.2671 7.5915C23.9716 7.78828 23.7412 8.06835 23.6049 8.39623C23.4687 8.7241 23.4329 9.08503 23.502 9.43329C23.5711 9.78155 23.742 10.1015 23.993 10.3525C24.2441 10.6036 24.564 10.7745 24.9122 10.8436C25.2605 10.9126 25.6214 10.8768 25.9493 10.7406C26.2772 10.6044 26.5573 10.3739 26.754 10.0784C26.9508 9.78286 27.0555 9.43558 27.0547 9.08054C27.0537 8.60618 26.8648 8.15154 26.5294 7.81612C26.194 7.48069 25.7394 7.29181 25.265 7.29081Z" fill="#E50E0F"/>
<path d="M22.2249 12.7217C22.1721 12.7215 22.1199 12.7104 22.0717 12.6889C22.0235 12.6674 21.9803 12.636 21.9449 12.5968C20.299 10.7844 19.932 7.55681 19.8752 6.92113C19.8488 6.59958 19.9499 6.28055 20.1566 6.03281C20.3632 5.78508 20.659 5.62849 20.9801 5.59681C21.3006 5.57063 21.6184 5.67264 21.8639 5.88047C22.1093 6.0883 22.2623 6.38499 22.2893 6.70546C22.3687 7.77248 22.8076 9.83843 23.659 10.8676C23.6788 10.8939 23.6965 10.9218 23.712 10.9509C23.7469 11.023 23.7581 11.1044 23.7438 11.1833C23.7295 11.2622 23.6905 11.3345 23.6325 11.3898C23.5616 11.4603 23.4657 11.4998 23.3657 11.4998C23.2658 11.4998 23.1699 11.4603 23.099 11.3898C23.0831 11.3752 23.0692 11.3586 23.0574 11.3406C22.0282 10.0806 21.6082 7.81789 21.5439 6.80005C21.5391 6.7405 21.5226 6.68248 21.4952 6.62938C21.4678 6.57629 21.4301 6.52918 21.3843 6.49079C21.3385 6.45241 21.2856 6.42351 21.2285 6.4058C21.1714 6.38809 21.1114 6.38191 21.052 6.38762C20.9325 6.39915 20.8223 6.45717 20.7451 6.54918C20.668 6.64119 20.63 6.75982 20.6395 6.87951C20.6925 7.47356 21.0179 10.4817 22.5314 12.1163C22.5985 12.1906 22.6334 12.2885 22.6284 12.3885C22.6234 12.4885 22.579 12.5825 22.5049 12.6498C22.4248 12.7099 22.3241 12.7357 22.2249 12.7217Z" fill="#E50E0F"/>
<path d="M15.7912 5.95198C15.7158 5.95215 15.642 5.92975 15.5794 5.88765L13.8767 4.72603C13.8107 4.67999 13.7611 4.61413 13.7351 4.538C13.7091 4.46187 13.7081 4.37944 13.7321 4.30267C13.7562 4.22591 13.8041 4.1588 13.8688 4.1111C13.9336 4.0634 14.0119 4.03757 14.0923 4.03738H16.2453L17.0929 1.76711C17.1175 1.69622 17.1627 1.63426 17.2227 1.58912C17.2826 1.54398 17.3547 1.51769 17.4296 1.5136C17.5068 1.50588 17.5845 1.52206 17.6522 1.55996C17.7199 1.59786 17.7743 1.65565 17.808 1.72549L18.5912 3.40549L21.1604 2.16063C21.2183 2.13306 21.2823 2.12065 21.3463 2.12456C21.4103 2.12848 21.4722 2.14859 21.5263 2.18301C21.5804 2.21743 21.6248 2.26503 21.6555 2.32135C21.6861 2.37766 21.702 2.44084 21.7015 2.50495V4.04495H24.7588C24.8277 4.0455 24.895 4.06481 24.9537 4.10082C25.0124 4.13682 25.0601 4.18815 25.0918 4.24928C25.1211 4.3091 25.134 4.37559 25.1294 4.44202C25.1247 4.50846 25.1026 4.57249 25.0653 4.62765L24.4372 5.52441C24.4138 5.57517 24.3795 5.62012 24.3366 5.65603C24.2938 5.69194 24.2436 5.71792 24.1895 5.7321C24.1355 5.74627 24.0789 5.7483 24.024 5.73803C23.969 5.72776 23.9171 5.70544 23.8718 5.67269C23.8265 5.63993 23.789 5.59755 23.7621 5.5486C23.7351 5.49964 23.7193 5.44531 23.7159 5.38953C23.7124 5.33375 23.7214 5.2779 23.7421 5.22598C23.7627 5.17406 23.7947 5.12738 23.8356 5.08928L24.0475 4.79414H21.3231C21.2228 4.79414 21.1265 4.75428 21.0556 4.68332C20.9846 4.61236 20.9448 4.51611 20.9448 4.41576V3.09901L18.5799 4.23414C18.49 4.27729 18.3867 4.28321 18.2925 4.25062C18.1982 4.21803 18.1207 4.14955 18.0767 4.06009L17.494 2.86441L16.8621 4.54063C16.835 4.61305 16.7864 4.67544 16.7228 4.71942C16.6592 4.76339 16.5837 4.78682 16.5064 4.78657H15.3183L16.0031 5.25576C16.0444 5.28355 16.0798 5.3192 16.1073 5.36069C16.1348 5.40218 16.1539 5.44868 16.1633 5.49754C16.1728 5.54639 16.1726 5.59664 16.1626 5.64541C16.1527 5.69417 16.1332 5.74049 16.1053 5.78171C16.071 5.83376 16.0244 5.87654 15.9696 5.90624C15.9148 5.93594 15.8536 5.95166 15.7912 5.95198Z" fill="#43BF41"/>
<path d="M14.857 13.8215C14.8256 13.8252 14.7939 13.8252 14.7625 13.8215C14.7121 13.806 14.6656 13.7802 14.6259 13.7456C14.5861 13.7111 14.554 13.6687 14.5316 13.621L13.7068 12.221L11.6825 12.9097C11.6134 12.9326 11.5392 12.9352 11.4688 12.9171C11.3983 12.899 11.3346 12.8609 11.2852 12.8075C11.2354 12.7541 11.2022 12.6875 11.1894 12.6157C11.1767 12.5438 11.1849 12.4699 11.2133 12.4026L12.0079 10.5372C12.0276 10.4914 12.0562 10.4499 12.0921 10.4152C12.1279 10.3805 12.1702 10.3532 12.2167 10.3349C12.2631 10.3166 12.3127 10.3077 12.3625 10.3087C12.4124 10.3096 12.4616 10.3204 12.5073 10.3405C12.5989 10.3804 12.671 10.4549 12.7079 10.5477C12.7447 10.6406 12.7434 10.7443 12.7041 10.8361L12.2425 11.9221L13.756 11.4075C13.8387 11.3789 13.9288 11.3798 14.0109 11.4102C14.093 11.4405 14.162 11.4984 14.2062 11.574L14.9895 12.9172L16.6241 11.9259C16.7095 11.874 16.8119 11.8581 16.909 11.8815C17.0061 11.9049 17.09 11.9657 17.1424 12.0507C17.1965 12.1351 17.2149 12.2374 17.1936 12.3353C17.1723 12.4332 17.1131 12.5186 17.0289 12.5729L15.0652 13.7648C15.0028 13.8035 14.9305 13.8232 14.857 13.8215Z" fill="#E50E0F"/>
</svg>
