<svg width="28" height="28" viewBox="0 0 28 28" fill="none" xmlns="http://www.w3.org/2000/svg">
<path d="M11.3737 28H16.6267H16.6272C21.6842 27.9991 25.7981 23.8906 25.8103 18.837C25.8108 18.8287 25.8151 18.8226 25.8151 18.8143V6.12413C25.8151 4.43494 24.4409 3.06075 22.7518 3.06075H22.7168C22.5037 1.58025 21.2293 0.4375 19.6906 0.4375H16.1892C16.1892 0.195563 15.9937 0 15.7518 0H12.2518C12.0098 0 11.8143 0.195563 11.8143 0.4375H8.30288C6.76375 0.4375 5.48975 1.58025 5.27669 3.06075H5.25087C3.56169 3.06075 2.1875 4.43494 2.1875 6.12413V11.375V12.2509V18.8134C2.1875 23.8787 6.30831 28 11.3737 28ZM11.3724 24.4991C11.3711 24.4991 11.3702 24.5 11.3693 24.5C8.53737 24.4974 6.19019 22.4127 5.76363 19.6984C5.94519 19.1739 6.43913 18.8134 7.00131 18.8134H21.0022C21.5604 18.8134 22.0531 19.1708 22.2368 19.691C21.8129 22.4105 19.4618 24.5 16.6254 24.5C16.625 24.5 16.6246 24.5004 16.6241 24.5004C15.6603 24.5017 14.8768 25.2857 14.8768 26.25C14.8768 26.5698 14.9695 26.8664 15.12 27.125H12.8787C13.0301 26.8664 13.1228 26.5694 13.1228 26.2491C13.1224 25.284 12.3375 24.4991 11.3724 24.4991ZM9.25706 10.9572C9.45919 11.7001 10.1329 12.2509 10.9393 12.2509H17.0647C17.8706 12.2509 18.5443 11.7001 18.7464 10.9572C20.7445 11.1444 22.3143 12.8292 22.3143 14.8759V18.3781C21.9441 18.1007 21.4874 17.9384 21.0022 17.9384H7.00087H7.00044C6.51481 17.9384 6.05894 18.1011 5.68925 18.3781V14.8759C5.68925 12.8292 7.25856 11.1444 9.25706 10.9572ZM19.6906 1.3125C20.7463 1.3125 21.6296 2.06456 21.8326 3.06075H21.3767C21.1811 2.30912 20.5026 1.75 19.6906 1.75H16.1892V1.3125H19.6906ZM16.1892 2.625H19.6906C20.0121 2.625 20.2904 2.80131 20.4426 3.06075H16.1892V2.625ZM12.6893 0.875H15.3143V3.06075H12.6893V0.875ZM7.55081 3.06075C7.70306 2.80131 7.98088 2.625 8.30288 2.625H11.8143V3.06075H7.55081ZM8.30288 1.3125H11.8143V1.75H8.30288C7.49088 1.75 6.81231 2.30912 6.61675 3.06075H6.16088C6.36388 2.06456 7.24719 1.3125 8.30288 1.3125ZM3.0625 12.2509V11.375V6.12413C3.0625 4.9175 4.04425 3.93575 5.25087 3.93575H12.2518H15.7518H22.7518C23.9584 3.93575 24.9401 4.9175 24.9401 6.12413V18.7972C24.9397 18.8033 24.9366 18.8081 24.9366 18.8143C24.9366 23.3966 21.2087 27.1246 16.6263 27.125C16.1442 27.1246 15.7518 26.7326 15.7518 26.25C15.7518 25.7674 16.1442 25.375 16.6267 25.375H16.6272C19.9181 25.3741 22.6433 22.9351 23.1088 19.7711C23.1166 19.7413 23.121 19.7124 23.1223 19.6814C23.1595 19.4023 23.1849 19.1201 23.1858 18.8313C23.1862 18.8252 23.1893 18.8204 23.1893 18.8143V14.8759C23.1893 12.2224 21.0302 10.0634 18.3768 10.0634C18.1348 10.0634 17.9392 10.2589 17.9392 10.5009C17.9392 10.9834 17.5472 11.3759 17.0647 11.3759H10.9393C10.4567 11.3759 10.0643 10.9834 10.0643 10.5009C10.0643 10.2589 9.86869 10.0634 9.62675 10.0634C6.97331 10.0634 4.81425 12.2224 4.81425 14.8759V18.8046C4.81425 18.8077 4.8125 18.8103 4.8125 18.8134C4.8125 19.1126 4.83962 19.4049 4.87856 19.6932C4.87987 19.7225 4.88425 19.7501 4.89125 19.7781C5.36069 22.9394 8.08456 25.375 11.3737 25.375C11.3746 25.375 11.3754 25.3746 11.3763 25.3746C11.8567 25.3768 12.2474 25.7679 12.2474 26.2491C12.2474 26.7317 11.8549 27.1241 11.3724 27.1241C11.3711 27.1241 11.3702 27.125 11.3693 27.125C6.78869 27.1224 3.0625 23.3953 3.0625 18.8134V12.2509Z" fill="#43BF41"/>
<path d="M10.5 8.75H17.5009C17.7428 8.75 17.9384 8.55444 17.9384 8.3125V6.125C17.9384 5.88306 17.7428 5.6875 17.5009 5.6875H10.5C10.2581 5.6875 10.0625 5.88306 10.0625 6.125V8.3125C10.0625 8.55444 10.2581 8.75 10.5 8.75ZM10.9375 6.5625H17.0634V7.875H10.9375V6.5625Z" fill="#E50E0F"/>
</svg>
