<svg width="28" height="28" viewBox="0 0 28 28" fill="none" xmlns="http://www.w3.org/2000/svg">
<g clip-path="url(#clip0)">
<path d="M25.4935 16.8799C25.72 16.8799 25.9037 16.6961 25.9037 16.4697V15.6735C25.9037 12.5002 23.9937 9.76492 21.2632 8.5556C21.2587 8.55347 21.254 8.55154 21.2493 8.54941C21.2078 8.53104 21.1662 8.51288 21.1241 8.49536C20.7323 8.33002 20.3283 8.198 19.9143 8.10016L20.0748 6.37088L23.7775 6.94958C23.7984 6.95279 23.8196 6.9545 23.8407 6.9545C23.9317 6.9545 24.021 6.92416 24.0937 6.86713C24.1832 6.79706 24.2396 6.69302 24.2494 6.5798L24.7805 0.445618C24.7903 0.331116 24.7518 0.217682 24.6741 0.133087C24.5963 0.0482788 24.4867 3.11627e-08 24.3718 3.11627e-08H19.7067C19.5354 3.11627e-08 19.382 0.106598 19.3224 0.267242L18.8676 1.4913L18.3906 0.261902C18.3295 0.104034 18.1774 3.11627e-08 18.0082 3.11627e-08H13.4948C13.3288 3.11627e-08 13.1792 0.0999756 13.1158 0.253357L12.3664 2.06552L11.0928 0.180511C11.0001 0.0431519 10.8339 -0.0245666 10.6715 0.00811773C10.6277 0.0170899 9.58225 0.233917 8.21613 0.955536C6.95896 1.61969 5.17777 2.85849 3.83216 4.98767C3.71103 5.17908 3.76828 5.43243 3.95969 5.55356C4.15131 5.67468 4.40445 5.61743 4.52558 5.42603C6.54987 2.22296 9.66193 1.13754 10.5745 0.878845L12.1141 3.15692C12.1985 3.2821 12.3448 3.35046 12.4952 3.3353C12.6454 3.32013 12.7753 3.22357 12.8329 3.08408L13.769 0.820313H17.7273L18.4933 2.79483C18.5546 2.95291 18.7065 3.05673 18.8757 3.05673H18.8787C19.049 3.05545 19.2008 2.94907 19.2602 2.78949L19.9919 0.820313H23.9247L23.4701 6.07117L19.7701 5.49289C19.7657 5.49225 19.7612 5.49203 19.7567 5.49161C19.752 5.49097 19.7473 5.49011 19.7426 5.48969C16.4242 5.19873 13.4362 6.05386 11.3293 7.897C9.3855 9.59723 8.28491 12.0825 8.14649 15.0839C8.14285 15.1619 8.16165 15.236 8.1969 15.2999C8.19797 15.3018 8.19882 15.304 8.19989 15.3061C8.21292 15.3292 9.48505 17.6833 7.81879 22.4319C7.27426 23.9837 6.3465 25.256 5.06156 26.2139C4.6969 26.4856 4.3534 26.6922 4.06671 26.8441C4.228 26.3017 4.43009 25.5446 4.59928 24.6671C5.05493 22.3046 5.04852 20.2978 4.58005 18.7023C4.49823 18.4235 4.41342 18.1404 4.32755 17.8533C3.31775 14.4796 2.17337 10.6559 3.67472 7.06558C3.70548 6.99231 3.73667 6.91968 3.76828 6.84811C3.85993 6.6409 3.76636 6.39865 3.55914 6.30701C3.35214 6.21536 3.10968 6.30893 3.01804 6.51614C2.98407 6.59283 2.95075 6.67038 2.91785 6.74899C2.19516 8.47742 1.97449 10.3955 2.24323 12.6134C2.47479 14.5242 3.04175 16.4178 3.54163 18.0883C3.62729 18.3741 3.71167 18.6559 3.79306 18.9332C4.82593 22.452 3.0268 27.398 3.00864 27.4476C2.95438 27.5941 2.98813 27.7586 3.09558 27.872C3.1742 27.9551 3.2825 28 3.39337 28C3.43396 28 3.47476 27.994 3.51471 27.9816C3.66254 27.9357 7.15143 26.8108 8.59274 22.7034C9.88922 19.0086 9.51901 16.6485 9.18491 15.5729L10.3427 15.6804V27.4572C10.3427 27.6838 10.5265 27.8673 10.7529 27.8673H25.4935C25.72 27.8673 25.9037 27.6838 25.9037 27.4572V27.025C25.9037 26.9344 25.8736 26.8462 25.8182 26.7744L22.3475 22.277C22.3016 22.2177 22.2401 22.1717 22.1698 22.1448L18.2771 20.6501C18.3235 19.2575 18.7215 18.247 19.4623 17.6444C20.3602 16.914 21.555 16.9608 22.0256 17.0144L23.8741 21.3706C23.9384 21.5221 24.087 21.6206 24.2515 21.6206H25.4935C25.72 21.6206 25.9037 21.4369 25.9037 21.2104V17.9933C25.9037 17.7668 25.72 17.5831 25.4935 17.5831C25.2669 17.5831 25.0834 17.7668 25.0834 17.9933V20.8003H24.523L22.691 16.4827C22.6387 16.3597 22.5297 16.2697 22.3988 16.2418C22.3178 16.2247 20.3967 15.8325 18.9511 17.0029C17.9565 17.808 17.4521 19.1293 17.4521 20.9301C17.4521 21.1 17.5568 21.2521 17.7153 21.313L21.7684 22.8694L24.9924 27.047H14.2869V20.0203C14.2869 18.1693 15.013 16.4238 16.3317 15.1051C17.6504 13.7864 19.3961 13.0603 21.2469 13.0603C22.5434 13.0603 23.8046 13.4228 24.9056 14.1087C25.0229 14.6165 25.0834 15.1405 25.0834 15.6735V16.4697C25.0834 16.6961 25.2669 16.8799 25.4935 16.8799ZM11.8693 8.51459C13.7203 6.89532 16.3327 6.10748 19.2598 6.27689L19.1041 7.95404C18.98 7.93845 18.855 7.92606 18.7296 7.91644C18.7213 7.9158 18.7129 7.91516 18.7046 7.91473C18.6527 7.91089 18.6006 7.90747 18.5482 7.90469C18.5324 7.90384 18.5164 7.90298 18.5006 7.90213C18.4536 7.89999 18.4066 7.89828 18.3596 7.89679C18.3429 7.89636 18.3263 7.89572 18.3096 7.89529C18.2477 7.89401 18.1855 7.89294 18.1233 7.89294C14.1076 7.89294 10.7928 10.951 10.3853 14.8605L8.98987 14.731C9.19046 12.1342 10.1815 9.99072 11.8693 8.51459ZM21.2469 12.24C16.9567 12.24 13.4666 15.7301 13.4666 20.0203V27.047H11.1631V15.6735C11.1631 13.8225 11.8892 12.077 13.2079 10.7583C14.5266 9.43958 16.2723 8.71326 18.1231 8.71326C18.2107 8.71326 18.2979 8.71561 18.385 8.71881C18.4023 8.71945 18.4196 8.71988 18.4369 8.72073C18.5175 8.72415 18.5978 8.72928 18.6779 8.73547C18.7014 8.7374 18.7249 8.73953 18.7486 8.74167C18.8219 8.74808 18.8949 8.75555 18.9678 8.76453C18.9958 8.76773 19.0237 8.77179 19.0517 8.77563C19.1077 8.7829 19.1635 8.79123 19.219 8.79999C19.2515 8.80511 19.2837 8.81003 19.316 8.81558C19.3391 8.81964 19.3619 8.82455 19.385 8.82883C19.3907 8.8299 19.3965 8.83096 19.4025 8.83203C19.4386 8.83865 19.4747 8.84528 19.5108 8.85254C19.5488 8.86023 19.5869 8.86835 19.6247 8.87668C19.6742 8.88779 19.7236 8.89932 19.7727 8.91129C19.8231 8.92368 19.8733 8.93649 19.9233 8.94995C19.9637 8.96085 20.0038 8.97195 20.044 8.98349C20.0912 8.99716 20.1384 9.01105 20.1852 9.02579C20.2371 9.04181 20.2886 9.05847 20.3401 9.07599C20.373 9.0871 20.4059 9.09842 20.4386 9.10995C20.505 9.13367 20.571 9.15802 20.6366 9.18365C20.6601 9.19263 20.6834 9.20224 20.7067 9.21164C20.7755 9.23941 20.844 9.26782 20.912 9.29794C20.9188 9.30093 20.9254 9.30371 20.9323 9.3067C21.0147 9.34344 21.0965 9.38211 21.1777 9.42206C21.1835 9.42505 21.1892 9.42783 21.195 9.4306C21.6229 9.64359 22.032 9.9025 22.4171 10.2063C23.3453 10.9379 24.0755 11.8977 24.5335 12.9729C23.5083 12.4912 22.3898 12.24 21.2469 12.24Z" fill="#E50E0F"/>
<path fill-rule="evenodd" clip-rule="evenodd" d="M19.9236 7.99963H19L18.8538 7.92654C18.8125 7.92274 18.771 7.91925 18.7296 7.91608L18.7296 7.91608C18.7213 7.91544 18.7129 7.91479 18.7046 7.91437C18.6527 7.91052 18.6006 7.9071 18.5482 7.90433L18.5006 7.90176C18.4536 7.89963 18.4066 7.89792 18.3596 7.89642L18.3096 7.89493C18.2477 7.89365 18.1855 7.89258 18.1233 7.89258C14.1076 7.89258 10.7928 10.9506 10.3853 14.8601L10 14.8244V15.4996V15.6482L10.3427 15.68V27.4568C10.3427 27.6835 10.5265 27.867 10.7529 27.867H25.4935C25.72 27.867 25.9037 27.6835 25.9037 27.4568V27.0247C25.9037 26.9341 25.8736 26.8459 25.8182 26.7741L22.3475 22.2767C22.3016 22.2173 22.2401 22.1714 22.1698 22.1444L18.2771 20.6497C18.3235 19.2571 18.7215 18.2467 19.4623 17.644C20.3602 16.9137 21.555 16.9604 22.0256 17.0141L23.8741 21.3703C23.9384 21.5217 24.087 21.6202 24.2515 21.6202H25.4935C25.72 21.6202 25.9037 21.4365 25.9037 21.2101V17.9929C25.9037 17.7664 25.72 17.5827 25.4935 17.5827C25.2669 17.5827 25.0834 17.7664 25.0834 17.9929V20.7999H24.523L22.691 16.4824C22.6387 16.3593 22.5297 16.2694 22.3988 16.2414C22.3178 16.2243 20.3967 15.8321 18.9511 17.0025C17.9565 17.8077 17.4521 19.1289 17.4521 20.9298C17.4521 21.0996 17.5568 21.2517 17.7153 21.3126L21.7684 22.869L24.9924 27.0467H14.2869V20.02C14.2869 18.1689 15.013 16.4234 16.3317 15.1047C17.6504 13.786 19.3961 13.0599 21.2469 13.0599C22.5434 13.0599 23.8046 13.4224 24.9056 14.1084C25.0229 14.6161 25.0834 15.1402 25.0834 15.6732V16.4693C25.0834 16.6958 25.2669 16.8795 25.4935 16.8795C25.72 16.8795 25.9037 16.6958 25.9037 16.4693V15.6732C25.9037 12.4998 23.9937 9.76456 21.2632 8.55524C21.2605 8.55398 21.2578 8.55279 21.255 8.55159C21.2531 8.55076 21.2512 8.54992 21.2493 8.54904C21.2078 8.53067 21.1662 8.51251 21.1241 8.495C20.7323 8.32965 20.3283 8.19763 19.9143 8.09979L19.9236 7.99963ZM13.4666 20.02C13.4666 15.7298 16.9567 12.2396 21.2469 12.2396C22.3898 12.2396 23.5083 12.4908 24.5335 12.9725C24.0755 11.8974 23.3453 10.9376 22.4171 10.2059C22.032 9.90213 21.6229 9.64322 21.195 9.43024C21.1892 9.42746 21.1835 9.42468 21.1777 9.42169C21.0965 9.38174 21.0147 9.34308 20.9323 9.30634L20.912 9.29758C20.844 9.26746 20.7755 9.23904 20.7067 9.21127C20.7014 9.20914 20.6961 9.207 20.6908 9.20485C20.6728 9.19754 20.6548 9.19022 20.6366 9.18329C20.571 9.15765 20.505 9.1333 20.4386 9.10959C20.4059 9.09805 20.373 9.08673 20.3401 9.07562C20.2886 9.05811 20.2371 9.04144 20.1852 9.02542C20.1384 9.01068 20.0912 8.9968 20.044 8.98312C20.0038 8.97159 19.9637 8.96048 19.9233 8.94958C19.8733 8.93613 19.8231 8.92331 19.7727 8.91092C19.7236 8.89896 19.6742 8.88742 19.6247 8.87631C19.5869 8.86798 19.5488 8.85986 19.5108 8.85217C19.4747 8.84491 19.4386 8.83829 19.4025 8.83167L19.385 8.82846C19.375 8.82661 19.3651 8.82465 19.3551 8.82268C19.3421 8.8201 19.3291 8.81752 19.316 8.81522C19.2908 8.81088 19.2656 8.80694 19.2403 8.80297C19.2332 8.80186 19.2261 8.80075 19.219 8.79962C19.1635 8.79086 19.1077 8.78253 19.0517 8.77527C19.0461 8.7745 19.0405 8.77372 19.0349 8.77294C19.0126 8.76983 18.9902 8.76672 18.9678 8.76416C18.8949 8.75519 18.8219 8.74771 18.7486 8.7413L18.7427 8.74077C18.721 8.73881 18.6994 8.73687 18.6779 8.73511C18.5978 8.72891 18.5175 8.72379 18.4369 8.72037C18.4254 8.7198 18.4138 8.71942 18.4023 8.71904C18.3965 8.71885 18.3908 8.71866 18.385 8.71844C18.2979 8.71524 18.2107 8.71289 18.1231 8.71289C16.2723 8.71289 14.5266 9.43921 13.2079 10.7579C11.8892 12.0766 11.1631 13.8221 11.1631 15.6732V27.0467H13.4666V20.02Z" fill="#43BF41"/>
</g>
<defs>
<clipPath id="clip0">
<rect width="28" height="28" fill="white"/>
</clipPath>
</defs>
</svg>
