<svg width="28" height="28" viewBox="0 0 28 28" fill="none" xmlns="http://www.w3.org/2000/svg">
<g clip-path="url(#clip0)">
<path d="M27.34 9.25782L26.7764 8.69421C26.5927 8.51052 26.3776 8.37713 26.1484 8.29313C26.4795 7.64131 26.3733 6.82264 25.829 6.27834L24.9181 5.36741C24.6758 5.12514 24.3744 4.96354 24.0465 4.89557C24.0649 4.79357 24.0748 4.68929 24.0748 4.58347C24.0748 4.11977 23.8942 3.68386 23.5663 3.3559L22.6554 2.44502C22.2042 1.99396 21.5646 1.8439 20.9876 1.99412C20.9129 1.70362 20.7624 1.42876 20.5354 1.20176L19.9942 0.660515C19.1135 -0.220172 17.6804 -0.220172 16.7997 0.660515L14.8983 2.56189L14.0999 2.06987C13.2086 1.52037 12.0323 1.75673 11.4221 2.60766L8.94233 6.06626C8.21477 7.08115 7.87007 8.3254 7.97185 9.56992L8.18737 12.2055C7.85722 12.2619 7.54075 12.4168 7.28639 12.671L5.29566 14.6618C4.4287 15.5288 4.29975 16.858 4.90777 17.8632L0.164072 22.6069C-0.0494823 22.8204 -0.0494823 23.1667 0.164072 23.3803C0.270876 23.4871 0.410821 23.5405 0.550767 23.5405C0.690712 23.5405 0.830657 23.4871 0.937461 23.3803L5.62745 18.6904L10.5722 23.6352C10.5848 23.6477 10.5978 23.6594 10.6106 23.6716L7.21579 27.0664C7.00224 27.2799 7.00224 27.6262 7.21579 27.8398C7.3226 27.9465 7.46254 28 7.60249 28C7.74243 28 7.88238 27.9465 7.98918 27.8398L11.5708 24.2582C11.8456 24.3522 12.1331 24.3995 12.4206 24.3995C13.0899 24.3995 13.7593 24.1447 14.2689 23.6352L16.2597 21.6444C16.5454 21.3587 16.7061 20.9947 16.742 20.6208C19.1183 19.8052 21.3074 18.4399 23.0838 16.6635L27.3399 12.4075C28.2084 11.5391 28.2084 10.1261 27.34 9.25782ZM23.6905 5.95273C23.862 5.95273 24.0233 6.01956 24.1446 6.1408L25.0555 7.05173C25.3059 7.30209 25.3059 7.70951 25.0555 7.95992L23.6132 9.4022L21.7941 7.58307L23.2364 6.1408C23.3577 6.0195 23.519 5.95273 23.6905 5.95273ZM23.2798 10.6155L20.7811 13.1143C20.3342 13.5612 19.6071 13.5612 19.1602 13.1143L15.3458 9.29993C14.8989 8.85308 14.8989 8.12585 15.3458 7.67899L17.8423 5.18257C17.8688 5.20718 17.8956 5.2314 17.9212 5.257L23.2798 10.6155ZM20.5354 3.65679C20.5355 3.65668 20.5356 3.65651 20.5358 3.6564L20.9737 3.21847C21.095 3.09717 21.2562 3.0304 21.4278 3.0304C21.5993 3.0304 21.7606 3.09722 21.8819 3.21847L22.7927 4.12934C22.914 4.25064 22.9808 4.41191 22.9808 4.58347C22.9808 4.75502 22.914 4.91629 22.7927 5.03759L22.4629 5.36741C22.4629 5.36741 21.5547 6.27566 21.5544 6.27588L21.0207 6.80963L19.2016 4.9905L20.5354 3.65679ZM17.5731 1.43391C18.0274 0.979671 18.7666 0.979616 19.2208 1.43385L19.762 1.97509C19.8833 2.09639 19.9501 2.25766 19.9501 2.42916C19.9501 2.60061 19.8833 2.76183 19.7622 2.88307C19.7622 2.88307 18.9624 3.68287 18.9623 3.68293L18.4154 4.2298C17.7626 3.69042 16.9511 3.36897 16.1109 3.30979C16.1029 3.30427 16.0948 3.29902 16.0866 3.29388L15.8556 3.15153L17.5731 1.43391ZM11.5276 21.6149L10.8133 22.3293L6.44295 17.959L7.15728 17.2446C7.55239 16.8494 8.19552 16.8494 8.59063 17.2446L11.5277 20.1816C11.9229 20.5768 11.9229 21.2197 11.5276 21.6149ZM15.4863 20.8709L13.4955 22.8617C12.9858 23.3715 12.2011 23.4423 11.6144 23.0752L12.3011 22.3884C13.1226 21.5668 13.1226 20.2298 12.3011 19.4081L9.36402 16.4711C8.54235 15.6495 7.2054 15.6495 6.38378 16.4711L5.74683 17.1081C5.51042 16.5538 5.61755 15.8867 6.06911 15.4352L8.05978 13.4444C8.17332 13.3309 8.32245 13.2742 8.47158 13.2742C8.62071 13.2742 8.76979 13.3309 8.88327 13.4444L15.4862 20.0474C15.7133 20.2745 15.7133 20.6439 15.4863 20.8709ZM23.3007 14.8999L22.3104 15.8901C20.6856 17.515 18.6908 18.7719 16.5244 19.5387L16.2598 19.2741C16.2598 19.2741 16.2598 19.2741 16.2598 19.274L13.4783 16.4926L9.29315 12.3075L9.06198 9.48067C8.98127 8.49417 9.25454 7.50793 9.83116 6.70359L12.311 3.24499C12.5878 2.85884 13.1215 2.75171 13.5261 3.00097L14.4245 3.55463C13.8837 3.75676 13.3866 4.0735 12.9766 4.4835L11.9502 5.50993C11.7366 5.72348 11.7366 6.06976 11.9502 6.28337C12.1638 6.49687 12.51 6.49687 12.7236 6.28337L13.7501 5.25689C14.2044 4.80254 14.8054 4.50515 15.4422 4.4194C15.9342 4.35334 16.4318 4.41634 16.8877 4.59025L14.5724 6.90555C13.699 7.77891 13.699 9.19996 14.5724 10.0734L18.3867 13.8877C18.8234 14.3243 19.3971 14.5427 19.9706 14.5427C20.5442 14.5427 21.1179 14.3244 21.5546 13.8877L23.9152 11.527C24.0508 11.827 24.1382 12.1489 24.17 12.4803C24.2562 13.3794 23.9394 14.2613 23.3007 14.8999ZM26.5665 11.634L25.2745 12.926C25.2813 12.7439 25.2763 12.5603 25.2586 12.3761C25.1819 11.5761 24.8693 10.8159 24.369 10.1934L25.0946 9.46771C25.345 9.21741 25.7525 9.2173 26.0028 9.46771L26.5664 10.0313C27.0085 10.4731 27.0085 11.1921 26.5665 11.634Z" fill="#43BF41"/>
<path d="M18.9726 24.4972C18.8709 24.3955 18.7298 24.3369 18.5859 24.3369C18.4416 24.3369 18.301 24.3954 18.1994 24.4972C18.0971 24.5989 18.0391 24.74 18.0391 24.8838C18.0391 25.0276 18.0971 25.1687 18.1994 25.2704C18.301 25.3721 18.4416 25.4307 18.5859 25.4307C18.7298 25.4307 18.8709 25.3722 18.9726 25.2704C19.0743 25.1687 19.1328 25.0276 19.1328 24.8838C19.1328 24.74 19.0744 24.5989 18.9726 24.4972Z" fill="#E50E0F"/>
<path d="M25.8937 17.5771C25.6801 17.3636 25.3339 17.3636 25.1203 17.5771L19.6172 23.0803C19.4036 23.2939 19.4036 23.6402 19.6172 23.8538C19.724 23.9605 19.8639 24.014 20.0039 24.014C20.1438 24.014 20.2838 23.9605 20.3906 23.8538L25.8937 18.3506C26.1073 18.1371 26.1073 17.7908 25.8937 17.5771Z" fill="#E50E0F"/>
<path d="M5.46464 7.87009C5.25103 7.65659 4.90485 7.65659 4.69119 7.87009L1.71095 10.8503C1.49739 11.0639 1.49739 11.4102 1.71095 11.6238C1.81775 11.7306 1.9577 11.7839 2.0977 11.7839C2.2377 11.7839 2.37759 11.7305 2.48439 11.6238L5.46464 8.64353C5.67819 8.43003 5.67819 8.08369 5.46464 7.87009Z" fill="#E50E0F"/>
<path d="M6.95636 6.37996C6.85469 6.27824 6.71409 6.21973 6.56977 6.21973C6.42588 6.21973 6.28479 6.27819 6.18313 6.37996C6.08141 6.48168 6.02344 6.62272 6.02344 6.7666C6.02344 6.91043 6.08141 7.05152 6.18313 7.15319C6.28534 7.25496 6.42588 7.31347 6.56977 7.31347C6.7136 7.31347 6.85469 7.25496 6.95636 7.15319C7.05862 7.05152 7.11714 6.91043 7.11714 6.7666C7.11714 6.62277 7.05862 6.48168 6.95636 6.37996Z" fill="#E50E0F"/>
<path d="M16.5927 24.0928C16.3791 23.8792 16.033 23.8792 15.8193 24.0928L12.9531 26.959C12.7396 27.1726 12.7396 27.5188 12.9531 27.7325C13.0599 27.8392 13.1999 27.8926 13.3398 27.8926C13.4798 27.8926 13.6197 27.8392 13.7265 27.7325L16.5927 24.8662C16.8062 24.6527 16.8062 24.3064 16.5927 24.0928Z" fill="#E50E0F"/>
</g>
<defs>
<clipPath id="clip0">
<rect width="28" height="28" fill="white"/>
</clipPath>
</defs>
</svg>
