<svg width="28" height="28" viewBox="0 0 28 28" fill="none" xmlns="http://www.w3.org/2000/svg">
<path d="M20.887 3.30504C22.4832 3.30504 23.7819 2.00643 23.7819 0.410156C23.7819 0.183586 23.5983 0 23.3718 0H18.8094C18.5828 0 18.3992 0.183586 18.3992 0.410156C18.3992 0.636727 18.5828 0.820312 18.8094 0.820312H22.9209C22.7299 1.76843 21.8905 2.48473 20.8871 2.48473H7.11748C6.11397 2.48473 5.27463 1.76843 5.08366 0.820312H16.8179C17.0445 0.820312 17.2281 0.636727 17.2281 0.410156C17.2281 0.183586 17.0445 0 16.8179 0H4.63281C4.40624 0 4.22266 0.183586 4.22266 0.410156C4.22266 2.00638 5.52127 3.30504 7.11754 3.30504H12.5278V4.9519C11.084 5.17377 9.98809 6.50814 10.0657 8.01888C10.0657 10.1031 9.25741 12.1149 7.78959 13.6837C6.31057 15.2645 5.49605 17.3279 5.49605 19.4937C5.496 24.1841 9.31187 28 14.0023 28C18.6926 28 22.5085 24.1841 22.5085 19.4937C22.5085 17.7172 21.9663 16.0152 20.9406 14.5719C20.8094 14.3872 20.5534 14.3439 20.3686 14.4751C20.184 14.6063 20.1407 14.8624 20.2719 15.047C21.1984 16.3508 21.6881 17.8884 21.6881 19.4937C21.6881 22.9918 19.339 25.9512 16.1356 26.8782C17.0399 25.8398 17.7245 24.1499 18.0423 22.1048L18.2622 22.3247C18.3424 22.4048 18.4474 22.4448 18.5523 22.4448C18.6573 22.4448 18.7623 22.4048 18.8424 22.3247C19.0026 22.1645 19.0026 21.9049 18.8424 21.7447L18.3206 21.2229L18.8424 20.7011C19.0026 20.5409 19.0026 20.2812 18.8424 20.1211C18.7227 19.998 18.4143 19.9474 18.2263 20.1571C18.2393 19.7841 18.2444 19.3195 18.226 18.828C18.3517 18.9658 18.618 19.0716 18.8424 18.8643C19.0026 18.7041 19.0026 18.4445 18.8424 18.2843L18.3207 17.7625L18.8424 17.2407C19.0026 17.0805 19.0026 16.8208 18.8424 16.6607C18.6822 16.5005 18.4225 16.5005 18.2624 16.6607L18.0408 16.8822C17.9102 16.0482 17.7163 15.2581 17.4626 14.5353C16.7336 12.4588 16.3475 10.3471 16.3118 8.25327H17.1217C17.1735 10.163 17.8574 12.0511 19.0607 13.5945C19.2 13.7732 19.4577 13.8051 19.6363 13.6659C19.8149 13.5266 19.8469 13.2688 19.7076 13.0902C18.567 11.6271 17.9388 9.82614 17.9388 8.01905C18.026 6.53002 16.9295 5.17787 15.4767 4.95206V3.30504H20.887ZM16.6886 14.8069C16.8857 15.3686 17.0439 15.9754 17.1623 16.6138C17.0024 16.5028 16.7812 16.5181 16.6387 16.6606C16.4785 16.8208 16.4785 17.0805 16.6387 17.2407L17.1605 17.7624L16.6387 18.2842C16.4785 18.4445 16.4785 18.7041 16.6387 18.8643C16.7188 18.9444 16.8238 18.9844 16.9288 18.9844C17.0337 18.9844 17.1387 18.9444 17.2188 18.8643L17.3982 18.6849C17.4207 19.1539 17.4266 19.7299 17.3988 20.301L17.2188 20.121C17.0586 19.9609 16.7989 19.9609 16.6387 20.121C16.4786 20.2812 16.4786 20.5409 16.6387 20.7011L17.1605 21.2229L16.6387 21.7446C16.4786 21.9049 16.4786 22.1645 16.6387 22.3247C16.7189 22.4048 16.8239 22.4448 16.9288 22.4448C17.0109 22.4448 17.0929 22.4199 17.1631 22.3709C16.98 23.3623 16.7019 24.271 16.3369 25.0432C15.6952 26.401 14.8443 27.1797 14.0023 27.1797C13.2482 27.1797 12.4939 26.5673 11.8784 25.4553C11.7687 25.2571 11.519 25.1853 11.3209 25.2951C11.1227 25.4048 11.051 25.6544 11.1607 25.8525C11.3782 26.2455 11.6153 26.5882 11.8677 26.8778C8.66487 25.9505 6.31631 22.9914 6.31631 19.4937C6.31631 17.5368 7.05224 15.6724 8.38859 14.2441C9.94412 12.5815 10.8247 10.4622 10.8829 8.25316H11.6928C11.6571 10.347 11.2709 12.4587 10.542 14.5352C10.2883 15.258 10.0943 16.048 9.96381 16.8821L9.74221 16.6605C9.58198 16.5004 9.32232 16.5004 9.16214 16.6605C9.00196 16.8208 9.00196 17.0804 9.16214 17.2406L9.68391 17.7624L9.16214 18.2842C9.00196 18.4444 9.00196 18.7041 9.16214 18.8642C9.30072 18.991 9.57853 19.0552 9.77858 18.8279C9.76518 19.2023 9.76009 19.6654 9.77902 20.1577C9.65892 20.0143 9.38756 19.9359 9.16214 20.1209C9.00196 20.2811 9.00196 20.5408 9.16214 20.701L9.68391 21.2227L9.16214 21.7445C9.00196 21.9048 9.00196 22.1644 9.16214 22.3246C9.24226 22.4046 9.34726 22.4447 9.4522 22.4447C9.55715 22.4447 9.66215 22.4046 9.74227 22.3246L9.96463 22.1022C10.0713 22.7848 10.2199 23.4391 10.4089 24.0489C10.4759 24.2652 10.7054 24.3864 10.922 24.3193C11.1384 24.2522 11.2595 24.0224 11.1924 23.8061C11.0518 23.3523 10.9352 22.8715 10.8426 22.3716C10.9126 22.4201 10.9942 22.4447 11.0759 22.4447C11.1808 22.4447 11.2858 22.4046 11.3659 22.3246C11.5261 22.1644 11.5261 21.9047 11.3659 21.7445L10.8442 21.2227L11.3659 20.701C11.5261 20.5407 11.5261 20.2811 11.3659 20.1209C11.2057 19.9608 10.946 19.9608 10.7859 20.1209L10.6062 20.3005C10.5836 19.8305 10.5782 19.2564 10.6064 18.6847L10.7859 18.8642C10.866 18.9442 10.971 18.9843 11.0759 18.9843C11.1809 18.9843 11.2859 18.9442 11.366 18.8642C11.5262 18.7039 11.5262 18.4443 11.366 18.2841L10.8442 17.7623L11.366 17.2406C11.5262 17.0803 11.5262 16.8207 11.366 16.6605C11.2234 16.518 11.0023 16.5027 10.8424 16.6137C10.9609 15.9753 11.119 15.3685 11.3161 14.8068C12.0759 12.6426 12.4784 10.4395 12.5142 8.25305H15.4907C15.5262 10.4396 15.9288 12.6427 16.6886 14.8069ZM17.0784 7.43285L10.9261 7.4328C11.1174 6.46587 11.9721 5.73459 12.9944 5.73459H15.0101C16.0324 5.73459 16.8871 6.46587 17.0784 7.43285ZM14.6564 4.91427H13.3481V3.30504H14.6564V4.91427Z" fill="#43BF41"/>
</svg>
