<svg width="28" height="28" viewBox="0 0 28 28" fill="none" xmlns="http://www.w3.org/2000/svg">
<path d="M1.74609 25.8121H2.18447V27.5625C2.18447 27.8044 2.38003 28 2.62197 28C2.86391 28 3.05947 27.8044 3.05947 27.5625V25.8121H7.43666V27.5625C7.43666 27.8044 7.63222 28 7.87416 28C8.11609 28 8.31166 27.8044 8.31166 27.5625V25.8121H9.18578V27.5625C9.18578 27.8044 9.38134 28 9.62328 28C9.86522 28 10.0608 27.8044 10.0608 27.5625V25.8121H17.934V27.5625C17.934 27.8044 18.1296 28 18.3715 28C18.6135 28 18.809 27.8044 18.809 27.5625V25.8121H19.6845V27.5625C19.6845 27.8044 19.88 28 20.122 28C20.3639 28 20.5595 27.8044 20.5595 27.5625V25.8121H24.9367V27.5625C24.9367 27.8044 25.1322 28 25.3742 28C25.6161 28 25.8117 27.8044 25.8117 27.5625V25.8121H26.2513C26.4933 25.8121 26.6888 25.6165 26.6888 25.3746V20.1259C26.6888 20.1184 26.6849 20.1128 26.6845 20.1058C26.6823 20.0581 26.6744 20.0108 26.6569 19.9662C26.6552 19.9618 26.6552 19.9574 26.6534 19.9539C26.6368 19.9154 26.6149 19.8787 26.5873 19.8459L24.3977 17.2226C24.315 17.1229 24.1916 17.0656 24.0617 17.0656H18.8152V13.1294C18.8152 13.1158 18.8086 13.1044 18.8073 13.0913C18.7928 11.4459 17.9559 9.96844 16.6277 9.10525L16.6285 7.43881H17.5022C17.7442 7.43881 17.9397 7.24281 17.9397 7.00131V5.68925C17.9397 5.68925 17.9397 5.68925 17.9397 5.68881C17.9397 5.68837 17.9397 5.68881 17.9397 5.68837L17.9393 0.4375C17.9393 0.196 17.7433 0 17.5018 0C17.2598 0 17.0643 0.196 17.0643 0.4375L17.0647 5.25087H10.9423L10.9419 0.4375C10.9419 0.196 10.7459 0 10.5044 0C10.2625 0 10.0669 0.196 10.0669 0.4375L10.0673 7.00088C10.0673 7.24238 10.2629 7.43838 10.5048 7.43838H11.3742L11.3733 9.09956C10.031 9.968 9.18753 11.4621 9.18534 13.1276C9.18534 13.1281 9.18491 13.1285 9.18491 13.1289V17.0511C9.18491 17.0559 9.18228 17.0594 9.18228 17.0638C9.18228 17.0642 9.18272 17.0647 9.18272 17.0651H3.93578C3.80584 17.0651 3.68291 17.1229 3.59978 17.2222L1.41009 19.8454C1.38253 19.8783 1.36066 19.915 1.34403 19.9535C1.34272 19.9574 1.34228 19.9618 1.34097 19.9653C1.32303 20.0104 1.31472 20.0576 1.31297 20.1053C1.31253 20.1123 1.30859 20.118 1.30859 20.1254V25.3741C1.30859 25.6165 1.50416 25.8121 1.74609 25.8121ZM25.8138 24.9371H2.18359V20.5634H25.8138V24.9371ZM10.0603 17.5013H11.3733V17.5092C11.3733 17.871 11.0784 18.1654 10.7162 18.1654C10.3548 18.1654 10.0608 17.871 10.0608 17.5092C10.0608 17.5079 10.0603 17.507 10.0603 17.5061C10.0603 17.5048 10.0608 17.5039 10.0608 17.5026C10.0608 17.5022 10.0603 17.5017 10.0603 17.5013ZM12.8984 17.5013C12.9015 17.5013 12.9041 17.5031 12.9072 17.5031C13.1417 17.5031 13.3617 17.4457 13.5608 17.3508V17.4917C13.5603 17.4978 13.5573 17.5026 13.5573 17.5088C13.5573 17.5232 13.5612 17.5363 13.5617 17.5512C13.5393 17.8929 13.2567 18.165 12.9089 18.165C12.5471 18.165 12.2527 17.8706 12.2527 17.5088C12.2527 17.5061 12.2513 17.5035 12.2509 17.5009H12.8984V17.5013ZM14.4358 17.4834L14.4349 16.0055C14.4353 15.9941 14.4384 15.9832 14.4384 15.9718C14.4384 15.9604 14.4353 15.9495 14.4349 15.9381C14.4528 15.5921 14.7372 15.3156 15.0877 15.3156C15.4499 15.3156 15.7448 15.61 15.7448 15.9718C15.7448 15.9749 15.7465 15.9775 15.7465 15.9806L15.7474 17.5009C15.7474 17.5039 15.7457 17.5066 15.7457 17.5096C15.7457 17.8714 15.4508 18.1659 15.0885 18.1659C14.7412 18.1659 14.459 17.8937 14.4367 17.5521C14.4371 17.5376 14.441 17.5245 14.441 17.5096C14.441 17.5 14.4362 17.4921 14.4358 17.4834ZM16.6215 15.9714C16.6215 15.9705 16.6211 15.9696 16.6211 15.9688C16.6228 15.6082 16.916 15.3156 17.2769 15.3156C17.6392 15.3156 17.934 15.61 17.934 15.9718C17.934 15.9823 17.9393 15.9911 17.9402 16.0011V17.4751C17.9397 17.4843 17.9345 17.4926 17.9345 17.5026C17.9345 17.5035 17.9349 17.5039 17.9349 17.5048C17.9349 17.5066 17.934 17.5074 17.934 17.5092C17.934 17.871 17.6392 18.1654 17.2769 18.1654C16.9168 18.1654 16.6237 17.8736 16.6211 17.514C16.6211 17.5118 16.6224 17.5101 16.6224 17.5079L16.6215 15.9714ZM17.0647 6.12587V6.56337H10.9423V6.12587H17.0647ZM11.9788 9.75144C11.9823 9.75012 11.9849 9.74794 11.988 9.74619C12.2465 9.59394 12.5243 9.46794 12.8205 9.37563C13.0511 9.30344 13.1797 9.058 13.1075 8.82744C13.0353 8.59688 12.789 8.46869 12.5598 8.54044C12.4539 8.57369 12.3507 8.61175 12.2487 8.65156L12.2492 7.43838H15.7535L15.7531 8.65419C15.6529 8.61481 15.5518 8.57719 15.4482 8.54438C15.2172 8.47131 14.9722 8.5995 14.8991 8.82962C14.826 9.05975 14.9538 9.30562 15.1839 9.37869C16.8289 9.89844 17.934 11.4074 17.934 13.1337C17.934 13.1442 17.9393 13.153 17.9402 13.1635V14.5976C17.7385 14.4996 17.5153 14.4406 17.2769 14.4406C16.8482 14.4406 16.461 14.6191 16.1827 14.9043C15.904 14.6195 15.5173 14.4406 15.0877 14.4406C14.6607 14.4406 14.2757 14.6169 13.9974 14.8995C13.727 14.6248 13.3538 14.4532 12.9413 14.4441C12.9295 14.4432 12.919 14.4371 12.9072 14.4371H12.2483V13.5664C12.2483 13.3249 12.0527 13.1289 11.8108 13.1289C11.5688 13.1289 11.3733 13.3249 11.3733 13.5664V14.8746C11.3733 15.1165 11.5688 15.3121 11.8108 15.3121H12.8901C12.8962 15.3125 12.901 15.3156 12.9072 15.3156C13.2576 15.3156 13.542 15.5921 13.5599 15.9381C13.5595 15.9495 13.5564 15.9604 13.5564 15.9718C13.5564 15.9779 13.5595 15.9828 13.5599 15.9889V16.0055C13.542 16.3494 13.2602 16.6246 12.9128 16.6276C12.9111 16.6276 12.9093 16.6263 12.9072 16.6263H10.0599V13.1342C10.0599 11.7163 10.8037 10.4484 11.9788 9.75144ZM4.14053 17.9401H9.25491C9.44259 18.5736 10.0227 19.0404 10.7162 19.0404C11.1462 19.0404 11.5343 18.8611 11.813 18.5749C12.0912 18.8611 12.4788 19.0404 12.9089 19.0404C13.3355 19.0404 13.7209 18.8646 13.9992 18.5824C14.277 18.8646 14.6624 19.0404 15.0885 19.0404C15.5173 19.0404 15.9045 18.8624 16.1832 18.5771C16.4614 18.8619 16.8486 19.0404 17.2769 19.0404C17.9708 19.0404 18.5518 18.5741 18.7395 17.9401H23.8569L25.316 19.6884H2.68147L4.14053 17.9401Z" fill="#43BF41"/>
<path fill-rule="evenodd" clip-rule="evenodd" d="M19 17.0656H18.8152V13.1294C18.8152 13.1218 18.8131 13.115 18.8111 13.1081C18.8095 13.1026 18.8079 13.0971 18.8073 13.0913C18.7928 11.4459 17.9559 9.96844 16.6277 9.10525L16.6285 7.43881H17.5022C17.7442 7.43881 17.9397 7.24281 17.9397 7.00131V5.68925V5.68881V5.68837L17.9393 0.4375C17.9393 0.196 17.7433 0 17.5018 0C17.2598 0 17.0643 0.196 17.0643 0.4375L17.0647 5.25087H10.9423L10.9419 0.4375C10.9419 0.196 10.7459 0 10.5044 0C10.2625 0 10.0669 0.196 10.0669 0.4375L10.0673 7.00088C10.0673 7.24238 10.2629 7.43838 10.5048 7.43838H11.3742L11.3733 9.09956C10.031 9.968 9.18753 11.4621 9.18534 13.1276C9.18534 13.1278 9.18523 13.1281 9.18512 13.1283C9.18502 13.1285 9.18491 13.1287 9.18491 13.1289V17.0511C9.18491 17.0536 9.18422 17.0557 9.18355 17.0578C9.18291 17.0597 9.18228 17.0617 9.18228 17.0638C9.18228 17.064 9.18239 17.0642 9.1825 17.0645C9.18261 17.0647 9.18272 17.0649 9.18272 17.0651H9V17.9401H9.25491C9.44259 18.5736 10.0227 19.0404 10.7162 19.0404C11.1462 19.0404 11.5343 18.8611 11.813 18.5749C12.0912 18.8611 12.4788 19.0404 12.9089 19.0404C13.3355 19.0404 13.7209 18.8646 13.9992 18.5824C14.277 18.8646 14.6624 19.0404 15.0885 19.0404C15.5173 19.0404 15.9045 18.8624 16.1832 18.5771C16.4614 18.8619 16.8486 19.0404 17.2769 19.0404C17.9708 19.0404 18.5518 18.5741 18.7395 17.9401H19V17.0656ZM11.3733 17.5013H10.0603C10.0603 17.5015 10.0605 17.5017 10.0606 17.502C10.0607 17.5022 10.0608 17.5024 10.0608 17.5026C10.0608 17.5036 10.0605 17.5043 10.0604 17.5052C10.0604 17.5055 10.0603 17.5058 10.0603 17.5061C10.0603 17.5066 10.0605 17.5071 10.0606 17.5076C10.0607 17.5081 10.0608 17.5086 10.0608 17.5092C10.0608 17.871 10.3548 18.1654 10.7162 18.1654C11.0784 18.1654 11.3733 17.871 11.3733 17.5092V17.5013ZM12.9028 17.5022C12.9014 17.5018 12.8999 17.5013 12.8984 17.5013V17.5009H12.2509C12.2511 17.5019 12.2514 17.503 12.2517 17.504C12.2522 17.5056 12.2527 17.5072 12.2527 17.5088C12.2527 17.8706 12.5471 18.165 12.9089 18.165C13.2567 18.165 13.5393 17.8929 13.5617 17.5512C13.5614 17.5441 13.5604 17.5374 13.5595 17.5308C13.5584 17.5235 13.5573 17.5163 13.5573 17.5088C13.5573 17.5055 13.5582 17.5026 13.559 17.4997C13.5598 17.4971 13.5606 17.4945 13.5608 17.4917V17.3508C13.3617 17.4457 13.1417 17.5031 12.9072 17.5031C12.9056 17.5031 12.9042 17.5026 12.9028 17.5022ZM14.4349 16.0055L14.4358 17.4834C14.436 17.4874 14.4371 17.4913 14.4383 17.4953C14.4397 17.4998 14.441 17.5045 14.441 17.5096C14.441 17.5175 14.4399 17.525 14.4388 17.5323C14.4378 17.5388 14.4369 17.5453 14.4367 17.5521C14.459 17.8937 14.7412 18.1659 15.0885 18.1659C15.4508 18.1659 15.7457 17.8714 15.7457 17.5096C15.7457 17.5066 15.7474 17.5039 15.7474 17.5009L15.7465 15.9806C15.7465 15.979 15.7461 15.9776 15.7457 15.9762C15.7452 15.9748 15.7448 15.9733 15.7448 15.9718C15.7448 15.61 15.4499 15.3156 15.0877 15.3156C14.7372 15.3156 14.4528 15.5921 14.4349 15.9381C14.4351 15.9434 14.4359 15.9486 14.4366 15.9537C14.4375 15.9597 14.4384 15.9657 14.4384 15.9718C14.4384 15.9779 14.4375 15.9839 14.4366 15.9899C14.4359 15.9951 14.4351 16.0002 14.4349 16.0055ZM16.6211 15.9688C16.6211 15.9696 16.6215 15.9705 16.6215 15.9714L16.6224 17.5079C16.6224 17.509 16.6221 17.51 16.6218 17.5109C16.6214 17.5119 16.6211 17.5129 16.6211 17.514C16.6237 17.8736 16.9168 18.1654 17.2769 18.1654C17.6392 18.1654 17.934 17.871 17.934 17.5092C17.934 17.5083 17.9342 17.5077 17.9345 17.507C17.9347 17.5063 17.9349 17.5057 17.9349 17.5048C17.9349 17.5046 17.9349 17.5043 17.9348 17.5041C17.9347 17.5036 17.9345 17.5032 17.9345 17.5026C17.9345 17.4973 17.936 17.4924 17.9374 17.4876C17.9387 17.4835 17.94 17.4794 17.9402 17.4751V16.0011C17.9398 15.9966 17.9385 15.9923 17.9372 15.988C17.9356 15.9828 17.934 15.9776 17.934 15.9718C17.934 15.61 17.6392 15.3156 17.2769 15.3156C16.916 15.3156 16.6228 15.6082 16.6211 15.9688ZM17.0647 6.56337V6.12587H10.9423V6.56337H17.0647ZM11.985 9.74803C11.9831 9.7493 11.9811 9.75056 11.9788 9.75144C10.8037 10.4484 10.0599 11.7163 10.0599 13.1342V16.6263H12.9072C12.9093 16.6263 12.9111 16.6276 12.9128 16.6276C13.2602 16.6246 13.542 16.3494 13.5599 16.0055V15.9889C13.5597 15.986 13.5589 15.9834 13.5582 15.9809C13.5573 15.978 13.5564 15.9751 13.5564 15.9718C13.5564 15.9657 13.5573 15.9597 13.5582 15.9537C13.5589 15.9486 13.5597 15.9434 13.5599 15.9381C13.542 15.5921 13.2576 15.3156 12.9072 15.3156C12.9039 15.3156 12.901 15.3147 12.8981 15.3138C12.8955 15.313 12.8929 15.3123 12.8901 15.3121H11.8108C11.5688 15.3121 11.3733 15.1165 11.3733 14.8746V13.5664C11.3733 13.3249 11.5688 13.1289 11.8108 13.1289C12.0527 13.1289 12.2483 13.3249 12.2483 13.5664V14.4371H12.9072C12.9135 14.4371 12.9194 14.4388 12.9254 14.4406C12.9306 14.4421 12.9358 14.4437 12.9413 14.4441C13.3538 14.4532 13.727 14.6248 13.9974 14.8995C14.2757 14.6169 14.6607 14.4406 15.0877 14.4406C15.5173 14.4406 15.904 14.6195 16.1827 14.9043C16.461 14.6191 16.8482 14.4406 17.2769 14.4406C17.5153 14.4406 17.7385 14.4996 17.9402 14.5976V13.1635C17.9398 13.1587 17.9384 13.1542 17.9371 13.1498C17.9356 13.1446 17.934 13.1394 17.934 13.1337C17.934 11.4074 16.8289 9.89844 15.1839 9.37869C14.9538 9.30562 14.826 9.05975 14.8991 8.82962C14.9722 8.5995 15.2172 8.47131 15.4482 8.54438C15.5518 8.57719 15.6529 8.61481 15.7531 8.65419L15.7535 7.43838H12.2492L12.2487 8.65156C12.3507 8.61175 12.4539 8.57369 12.5598 8.54044C12.789 8.46869 13.0353 8.59688 13.1075 8.82744C13.1797 9.058 13.0511 9.30344 12.8205 9.37563C12.5243 9.46794 12.2465 9.59394 11.988 9.74619C11.9869 9.74677 11.986 9.7474 11.985 9.74803Z" fill="#E50E0F"/>
</svg>
