<svg width="28" height="28" viewBox="0 0 28 28" fill="none" xmlns="http://www.w3.org/2000/svg">
<g clip-path="url(#clip0)">
<path d="M26.2765 24.6998L22.164 17.5768C22.3117 17.4047 22.5125 17.2774 22.7467 17.2221C23.3946 17.0695 23.9317 16.6381 24.2205 16.0384C24.5093 15.4388 24.5116 14.7498 24.2271 14.1482C24.0093 13.6878 24.1337 13.1424 24.5298 12.822C25.0472 12.4034 25.344 11.7816 25.344 11.1161C25.344 10.4506 25.0472 9.82874 24.5298 9.41017C24.1337 9.08982 24.0093 8.54444 24.2271 8.08399C24.5117 7.48234 24.5093 6.79335 24.2205 6.19372C23.9317 5.59409 23.3945 5.16262 22.7467 5.00999C22.2509 4.89318 21.9021 4.45586 21.8986 3.94646C21.894 3.28093 21.5928 2.66124 21.0725 2.24628C20.5521 1.83132 19.8809 1.67563 19.2311 1.81924C18.7336 1.92905 18.2297 1.68641 18.0055 1.22901C17.7125 0.631408 17.1724 0.203711 16.5235 0.0556214C15.8745 -0.0925224 15.2023 0.0585197 14.6791 0.469812C14.2787 0.784638 13.7193 0.784638 13.3189 0.469812C12.7956 0.0585197 12.1234 -0.0924131 11.4745 0.0556214C10.8256 0.203711 10.2855 0.631408 9.99254 1.22901C9.76833 1.68641 9.26418 1.92921 8.76697 1.81924C8.11709 1.67574 7.44588 1.83132 6.92559 2.24628C6.40526 2.66124 6.10416 3.28093 6.09951 3.94646C6.09596 4.4558 5.74717 4.89318 5.25133 5.00999C4.60353 5.16262 4.06635 5.59409 3.77761 6.19372C3.48881 6.79335 3.48646 7.48233 3.77099 8.08393C3.9888 8.54439 3.86434 9.08977 3.4683 9.41012C2.95087 9.82874 2.65409 10.4505 2.65409 11.116C2.65409 11.7816 2.95087 12.4034 3.4683 12.822C3.86434 13.1423 3.9888 13.6877 3.77099 14.1482C3.4864 14.7498 3.48881 15.4388 3.77761 16.0384C4.06635 16.6381 4.60353 17.0695 5.25139 17.2221C5.48566 17.2773 5.68641 17.4047 5.83412 17.5768L1.72169 24.6998C1.61096 24.8916 1.62687 25.1313 1.76194 25.3068C1.89707 25.4823 2.12467 25.5589 2.33844 25.501L5.20272 24.7239L5.96192 27.593C6.01858 27.8071 6.19882 27.9659 6.41838 27.9951C6.44261 27.9984 6.46678 28 6.49079 28C6.68421 28 6.86566 27.8971 6.9642 27.7265L10.4733 21.6487C10.7512 21.9059 11.0939 22.0897 11.4746 22.1766C12.1234 22.3246 12.7957 22.1737 13.319 21.7624C13.7194 21.4476 14.2788 21.4476 14.6793 21.7624C15.0708 22.0702 15.5457 22.2322 16.0319 22.2322C16.1954 22.2322 16.3603 22.2139 16.5236 22.1766C16.9043 22.0897 17.2471 21.9059 17.525 21.6487L21.034 27.7265C21.1326 27.8972 21.314 28 21.5075 28C21.5314 28 21.5556 27.9984 21.5799 27.9951C21.7994 27.9659 21.9797 27.8071 22.0363 27.593L22.7955 24.7239L25.6598 25.501C25.8736 25.5591 26.1012 25.4823 26.2363 25.3068C26.3714 25.1313 26.3873 24.8916 26.2765 24.6998ZM6.68006 26.0313L6.11931 23.9122C6.08201 23.7714 5.99019 23.6513 5.86409 23.5785C5.73793 23.5057 5.58803 23.4862 5.44749 23.5243L3.33192 24.0982L6.24415 19.0541C6.38196 19.4153 6.61416 19.7374 6.9257 19.9859C7.44604 20.4009 8.11731 20.5566 8.76708 20.413C9.13408 20.3319 9.50436 20.4433 9.76351 20.6907L6.68006 26.0313ZM16.2802 21.1103C15.9546 21.1845 15.6176 21.1088 15.3552 20.9026C14.9559 20.5887 14.4776 20.4318 13.9991 20.4318C13.5207 20.4318 13.0421 20.5888 12.643 20.9026C12.3806 21.1089 12.0436 21.1846 11.718 21.1103C11.3925 21.036 11.1216 20.8215 10.9747 20.5218C10.5277 19.6098 9.52273 19.1259 8.53111 19.345C8.20513 19.417 7.86854 19.3389 7.60758 19.1308C7.34662 18.9227 7.19558 18.6119 7.19323 18.2781C7.18617 17.2625 6.49079 16.3905 5.50223 16.1576C5.17729 16.0811 4.90791 15.8647 4.76304 15.5639C4.61824 15.2631 4.61703 14.9176 4.75976 14.6158C5.19397 13.6978 4.9458 12.6104 4.1562 11.9717C3.89666 11.7618 3.74786 11.4499 3.74786 11.1161C3.74786 10.7823 3.89671 10.4704 4.15625 10.2605C4.9458 9.62175 5.19402 8.53444 4.75976 7.61632C4.61703 7.31456 4.61824 6.969 4.7631 6.66828C4.90791 6.36751 5.17734 6.15112 5.50223 6.07456C6.49079 5.84165 7.18617 4.96969 7.19323 3.95412C7.19558 3.62031 7.34657 3.30948 7.60758 3.1014C7.86854 2.89327 8.20508 2.81512 8.53117 2.8872C9.52268 3.1061 10.5277 2.62235 10.9747 1.71041C11.1216 1.41068 11.3925 1.19615 11.718 1.12188C12.0435 1.04768 12.3806 1.12331 12.643 1.32958C13.4415 1.95732 14.5567 1.95732 15.3552 1.32958C15.6176 1.12331 15.9547 1.04768 16.2802 1.12188C16.6056 1.19615 16.8765 1.41068 17.0235 1.71041C17.4705 2.62235 18.4754 3.1061 19.4671 2.8872C19.7929 2.81507 20.1296 2.89327 20.3906 3.1014C20.6516 3.30954 20.8026 3.62031 20.805 3.95412C20.812 4.96969 21.5074 5.84165 22.496 6.07456C22.8209 6.15112 23.0903 6.36751 23.2351 6.66828C23.3799 6.96905 23.3812 7.31456 23.2384 7.61637C22.8042 8.53443 23.0524 9.62175 23.842 10.2605C24.1015 10.4704 24.2503 10.7823 24.2503 11.1161C24.2503 11.4499 24.1015 11.7618 23.8419 11.9717C23.0524 12.6104 22.8042 13.6978 23.2384 14.6159C23.3812 14.9176 23.3799 15.2632 23.2351 15.5639C23.0903 15.8647 22.8208 16.0811 22.496 16.1576C21.5074 16.3905 20.812 17.2625 20.805 18.2781C20.8026 18.6119 20.6516 18.9227 20.3906 19.1308C20.1296 19.3389 19.7931 19.417 19.467 19.345C18.4754 19.1259 17.4705 19.6098 17.0235 20.5218C16.8765 20.8215 16.6056 21.036 16.2802 21.1103ZM22.5507 23.5243C22.4101 23.4862 22.2602 23.5057 22.1341 23.5785C22.008 23.6513 21.9161 23.7714 21.8789 23.9122L21.3181 26.0313L18.2347 20.6907C18.4939 20.4432 18.8642 20.3318 19.2311 20.413C19.881 20.5565 20.5521 20.4009 21.0725 19.9859C21.384 19.7375 21.6162 19.4153 21.754 19.0541L24.6663 24.0982L22.5507 23.5243Z" fill="#43BF41"/>
<path d="M16.6006 15.2516C16.7134 15.2516 16.8262 15.2168 16.9221 15.1472C17.1132 15.0083 17.1936 14.7622 17.1212 14.5373L16.2592 11.8573L18.5324 10.187C18.7229 10.0471 18.8019 9.80055 18.7283 9.57596C18.6547 9.35136 18.4451 9.1995 18.2087 9.1995H15.3957L14.5185 6.52674C14.4447 6.3022 14.2352 6.15039 13.9989 6.15039C13.7626 6.15039 13.553 6.3022 13.4793 6.52674L12.6021 9.1995H9.78907C9.55272 9.1995 9.34306 9.35136 9.26945 9.57596C9.19579 9.80055 9.27481 10.0471 9.46533 10.187L11.7386 11.8573L10.8766 14.5373C10.8042 14.7623 10.8845 15.0083 11.0757 15.1472C11.267 15.2861 11.5257 15.2864 11.7173 15.1481L13.999 13.5006L16.2807 15.1481C16.3761 15.2171 16.4883 15.2516 16.6006 15.2516ZM14.3189 12.3828C14.2233 12.3138 14.111 12.2793 13.9988 12.2793C13.8865 12.2793 13.7742 12.3138 13.6786 12.3828L12.4278 13.286L12.9002 11.8172C12.9722 11.5933 12.893 11.3483 12.7034 11.209L11.4568 10.2931H12.9981C13.2344 10.2931 13.444 10.1413 13.5177 9.91676L13.9988 8.4508L14.4799 9.91676C14.5536 10.1413 14.7632 10.2931 14.9995 10.2931H16.5407L15.2942 11.209C15.1046 11.3483 15.0253 11.5932 15.0974 11.8172L15.5698 13.286L14.3189 12.3828Z" fill="#E50E0F"/>
<path d="M21.6558 11.116C21.6558 6.89445 18.2213 3.45996 13.9998 3.45996C9.77824 3.45996 6.34375 6.89445 6.34375 11.116C6.34375 14.3275 8.37134 17.2207 11.3892 18.3152C11.673 18.4181 11.9867 18.2715 12.0897 17.9876C12.1927 17.7036 12.0461 17.39 11.7621 17.287C9.17543 16.3489 7.43752 13.8689 7.43752 11.116C7.43752 7.49752 10.3814 4.55368 13.9998 4.55368C17.6183 4.55368 20.5621 7.49752 20.5621 11.116C20.5621 13.8691 18.824 16.3491 16.2372 17.2872C15.9532 17.3901 15.8065 17.7037 15.9095 17.9877C15.9902 18.21 16.2 18.3483 16.4236 18.3483C16.4855 18.3483 16.5484 18.3377 16.61 18.3154C19.628 17.2209 21.6558 14.3277 21.6558 11.116Z" fill="#E50E0F"/>
<path d="M14 17.6787C13.8562 17.6787 13.7151 17.7372 13.6134 17.8389C13.5116 17.9407 13.4531 18.0818 13.4531 18.2256C13.4531 18.3694 13.5116 18.5105 13.6134 18.6122C13.7151 18.7139 13.8562 18.7725 14 18.7725C14.1438 18.7725 14.2849 18.7139 14.3866 18.6122C14.4884 18.5105 14.5469 18.3694 14.5469 18.2256C14.5469 18.0818 14.4884 17.9407 14.3866 17.8389C14.2849 17.7372 14.1438 17.6787 14 17.6787Z" fill="#E50E0F"/>
</g>
<defs>
<clipPath id="clip0">
<rect width="28" height="28" fill="white"/>
</clipPath>
</defs>
</svg>
