<svg width="28" height="28" viewBox="0 0 28 28" fill="none" xmlns="http://www.w3.org/2000/svg">
<path d="M13.9992 0L3.16406 5.21391V13.1166C3.16406 16.3496 4.16889 19.4627 6.06999 22.119C7.96934 24.7731 10.6228 26.7745 13.7434 27.9071L13.9992 28L14.255 27.9071C17.3757 26.7745 20.0291 24.773 21.9285 22.119C23.8295 19.4626 24.8344 16.3497 24.8344 13.1166V5.21391L13.9992 0ZM14.4096 26.97V26.1618H13.589V26.97C7.82535 24.6813 3.98459 19.1716 3.98459 13.1166V5.72966L13.589 1.10802V1.92062H14.4095V1.10797L24.0139 5.72961V13.1166H24.0139C24.0139 19.1716 20.1732 24.6813 14.4096 26.97Z" fill="#43BF41"/>
<path d="M21.7987 5.05357L21.0625 4.69141L20.7003 5.42767L21.4365 5.78983L21.7987 5.05357Z" fill="#43BF41"/>
<path d="M20.5682 4.45005L19.832 4.08789L19.4699 4.8241L20.2061 5.18626L20.5682 4.45005Z" fill="#43BF41"/>
<path d="M19.3435 3.84566L16.0898 2.24512L15.7277 2.98133L18.9813 4.58187L19.3435 3.84566Z" fill="#43BF41"/>
<path d="M7.46757 20.7852L6.78906 21.2466C7.93854 22.9368 9.40439 24.3403 11.1459 25.4178L11.5777 24.72C9.93469 23.7035 8.55181 22.3796 7.46757 20.7852Z" fill="#43BF41"/>
<path d="M10.8065 6.63623L10.4414 5.90137L7.17325 7.52487L7.5383 8.25973L10.8065 6.63623Z" fill="#E50E0F"/>
<path d="M18.2904 19.2451C17.5121 20.3679 16.5443 21.3155 15.4141 22.0616L15.8661 22.7464C17.0841 21.9424 18.1266 20.9218 18.9648 19.7126C19.4224 19.0523 19.8108 18.345 20.119 17.6104L19.3624 17.293C19.0762 17.9749 18.7155 18.6317 18.2904 19.2451Z" fill="#E50E0F"/>
<path d="M5.35156 6.7898V13.1835C5.35156 15.8638 6.15864 18.4447 7.68552 20.6476C9.21239 22.8504 11.3461 24.5118 13.8559 25.4523L13.9999 25.5062L14.1439 25.4523C16.6537 24.5118 18.7874 22.8504 20.3143 20.6476C21.8412 18.4447 22.6482 15.8638 22.6482 13.1835V6.7898L13.9998 2.49316L5.35156 6.7898ZM21.8276 13.1835C21.8276 18.2242 18.6886 22.8038 13.9998 24.6289C9.31105 22.8038 6.17204 18.2242 6.17204 13.1835V7.29828L13.9998 3.40929L21.8276 7.29828V13.1835Z" fill="#E50E0F"/>
<path d="M14.4104 4.04492H13.5898V23.9735H14.4104V4.04492Z" fill="#E50E0F"/>
</svg>
