<svg width="28" height="28" viewBox="0 0 28 28" fill="none" xmlns="http://www.w3.org/2000/svg">
<path d="M26.6875 17.9375H25.375V17.5C25.375 17.384 25.3289 17.2727 25.2469 17.1906C25.1648 17.1086 25.0535 17.0625 24.9375 17.0625H23.625V8.75C23.625 8.4019 23.4867 8.06806 23.2406 7.82192C22.9944 7.57578 22.6606 7.4375 22.3125 7.4375C21.9644 7.4375 21.6306 7.57578 21.3844 7.82192C21.1383 8.06806 21 8.4019 21 8.75V9.1875H19.1695C19.0804 8.93176 18.9139 8.71009 18.6932 8.55322C18.4724 8.39636 18.2083 8.31209 17.9375 8.31209C17.6667 8.31209 17.4026 8.39636 17.1818 8.55322C16.9611 8.71009 16.7946 8.93176 16.7055 9.1875H11.2945C11.2054 8.93176 11.0389 8.71009 10.8182 8.55322C10.5974 8.39636 10.3333 8.31209 10.0625 8.31209C9.79169 8.31209 9.52758 8.39636 9.30683 8.55322C9.08607 8.71009 8.9196 8.93176 8.8305 9.1875H7V8.75C7 8.4019 6.86172 8.06806 6.61558 7.82192C6.36944 7.57578 6.0356 7.4375 5.6875 7.4375C5.3394 7.4375 5.00556 7.57578 4.75942 7.82192C4.51328 8.06806 4.375 8.4019 4.375 8.75V17.0625H3.0625C2.94647 17.0625 2.83519 17.1086 2.75314 17.1906C2.67109 17.2727 2.625 17.384 2.625 17.5V17.9375H1.3125C1.19647 17.9375 1.08519 17.9836 1.00314 18.0656C0.921094 18.1477 0.875 18.259 0.875 18.375V20.125C0.875 20.241 0.921094 20.3523 1.00314 20.4344C1.08519 20.5164 1.19647 20.5625 1.3125 20.5625H26.6875C26.8035 20.5625 26.9148 20.5164 26.9969 20.4344C27.0789 20.3523 27.125 20.241 27.125 20.125V18.375C27.125 18.259 27.0789 18.1477 26.9969 18.0656C26.9148 17.9836 26.8035 17.9375 26.6875 17.9375ZM2.625 19.6875H1.75V18.8125H2.625V19.6875ZM4.375 19.6875H3.5V17.9375H4.375V19.6875ZM17.9375 9.1875C18.024 9.1875 18.1086 9.21316 18.1806 9.26123C18.2525 9.3093 18.3086 9.37763 18.3417 9.45758C18.3748 9.53752 18.3835 9.62549 18.3666 9.71035C18.3497 9.79522 18.308 9.87317 18.2469 9.93436C18.1857 9.99554 18.1077 10.0372 18.0229 10.0541C17.938 10.071 17.85 10.0623 17.7701 10.0292C17.6901 9.99608 17.6218 9.94001 17.5737 9.86806C17.5257 9.79612 17.5 9.71153 17.5 9.625C17.5 9.50897 17.5461 9.39769 17.6281 9.31564C17.7102 9.23359 17.8215 9.1875 17.9375 9.1875ZM10.0625 9.1875C10.149 9.1875 10.2336 9.21316 10.3056 9.26123C10.3775 9.3093 10.4336 9.37763 10.4667 9.45758C10.4998 9.53752 10.5085 9.62549 10.4916 9.71035C10.4747 9.79522 10.433 9.87317 10.3719 9.93436C10.3107 9.99554 10.2327 10.0372 10.1479 10.0541C10.063 10.071 9.97502 10.0623 9.89508 10.0292C9.81513 9.99608 9.74681 9.94001 9.69873 9.86806C9.65066 9.79612 9.625 9.71153 9.625 9.625C9.625 9.50897 9.67109 9.39769 9.75314 9.31564C9.83519 9.23359 9.94647 9.1875 10.0625 9.1875ZM7 10.0625H8.8305C8.9196 10.3182 9.08607 10.5399 9.30683 10.6968C9.52758 10.8536 9.79169 10.9379 10.0625 10.9379C10.3333 10.9379 10.5974 10.8536 10.8182 10.6968C11.0389 10.5399 11.2054 10.3182 11.2945 10.0625H16.7055C16.7946 10.3182 16.9611 10.5399 17.1818 10.6968C17.4026 10.8536 17.6667 10.9379 17.9375 10.9379C18.2083 10.9379 18.4724 10.8536 18.6932 10.6968C18.9139 10.5399 19.0804 10.3182 19.1695 10.0625H21V12.6875H19.1695C19.0804 12.4318 18.9139 12.2101 18.6932 12.0532C18.4724 11.8964 18.2083 11.8121 17.9375 11.8121C17.6667 11.8121 17.4026 11.8964 17.1818 12.0532C16.9611 12.2101 16.7946 12.4318 16.7055 12.6875H11.2945C11.2054 12.4318 11.0389 12.2101 10.8182 12.0532C10.5974 11.8964 10.3333 11.8121 10.0625 11.8121C9.79169 11.8121 9.52758 11.8964 9.30683 12.0532C9.08607 12.2101 8.9196 12.4318 8.8305 12.6875H7V10.0625ZM18.375 13.125C18.375 13.2115 18.3493 13.2961 18.3013 13.3681C18.2532 13.44 18.1849 13.4961 18.1049 13.5292C18.025 13.5623 17.937 13.571 17.8521 13.5541C17.7673 13.5372 17.6893 13.4955 17.6281 13.4344C17.567 13.3732 17.5253 13.2952 17.5084 13.2104C17.4915 13.1255 17.5002 13.0375 17.5333 12.9576C17.5664 12.8776 17.6225 12.8093 17.6944 12.7612C17.7664 12.7132 17.851 12.6875 17.9375 12.6875C18.0535 12.6875 18.1648 12.7336 18.2469 12.8156C18.3289 12.8977 18.375 13.009 18.375 13.125ZM10.5 13.125C10.5 13.2115 10.4743 13.2961 10.4263 13.3681C10.3782 13.44 10.3099 13.4961 10.2299 13.5292C10.15 13.5623 10.062 13.571 9.97715 13.5541C9.89228 13.5372 9.81433 13.4955 9.75314 13.4344C9.69195 13.3732 9.65029 13.2952 9.63341 13.2104C9.61653 13.1255 9.62519 13.0375 9.6583 12.9576C9.69142 12.8776 9.74749 12.8093 9.81944 12.7612C9.89138 12.7132 9.97597 12.6875 10.0625 12.6875C10.1785 12.6875 10.2898 12.7336 10.3719 12.8156C10.4539 12.8977 10.5 13.009 10.5 13.125ZM7 13.5625H8.8305C8.9196 13.8182 9.08607 14.0399 9.30683 14.1968C9.52758 14.3536 9.79169 14.4379 10.0625 14.4379C10.3333 14.4379 10.5974 14.3536 10.8182 14.1968C11.0389 14.0399 11.2054 13.8182 11.2945 13.5625H16.7055C16.7946 13.8182 16.9611 14.0399 17.1818 14.1968C17.4026 14.3536 17.6667 14.4379 17.9375 14.4379C18.2083 14.4379 18.4724 14.3536 18.6932 14.1968C18.9139 14.0399 19.0804 13.8182 19.1695 13.5625H21V15.3125H7V13.5625ZM5.25 8.75C5.25 8.63397 5.29609 8.52269 5.37814 8.44064C5.46019 8.35859 5.57147 8.3125 5.6875 8.3125C5.80353 8.3125 5.91481 8.35859 5.99686 8.44064C6.07891 8.52269 6.125 8.63397 6.125 8.75V15.3125H5.25V8.75ZM22.75 19.6875H5.25V16.1875H22.75V19.6875ZM22.75 15.3125H21.875V8.75C21.875 8.63397 21.9211 8.52269 22.0031 8.44064C22.0852 8.35859 22.1965 8.3125 22.3125 8.3125C22.4285 8.3125 22.5398 8.35859 22.6219 8.44064C22.7039 8.52269 22.75 8.63397 22.75 8.75V15.3125ZM24.5 19.6875H23.625V17.9375H24.5V19.6875ZM26.25 19.6875H25.375V18.8125H26.25V19.6875Z" fill="#43BF41"/>
<path d="M6.125 18.375C6.125 18.6166 6.32088 18.8125 6.5625 18.8125C6.80412 18.8125 7 18.6166 7 18.375C7 18.1334 6.80412 17.9375 6.5625 17.9375C6.32088 17.9375 6.125 18.1334 6.125 18.375Z" fill="#E50E0F"/>
<path d="M7.875 18.375C7.875 18.6166 8.07088 18.8125 8.3125 18.8125C8.55412 18.8125 8.75 18.6166 8.75 18.375C8.75 18.1334 8.55412 17.9375 8.3125 17.9375C8.07088 17.9375 7.875 18.1334 7.875 18.375Z" fill="#E50E0F"/>
<path d="M21.4375 17.9375H20.5625C20.3209 17.9375 20.125 18.1334 20.125 18.375C20.125 18.6166 20.3209 18.8125 20.5625 18.8125H21.4375C21.6791 18.8125 21.875 18.6166 21.875 18.375C21.875 18.1334 21.6791 17.9375 21.4375 17.9375Z" fill="#E50E0F"/>
</svg>
