<svg width="28" height="28" viewBox="0 0 28 28" fill="none" xmlns="http://www.w3.org/2000/svg">
<path fill-rule="evenodd" clip-rule="evenodd" d="M15.1073 16.4762L18.2563 13.6134L18.5427 13.4281L18.095 13.8289L19.693 15.6165L20.0818 15.2277C20.2668 15.0438 20.5655 15.0438 20.7504 15.2277L21.8315 16.3088C22.0154 16.4938 22.0154 16.7925 21.8315 16.9774L20.831 17.9779L21.9596 19.1065L23.4817 20.6381L24.3162 21.4537L24.3359 21.4733C25.01 22.1582 25.0013 23.2601 24.3162 23.9342C23.6312 24.6084 22.5294 24.5996 21.8553 23.9146L21.0302 23.0895L19.5033 21.5627L18.3748 20.4341L17.3743 21.4346C17.1893 21.6185 16.8906 21.6185 16.7057 21.4346L15.6245 20.3535C15.4407 20.1686 15.4407 19.8699 15.6245 19.6849L16.0134 19.2961L13.9981 17.499L13.9914 17.5049L13.9983 17.4844L14.6968 16.8493L16.682 18.6275L17.5165 17.7929L15.7004 15.9768L15.1073 16.4762ZM9.88251 13.8452L10.5366 13.1317L4.31061 7.57912L4.12093 3.75249L7.94756 3.94216L13.3342 9.96424L12.2341 11.1924L10.2426 9.20081C10.0437 9.03046 9.74435 9.05364 9.574 9.25256C9.42197 9.43008 9.42197 9.69188 9.574 9.86941L11.6272 11.9036L10.5382 13.13L13.9983 9.35532L14.0125 9.24164L13.9981 9.25777L8.54977 3.17399C8.4646 3.07939 8.34499 3.02302 8.21785 3.01751L3.67046 2.79464C3.53627 2.78735 3.40528 2.83732 3.31009 2.93216C3.21525 3.02735 3.16528 3.15834 3.17257 3.29253L3.40018 7.83992C3.40569 7.96706 3.46206 8.08667 3.55666 8.17184L9.88251 13.8452ZM18.1756 17.1244L19.0102 16.2898L17.3743 14.4642L16.3927 15.3414L18.1756 17.1244ZM17.0376 20.4341L18.0002 19.4099L19.8305 17.6412L20.831 16.6407L20.4232 16.2329L16.6298 20.0263L17.0376 20.4341ZM20.1624 18.6512L19.0054 19.7466L19.8352 20.5622L20.9543 19.4431L20.1624 18.6512ZM20.4706 21.2118L21.3289 22.07L22.448 20.951L21.5897 20.0927L20.4706 21.2118ZM23.605 23.227L23.6429 23.2508C23.9414 22.9389 23.9351 22.4453 23.6287 22.1412L23.1545 21.667L22.0117 22.7529L22.4859 23.227C22.7992 23.5257 23.2917 23.5257 23.605 23.227Z" fill="#E50E0F"/>
<mask id="mask0" style="mask-type:alpha" maskUnits="userSpaceOnUse" x="2" y="2" width="24" height="24">
<path d="M18.2581 13.6129L14 17.4839L13.2258 19.8065L12.4516 21.7419L10.5161 22.5161H8.96774L7.03226 26L2.3871 25.2258L2 20.1935L4.70968 14.7742L9.74194 14L14 9.35484L14.3871 6.25806L19.4194 2H24.8387L26 3.16129L24.8387 9.35484L18.2581 13.6129Z" fill="black"/>
</mask>
<g mask="url(#mask0)">
<path d="M24.3376 21.4728C24.3311 21.4662 24.3246 21.4597 24.318 21.4532L23.4834 20.6376L21.9613 19.106L20.8328 17.9775L21.8333 16.9769C22.0171 16.792 22.0171 16.4933 21.8333 16.3083L20.7521 15.2272C20.5672 15.0433 20.2685 15.0433 20.0836 15.2272L19.6947 15.616L18.0967 13.8284L24.4318 8.15719C24.5264 8.07202 24.5827 7.95241 24.5883 7.82527L24.8159 3.27788C24.8232 3.14369 24.7732 3.0127 24.6784 2.91751C24.5832 2.82267 24.4522 2.77271 24.318 2.78L19.7706 3.00286C19.6435 3.00837 19.5238 3.06474 19.4387 3.15934L13.9998 9.25729L8.5515 3.17351C8.46633 3.07891 8.34671 3.02254 8.21957 3.01703L3.67219 2.79416C3.538 2.78687 3.40701 2.83684 3.31182 2.93167C3.21698 3.02687 3.16701 3.15786 3.1743 3.29205L3.40191 7.83943C3.40742 7.96657 3.46379 8.08619 3.55839 8.17136L9.90291 13.8615L8.30967 15.6207L7.92084 15.2319C7.73591 15.048 7.43718 15.048 7.25225 15.2319L6.17112 16.313C5.98726 16.498 5.98726 16.7967 6.17112 16.9816L7.17164 17.9821L6.03835 19.1059L3.66745 21.4768C2.9892 22.1578 2.99133 23.2596 3.67225 23.9379C3.99724 24.2616 4.43687 24.4439 4.89558 24.4452C5.35624 24.4467 5.79841 24.2641 6.1237 23.9378L9.60418 20.4574L10.6047 21.4579C10.7896 21.6417 11.0884 21.6417 11.2733 21.4579L12.3544 20.3767C12.5383 20.1918 12.5383 19.8931 12.3544 19.7082L11.9846 19.2956L13.9998 17.4985L16.0151 19.2956L15.6263 19.6844C15.4424 19.8694 15.4424 20.1681 15.6263 20.353L16.7074 21.4342C16.8923 21.618 17.1911 21.618 17.376 21.4342L18.3765 20.4336L19.5051 21.5622L21.0319 23.0891L21.857 23.9141C22.5311 24.5991 23.633 24.6079 24.318 23.9337C25.003 23.2596 25.0118 22.1578 24.3376 21.4728ZM19.0119 16.2893L18.1773 17.1239L16.3944 15.341L17.376 14.4637L19.0119 16.2893ZM4.31233 7.57864L4.12266 3.75201L7.94929 3.94168L13.336 9.96376L12.2359 11.1919L10.2443 9.20033C10.0454 9.02998 9.74608 9.05316 9.57573 9.25208C9.42369 9.4296 9.42369 9.6914 9.57573 9.86892L11.6289 11.9032L10.5383 13.1313L4.31233 7.57864ZM5.44562 23.2266C5.29756 23.3756 5.09615 23.4592 4.88609 23.4589C4.44997 23.4265 4.1226 23.0467 4.15503 22.6106C4.16795 22.4362 4.2383 22.271 4.35501 22.1407L4.82919 21.6665L5.93877 22.7619L5.44562 23.2266ZM6.60262 22.0696L5.51201 20.9742L6.37027 20.1159L7.48934 21.235L6.60262 22.0696ZM8.13422 20.538L7.01516 19.4189L7.83549 18.6507L8.95455 19.7698L8.13422 20.538ZM10.9319 20.4099L9.93611 19.4142L8.14845 17.6265L7.17164 16.645L7.57943 16.2372L11.3729 20.0306L10.9319 20.4099ZM11.2875 18.6033L10.453 17.7688L18.3718 9.84996C18.5707 9.67961 18.5939 9.38028 18.4235 9.18136C18.2532 8.98244 17.9538 8.95927 17.7549 9.12962C17.7364 9.1455 17.7191 9.16281 17.7032 9.18136L9.78437 17.1002L8.94981 16.2656L10.8939 14.0939L20.0266 3.94642L23.8533 3.75675L23.6636 7.58338L17.1104 13.4395L11.2875 18.6033ZM14.6826 16.8346L15.7021 15.9764L17.5182 17.7925L16.6837 18.627L14.6826 16.8346ZM18.0019 19.4094L17.0393 20.4336L16.6315 20.0259L20.425 16.2324L20.8328 16.6402L19.8322 17.6407L18.0019 19.4094ZM19.0072 19.7461L20.1642 18.6507L20.956 19.4426L19.837 20.5617L19.0072 19.7461ZM21.3306 22.0696L20.4724 21.2113L21.5914 20.0922L22.4497 20.9505L21.3306 22.0696ZM23.6446 23.2503L23.6067 23.2266C23.2935 23.5252 22.8009 23.5252 22.4876 23.2266L22.0135 22.7524L23.1562 21.6665L23.6304 22.1407C23.9369 22.4448 23.9431 22.9384 23.6446 23.2503Z" fill="#43BF41"/>
</g>
</svg>
