<svg width="28" height="28" viewBox="0 0 28 28" fill="none" xmlns="http://www.w3.org/2000/svg">
<path d="M10.484 12.6567C10.3238 12.4965 10.0642 12.4965 9.90399 12.6567L3.33701 19.2237L1.43063 17.3174L17.3201 1.42764L19.2265 3.33401L10.87 11.6907C10.7098 11.851 10.7098 12.1107 10.87 12.2707C11.03 12.4309 11.2898 12.4309 11.45 12.2707L14.8483 8.87241L17.8661 11.8905C17.9945 12.0189 18.1629 12.0829 18.3314 12.0829C18.4998 12.0829 18.6683 12.0189 18.7965 11.8905L20.2102 10.4769C20.3344 10.3526 20.4029 10.1875 20.4029 10.0117C20.4029 9.83585 20.3344 9.67072 20.2102 9.5466L17.1922 6.52853L19.9244 3.79608C20.1043 3.61621 20.1566 3.35666 20.0825 3.13L20.4619 2.7504C20.7184 2.49405 20.7184 2.07663 20.4619 1.82007L18.8341 0.192261C18.5775 -0.0640869 18.1603 -0.0640869 17.9037 0.192261L17.5246 0.571442C17.4594 0.550079 17.3908 0.53833 17.3201 0.53833C17.1456 0.53833 16.9813 0.606476 16.8581 0.729736L0.732727 16.8551C0.609253 16.9785 0.541321 17.1426 0.541321 17.3174C0.541321 17.3878 0.552856 17.4566 0.574219 17.5218L0.190338 17.9057C-0.063446 18.1595 -0.063446 18.5726 0.190338 18.8264L1.82797 20.4638C1.95081 20.5869 2.11423 20.6546 2.28833 20.6546C2.46222 20.6546 2.62564 20.5869 2.74847 20.4638L3.133 20.0795C3.19922 20.1013 3.26801 20.1126 3.33701 20.1126C3.50449 20.1126 3.67175 20.049 3.79929 19.9214L10.484 13.2367C10.6442 13.0765 10.6442 12.8167 10.484 12.6567ZM19.5153 10.0117L18.3314 11.1956L15.4283 8.29242L16.6122 7.10852L19.5153 10.0117ZM18.369 0.88739L19.767 2.28534L19.5525 2.49982L18.1543 1.10187L18.369 0.88739ZM0.890167 18.366L1.10464 18.1516L2.50281 19.5497L2.28833 19.7642L0.890167 18.366Z" fill="#E50E0F"/>
<path d="M27.8078 9.16866L26.1701 7.53124C25.9164 7.27745 25.5034 7.27724 25.2496 7.53124L24.8653 7.91555C24.6385 7.84142 24.3789 7.89354 24.199 8.07341L23.399 8.87343C23.2388 9.03365 23.2388 9.29342 23.399 9.45342C23.5592 9.61364 23.819 9.61364 23.979 9.45342L24.6611 8.77132L26.5675 10.6777L10.678 26.5672L8.77161 24.661L22.8961 10.5363C23.0564 10.3761 23.0564 10.1163 22.8961 9.95629C22.7361 9.79607 22.4764 9.79607 22.3162 9.95629L13.1498 19.1226L10.132 16.1046C9.8754 15.8482 9.45798 15.848 9.20163 16.1046L7.78787 17.5181C7.66376 17.6424 7.59518 17.8076 7.59518 17.9834C7.59518 18.1592 7.66354 18.3243 7.78787 18.4487L10.8057 21.4665L8.07349 24.199C7.89362 24.3788 7.84128 24.6384 7.91562 24.865L7.53601 25.2446C7.27966 25.501 7.27966 25.9184 7.53601 26.175L9.16403 27.8028C9.29221 27.931 9.46054 27.995 9.62909 27.995C9.79742 27.995 9.96597 27.931 10.0944 27.8028L10.4733 27.4236C10.5385 27.4452 10.6073 27.4567 10.6778 27.4567C10.8525 27.4567 11.0166 27.3888 11.14 27.2653L27.2654 11.14C27.3889 11.0165 27.4568 10.8524 27.4568 10.6777C27.4568 10.6072 27.4453 10.5384 27.4239 10.4733L27.8078 10.0894C28.0616 9.83559 28.0616 9.42266 27.8078 9.16866ZM8.48279 17.9834L9.66669 16.7995L12.5698 19.7026L11.3859 20.8865L8.48279 17.9834ZM8.23114 25.7097L8.44562 25.4952L9.84378 26.8932L9.6293 27.1079L8.23114 25.7097ZM27.1079 9.62902L26.8935 9.84349L25.4953 8.44533L25.7098 8.23085L27.1079 9.62902Z" fill="#43BF41"/>
</svg>
