<svg width="28" height="28" viewBox="0 0 28 28" fill="none" xmlns="http://www.w3.org/2000/svg">
<path d="M3.0625 22.3125V26.6875C3.0625 26.8035 3.10859 26.9148 3.19064 26.9969C3.27269 27.0789 3.38397 27.125 3.5 27.125H24.5C24.616 27.125 24.7273 27.0789 24.8094 26.9969C24.8914 26.9148 24.9375 26.8035 24.9375 26.6875V24.0625C24.9375 23.9465 24.8914 23.8352 24.8094 23.7531C24.7273 23.6711 24.616 23.625 24.5 23.625H17.9375V19.25C17.9375 19.134 17.8914 19.0227 17.8094 18.9406C17.7273 18.8586 17.616 18.8125 17.5 18.8125H16.2211L17.0461 7.67435L19.9417 5.60602C19.9984 5.56555 20.0446 5.51213 20.0765 5.45021C20.1083 5.38829 20.125 5.31965 20.125 5.25V2.1875C20.125 1.8394 19.9867 1.50556 19.7406 1.25942C19.4944 1.01328 19.1606 0.875 18.8125 0.875C18.4644 0.875 18.1306 1.01328 17.8844 1.25942C17.6383 1.50556 17.5 1.8394 17.5 2.1875V4.12109L16.1213 4.90891C16.2025 4.58625 16.2091 4.24931 16.1405 3.92374C16.0718 3.59817 15.9298 3.29254 15.7253 3.03012C15.5207 2.7677 15.259 2.5554 14.96 2.40937C14.6611 2.26335 14.3327 2.18744 14 2.18744C13.6673 2.18744 13.3389 2.26335 13.04 2.40937C12.741 2.5554 12.4793 2.7677 12.2747 3.03012C12.0702 3.29254 11.9282 3.59817 11.8595 3.92374C11.7909 4.24931 11.7975 4.58625 11.8787 4.90891L10.5 4.12109V2.1875C10.5 1.8394 10.3617 1.50556 10.1156 1.25942C9.86944 1.01328 9.5356 0.875 9.1875 0.875C8.8394 0.875 8.50556 1.01328 8.25942 1.25942C8.01328 1.50556 7.875 1.8394 7.875 2.1875V5.25C7.875 5.31964 7.89163 5.38828 7.92351 5.4502C7.95538 5.51213 8.00158 5.56554 8.05826 5.60602L10.9539 7.67435L11.7789 18.8125H10.5C10.384 18.8125 10.2727 18.8586 10.1906 18.9406C10.1086 19.0227 10.0625 19.134 10.0625 19.25V21.875H3.5C3.38397 21.875 3.27269 21.9211 3.19064 22.0031C3.10859 22.0852 3.0625 22.1965 3.0625 22.3125ZM14.3413 6.5625L14.1641 7.44844C14.055 7.43422 13.9446 7.43422 13.8356 7.44844L13.6586 6.5625H14.3413ZM14 8.3125C14.0865 8.3125 14.1711 8.33816 14.2431 8.38623C14.315 8.4343 14.3711 8.50263 14.4042 8.58258C14.4373 8.66252 14.446 8.75049 14.4291 8.83535C14.4122 8.92022 14.3705 8.99817 14.3094 9.05936C14.2482 9.12055 14.1702 9.16221 14.0854 9.17909C14.0005 9.19597 13.9125 9.18731 13.8326 9.1542C13.7526 9.12108 13.6843 9.06501 13.6362 8.99306C13.5882 8.92112 13.5625 8.83653 13.5625 8.75C13.5626 8.63401 13.6088 8.5228 13.6908 8.44078C13.7728 8.35877 13.884 8.31263 14 8.3125ZM14 3.0625C14.2596 3.0625 14.5133 3.13948 14.7292 3.2837C14.945 3.42792 15.1133 3.6329 15.2126 3.87273C15.3119 4.11256 15.3379 4.37646 15.2873 4.63106C15.2366 4.88566 15.1116 5.11952 14.9281 5.30308C14.7445 5.48663 14.5107 5.61164 14.2561 5.66228C14.0015 5.71292 13.7376 5.68693 13.4977 5.58759C13.2579 5.48825 13.0529 5.32003 12.9087 5.10419C12.7645 4.88835 12.6875 4.63459 12.6875 4.375C12.6879 4.02703 12.8263 3.69342 13.0724 3.44737C13.3184 3.20132 13.652 3.06291 14 3.0625ZM11.8114 7.40518C11.8066 7.34117 11.7878 7.27899 11.7564 7.22305C11.7249 7.16711 11.6815 7.11878 11.6292 7.08148L8.75 5.02485V2.1875C8.75 2.07147 8.79609 1.96019 8.87814 1.87814C8.96019 1.79609 9.07147 1.75 9.1875 1.75C9.30353 1.75 9.41481 1.79609 9.49686 1.87814C9.57891 1.96019 9.625 2.07147 9.625 2.1875V4.375C9.625 4.45213 9.64539 4.52789 9.6841 4.5946C9.72282 4.6613 9.77848 4.71659 9.84545 4.75486L12.735 6.40604L13.0277 7.86931C12.857 8.05757 12.7446 8.29134 12.7042 8.54223C12.6638 8.79313 12.6971 9.05036 12.8 9.2827C12.903 9.51504 13.0712 9.7125 13.2842 9.85109C13.4972 9.98969 13.7459 10.0635 14 10.0635C14.2541 10.0635 14.5028 9.98969 14.7158 9.85109C14.9288 9.7125 15.097 9.51504 15.2 9.2827C15.3029 9.05036 15.3362 8.79313 15.2958 8.54223C15.2554 8.29134 15.143 8.05757 14.9723 7.86931L15.265 6.40604L18.1546 4.75486C18.2215 4.71659 18.2772 4.6613 18.3159 4.5946C18.3546 4.52789 18.375 4.45213 18.375 4.375V2.1875C18.375 2.07147 18.4211 1.96019 18.5031 1.87814C18.5852 1.79609 18.6965 1.75 18.8125 1.75C18.9285 1.75 19.0398 1.79609 19.1219 1.87814C19.2039 1.96019 19.25 2.07147 19.25 2.1875V5.02485L16.3708 7.08148C16.3185 7.11878 16.2751 7.16711 16.2436 7.22305C16.2122 7.27899 16.1934 7.34117 16.1886 7.40518L15.3437 18.8125H14.4375V12.25C14.4375 12.134 14.3914 12.0227 14.3094 11.9406C14.2273 11.8586 14.116 11.8125 14 11.8125C13.884 11.8125 13.7727 11.8586 13.6906 11.9406C13.6086 12.0227 13.5625 12.134 13.5625 12.25V18.8125H12.6563L11.8114 7.40518ZM3.9375 22.75H10.5C10.616 22.75 10.7273 22.7039 10.8094 22.6219C10.8914 22.5398 10.9375 22.4285 10.9375 22.3125V19.6875H17.0625V24.0625C17.0625 24.1785 17.1086 24.2898 17.1906 24.3719C17.2727 24.4539 17.384 24.5 17.5 24.5H24.0625V26.25H3.9375V22.75Z" fill="#43BF41"/>
<path d="M14.875 23.625H14.4375V21.4375C14.4375 21.3215 14.3914 21.2102 14.3094 21.1281C14.2273 21.0461 14.1161 21 14 21H13.5625C13.5051 21 13.4482 21.0113 13.3951 21.0333C13.342 21.0553 13.2938 21.0875 13.2531 21.1281L12.8156 21.5656C12.7336 21.6477 12.6875 21.759 12.6875 21.875C12.6875 21.991 12.7336 22.1023 12.8156 22.1844C12.8977 22.2664 13.009 22.3125 13.125 22.3125C13.241 22.3125 13.3523 22.2664 13.4344 22.1844L13.5625 22.0562V23.625H13.125C13.009 23.625 12.8977 23.6711 12.8157 23.7531C12.7336 23.8352 12.6875 23.9465 12.6875 24.0625C12.6875 24.1785 12.7336 24.2898 12.8157 24.3719C12.8977 24.4539 13.009 24.5 13.125 24.5H14.875C14.9911 24.5 15.1023 24.4539 15.1844 24.3719C15.2664 24.2898 15.3125 24.1785 15.3125 24.0625C15.3125 23.9465 15.2664 23.8352 15.1844 23.7531C15.1023 23.6711 14.9911 23.625 14.875 23.625Z" fill="#E50E0F"/>
<path d="M4.81252 5.68752C4.86998 5.6876 4.9269 5.67632 4.97999 5.65433C5.03308 5.63234 5.0813 5.60007 5.12188 5.55938L6.43438 4.24688C6.47501 4.20626 6.50724 4.15803 6.52923 4.10494C6.55121 4.05186 6.56253 3.99497 6.56253 3.93752C6.56253 3.88006 6.55121 3.82317 6.52923 3.77009C6.50724 3.71701 6.47501 3.66877 6.43438 3.62815L4.68438 1.87815C4.64376 1.83752 4.59553 1.80529 4.54244 1.7833C4.48936 1.76132 4.43247 1.75 4.37502 1.75C4.31756 1.75 4.26067 1.76132 4.20759 1.7833C4.15451 1.80529 4.10627 1.83752 4.06565 1.87815L2.75315 3.19065C2.71252 3.23127 2.68029 3.27951 2.6583 3.33259C2.63632 3.38567 2.625 3.44256 2.625 3.50002C2.625 3.55747 2.63632 3.61436 2.6583 3.66744C2.68029 3.72053 2.71252 3.76876 2.75315 3.80938L4.50315 5.55938C4.54373 5.60007 4.59195 5.63234 4.64504 5.65433C4.69814 5.67632 4.75505 5.6876 4.81252 5.68752ZM4.37502 2.8062L5.50634 3.93752L4.81252 4.63134L3.6812 3.50002L4.37502 2.8062Z" fill="#E50E0F"/>
<path d="M21.5656 9.93438L23.3156 11.6844C23.3563 11.725 23.4045 11.7572 23.4576 11.7792C23.5107 11.8012 23.5676 11.8125 23.625 11.8125C23.6825 11.8125 23.7394 11.8012 23.7924 11.7792C23.8455 11.7572 23.8938 11.725 23.9344 11.6844L25.2469 10.3719C25.2875 10.3313 25.3197 10.283 25.3417 10.2299C25.3637 10.1769 25.375 10.12 25.375 10.0625C25.375 10.0051 25.3637 9.94817 25.3417 9.89509C25.3197 9.842 25.2875 9.79377 25.2469 9.75315L23.4969 8.00315C23.4563 7.96252 23.408 7.93029 23.3549 7.90831C23.3019 7.88632 23.245 7.875 23.1875 7.875C23.1301 7.875 23.0732 7.88632 23.0201 7.90831C22.967 7.93029 22.9188 7.96252 22.8781 8.00315L21.5656 9.31565C21.525 9.35627 21.4928 9.4045 21.4708 9.45759C21.4488 9.51067 21.4375 9.56756 21.4375 9.62502C21.4375 9.68247 21.4488 9.73936 21.4708 9.79245C21.4928 9.84553 21.525 9.89376 21.5656 9.93438ZM23.1875 8.9312L24.3188 10.0625L23.625 10.7563L22.4937 9.62502L23.1875 8.9312Z" fill="#E50E0F"/>
<path d="M1.44065 18.6844L2.75315 19.9969C2.79377 20.0375 2.84201 20.0697 2.89509 20.0917C2.94817 20.1137 3.00506 20.125 3.06252 20.125C3.11997 20.125 3.17686 20.1137 3.22994 20.0917C3.28303 20.0697 3.33126 20.0375 3.37188 19.9969L5.12188 18.2469C5.16251 18.2063 5.19474 18.158 5.21673 18.1049C5.23871 18.0519 5.25003 17.995 5.25003 17.9375C5.25003 17.8801 5.23871 17.8232 5.21673 17.7701C5.19474 17.717 5.16251 17.6688 5.12188 17.6281L3.80938 16.3156C3.76876 16.275 3.72053 16.2428 3.66744 16.2208C3.61436 16.1988 3.55747 16.1875 3.50002 16.1875C3.44256 16.1875 3.38567 16.1988 3.33259 16.2208C3.27951 16.2428 3.23127 16.275 3.19065 16.3156L1.44065 18.0656C1.40002 18.1063 1.36779 18.1545 1.3458 18.2076C1.32382 18.2607 1.3125 18.3176 1.3125 18.375C1.3125 18.4325 1.32382 18.4894 1.3458 18.5424C1.36779 18.5955 1.40002 18.6438 1.44065 18.6844ZM3.50002 17.2437L4.19384 17.9375L3.06252 19.0688L2.3687 18.375L3.50002 17.2437Z" fill="#E50E0F"/>
<path d="M8.75 13.5625C9.00959 13.5625 9.26334 13.4855 9.47918 13.3413C9.69502 13.1971 9.86325 12.9921 9.96259 12.7523C10.0619 12.5124 10.0879 12.2485 10.0373 11.9939C9.98663 11.7393 9.86163 11.5055 9.67807 11.3219C9.49452 11.1384 9.26065 11.0134 9.00605 10.9627C8.75145 10.9121 8.48755 10.9381 8.24773 11.0374C8.0079 11.1367 7.80291 11.305 7.6587 11.5208C7.51448 11.7367 7.4375 11.9904 7.4375 12.25C7.43789 12.598 7.5763 12.9316 7.82235 13.1776C8.06841 13.4237 8.40202 13.5621 8.75 13.5625ZM8.75 11.8125C8.83653 11.8125 8.92111 11.8382 8.99306 11.8862C9.06501 11.9343 9.12108 12.0026 9.1542 12.0826C9.18731 12.1625 9.19597 12.2505 9.17909 12.3354C9.16221 12.4202 9.12054 12.4982 9.05936 12.5594C8.99817 12.6205 8.92022 12.6622 8.83535 12.6791C8.75048 12.696 8.66252 12.6873 8.58257 12.6542C8.50263 12.6211 8.4343 12.565 8.38623 12.4931C8.33816 12.4211 8.3125 12.3365 8.3125 12.25C8.31263 12.134 8.35876 12.0228 8.44078 11.9408C8.5228 11.8588 8.63401 11.8126 8.75 11.8125Z" fill="#E50E0F"/>
<path d="M26.6875 2.625C26.6875 2.36541 26.6105 2.11165 26.4663 1.89581C26.3221 1.67997 26.1171 1.51175 25.8773 1.41241C25.6374 1.31307 25.3735 1.28708 25.1189 1.33772C24.8643 1.38836 24.6305 1.51337 24.4469 1.69692C24.2634 1.88048 24.1384 2.11434 24.0877 2.36894C24.0371 2.62354 24.0631 2.88744 24.1624 3.12727C24.2617 3.3671 24.43 3.57208 24.6458 3.7163C24.8617 3.86052 25.1154 3.9375 25.375 3.9375C25.723 3.93711 26.0566 3.7987 26.3027 3.55264C26.5487 3.30659 26.6871 2.97298 26.6875 2.625ZM25.375 3.0625C25.2885 3.0625 25.2039 3.03684 25.1319 2.98877C25.06 2.94069 25.0039 2.87237 24.9708 2.79242C24.9377 2.71248 24.929 2.62451 24.9459 2.53965C24.9628 2.45478 25.0045 2.37683 25.0656 2.31564C25.1268 2.25445 25.2048 2.21279 25.2897 2.19591C25.3745 2.17902 25.4625 2.18769 25.5424 2.2208C25.6224 2.25392 25.6907 2.30999 25.7388 2.38194C25.7868 2.45388 25.8125 2.53847 25.8125 2.625C25.8124 2.74099 25.7662 2.8522 25.6842 2.93421C25.6022 3.01623 25.491 3.06237 25.375 3.0625Z" fill="#E50E0F"/>
<path d="M19.6875 16.1875C19.6875 16.4471 19.7645 16.7009 19.9087 16.9167C20.0529 17.1325 20.2579 17.3008 20.4977 17.4001C20.7376 17.4994 21.0015 17.5254 21.2561 17.4748C21.5107 17.4241 21.7445 17.2991 21.9281 17.1156C22.1116 16.932 22.2366 16.6982 22.2873 16.4436C22.3379 16.189 22.3119 15.9251 22.2126 15.6852C22.1133 15.4454 21.945 15.2404 21.7292 15.0962C21.5134 14.952 21.2596 14.875 21 14.875C20.652 14.8754 20.3184 15.0138 20.0724 15.2599C19.8263 15.5059 19.6879 15.8395 19.6875 16.1875ZM21.4375 16.1875C21.4375 16.274 21.4118 16.3586 21.3638 16.4306C21.3157 16.5025 21.2474 16.5586 21.1674 16.5917C21.0875 16.6248 20.9995 16.6335 20.9147 16.6166C20.8298 16.5997 20.7518 16.558 20.6906 16.4969C20.6295 16.4357 20.5878 16.3577 20.5709 16.2729C20.554 16.188 20.5627 16.1 20.5958 16.0201C20.6289 15.9401 20.685 15.8718 20.7569 15.8237C20.8289 15.7757 20.9135 15.75 21 15.75C21.116 15.7501 21.2272 15.7963 21.3092 15.8783C21.3912 15.9603 21.4374 16.0715 21.4375 16.1875Z" fill="#E50E0F"/>
<path d="M4.24688 8.18438C4.32893 8.10233 4.37502 7.99105 4.37502 7.87501C4.37502 7.75898 4.32893 7.64769 4.24688 7.56564C4.16483 7.48359 4.05355 7.4375 3.93751 7.4375C3.82148 7.4375 3.71019 7.48359 3.62814 7.56564L2.93432 8.25946C2.68856 8.50579 2.55054 8.83955 2.55054 9.18751C2.55054 9.53547 2.68856 9.86923 2.93432 10.1156L3.00941 10.1906C3.09133 10.2728 3.13733 10.384 3.13733 10.5C3.13733 10.616 3.09133 10.7273 3.00941 10.8094L2.31564 11.5031C2.27502 11.5438 2.24279 11.592 2.2208 11.6451C2.19882 11.6982 2.1875 11.7551 2.1875 11.8125C2.1875 11.87 2.19882 11.9269 2.2208 11.9799C2.24279 12.033 2.27502 12.0813 2.31564 12.1219C2.39769 12.2039 2.50898 12.25 2.62501 12.25C2.68247 12.25 2.73936 12.2387 2.79244 12.2167C2.84552 12.1947 2.89375 12.1625 2.93438 12.1219L3.6282 11.4281C3.87396 11.1817 4.01198 10.848 4.01198 10.5C4.01198 10.152 3.87396 9.81829 3.6282 9.57196L3.55311 9.49688C3.47119 9.41476 3.42519 9.3035 3.42519 9.18751C3.42519 9.07152 3.47119 8.96026 3.55311 8.87814L4.24688 8.18438Z" fill="#E50E0F"/>
<path d="M26.1219 18.2469C26.1625 18.2063 26.1947 18.158 26.2167 18.1049C26.2387 18.0519 26.25 17.995 26.25 17.9375C26.25 17.8801 26.2387 17.8232 26.2167 17.7701C26.1947 17.717 26.1625 17.6688 26.1219 17.6281C26.0813 17.5875 26.033 17.5553 25.9799 17.5333C25.9269 17.5113 25.87 17.5 25.8125 17.5C25.7551 17.5 25.6982 17.5113 25.6451 17.5333C25.592 17.5553 25.5438 17.5875 25.5031 17.6281L24.8093 18.322C24.5636 18.5683 24.4255 18.902 24.4255 19.25C24.4255 19.598 24.5636 19.9317 24.8093 20.1781L24.8844 20.2531C24.9663 20.3353 25.0123 20.4465 25.0123 20.5625C25.0123 20.6785 24.9663 20.7898 24.8844 20.8719L24.1906 21.5656C24.1086 21.6477 24.0625 21.759 24.0625 21.875C24.0625 21.991 24.1086 22.1023 24.1906 22.1844C24.2727 22.2664 24.384 22.3125 24.5 22.3125C24.616 22.3125 24.7273 22.2664 24.8094 22.1844L25.5032 21.4906C25.749 21.2442 25.887 20.9105 25.887 20.5625C25.887 20.2145 25.749 19.8808 25.5032 19.6345L25.4281 19.5594C25.3462 19.4773 25.3002 19.366 25.3002 19.25C25.3002 19.134 25.3462 19.0228 25.4281 18.9406L26.1219 18.2469Z" fill="#E50E0F"/>
</svg>
