<svg width="28" height="28" viewBox="0 0 28 28" fill="none" xmlns="http://www.w3.org/2000/svg">
<path d="M20.7812 20.125C23.9172 20.125 26.4688 17.5735 26.4688 14.4375V14.2188C26.4688 13.3744 25.7819 12.6875 24.9375 12.6875C24.0931 12.6875 23.4062 13.3744 23.4062 14.2188V14.4375C23.4062 15.8852 22.2289 17.0625 20.7812 17.0625H16.4062V16.4701C17.7113 15.7124 18.5938 14.3023 18.5938 12.6875V9.62412C18.5938 8.568 17.8408 7.68469 16.8438 7.48212V6.125C16.8438 5.88306 16.6482 5.6875 16.4062 5.6875H13.7812C11.6099 5.6875 9.84375 7.45369 9.84375 9.625V12.6875C9.84375 14.3023 10.7262 15.7124 12.0312 16.4701V17.0625H7.65625C6.20856 17.0625 5.03125 15.8852 5.03125 14.4375V14.2188C5.03125 13.3744 4.34437 12.6875 3.5 12.6875C2.65563 12.6875 1.96875 13.3744 1.96875 14.2188V14.4375C1.96875 17.5735 4.52025 20.125 7.65625 20.125H9.84375V23.6215C9.84331 23.6215 9.84331 23.6215 9.84288 23.6215C9.60094 23.6215 9.40538 23.8171 9.40538 24.059V26.6893C9.40538 26.9312 9.60094 27.1268 9.84288 27.1268H9.84375V27.5607C9.84375 27.8027 10.0393 27.9982 10.2812 27.9982C10.5232 27.9982 10.7188 27.8027 10.7188 27.5607V27.2676C10.9121 27.3223 11.1086 27.3862 11.3168 27.4566C12.0138 27.6929 12.88 27.9843 14.1413 27.9961C14.1676 27.9969 14.1925 28 14.2188 28C14.245 28 14.2699 27.9969 14.2962 27.9961C15.5575 27.9843 16.4233 27.6929 17.1202 27.4566C17.3294 27.3857 17.5254 27.3223 17.7188 27.2672V27.5625C17.7188 27.8044 17.9143 28 18.1562 28C18.3982 28 18.5938 27.8044 18.5938 27.5625V27.1268C18.8357 27.1268 19.0312 26.9312 19.0312 26.6893V24.059C19.0312 23.8171 18.8357 23.6215 18.5938 23.6215V20.125H20.7812ZM13.7812 6.5625H15.9688V7.875C15.9688 8.11694 16.1643 8.3125 16.4062 8.3125C17.1299 8.3125 17.7188 8.90094 17.7188 9.62412V10.1255L17.0887 9.69981C17.0704 9.68756 17.0489 9.6845 17.0293 9.67531C17.0056 9.66394 16.9837 9.65256 16.9584 9.646C16.9282 9.63769 16.898 9.63506 16.8669 9.63331C16.8416 9.632 16.8179 9.63069 16.7921 9.63331C16.7615 9.63725 16.7326 9.646 16.7033 9.6565C16.6858 9.66263 16.6679 9.66219 16.6508 9.67006C16.6425 9.674 15.8279 10.0625 14.4375 10.0625C13.0038 10.0625 11.7442 9.65169 11.7311 9.64731C11.7219 9.64425 11.7123 9.64644 11.7036 9.64381C11.6747 9.63594 11.6462 9.63462 11.6165 9.63331C11.5889 9.632 11.5614 9.62937 11.5342 9.63331C11.508 9.63725 11.4835 9.64644 11.4577 9.65519C11.4292 9.66438 11.4017 9.674 11.3754 9.68931C11.3667 9.69412 11.3571 9.69456 11.3487 9.69981L10.7188 10.1255V9.625C10.7188 7.93669 12.0929 6.5625 13.7812 6.5625ZM10.7188 12.6875V11.1812L11.6664 10.5416C12.1096 10.668 13.1998 10.9375 14.4375 10.9375C15.6008 10.9375 16.4119 10.6978 16.7926 10.556L17.7188 11.1812V12.6875C17.7188 14.6173 16.1486 16.1875 14.2188 16.1875C12.2889 16.1875 10.7188 14.6173 10.7188 12.6875ZM10.2804 26.2811V24.4672C10.7419 24.4086 11.1615 24.2686 11.5981 24.1203C11.7254 24.0769 11.858 24.0332 11.9932 23.9894C11.7416 24.3924 11.5938 24.8662 11.5938 25.375C11.5938 25.8829 11.7412 26.3559 11.9919 26.7584C11.8567 26.7146 11.725 26.6713 11.5981 26.628C11.1615 26.4797 10.7419 26.3397 10.2804 26.2811ZM15.9688 25.375C15.9688 26.3323 15.1961 27.1097 14.2424 27.1224C14.2341 27.1224 14.2271 27.1232 14.2188 27.1232C14.2104 27.1232 14.2034 27.1224 14.1951 27.1224C13.2409 27.1097 12.4688 26.3318 12.4688 25.375C12.4688 24.4099 13.2536 23.625 14.2188 23.625C15.1839 23.625 15.9688 24.4099 15.9688 25.375ZM16.8389 26.628C16.7121 26.6713 16.5804 26.7146 16.4456 26.7579C16.6963 26.3559 16.8438 25.8829 16.8438 25.375C16.8438 24.8662 16.6959 24.3924 16.4443 23.9899C16.5799 24.0332 16.7116 24.0769 16.8389 24.1203C17.276 24.2686 17.6947 24.4086 18.1562 24.4672V26.2811C17.6947 26.3397 17.276 26.4797 16.8389 26.628ZM17.1202 23.2916C16.4089 23.0506 15.5234 22.75 14.2188 22.75C12.9141 22.75 12.0282 23.0506 11.3168 23.2916C11.1081 23.3621 10.9121 23.4259 10.7188 23.4806V19.6875C10.7188 19.4456 10.5232 19.25 10.2812 19.25C10.276 19.25 10.2721 19.2526 10.2668 19.2531C10.2616 19.2526 10.2572 19.25 10.2524 19.25H7.65625C5.00281 19.25 2.84375 17.0909 2.84375 14.4375V14.2188C2.84375 13.8569 3.13819 13.5625 3.5 13.5625C3.86181 13.5625 4.15625 13.8569 4.15625 14.2188V14.4375C4.15625 16.3673 5.72644 17.9375 7.65625 17.9375H12.4688C12.7107 17.9375 12.9062 17.7419 12.9062 17.5V16.8608C13.3206 16.9916 13.7616 17.0625 14.2188 17.0625C14.6759 17.0625 15.1169 16.9916 15.5312 16.8608V17.5C15.5312 17.7419 15.7268 17.9375 15.9688 17.9375H20.7812C22.7111 17.9375 24.2812 16.3673 24.2812 14.4375V14.2188C24.2812 13.8569 24.5757 13.5625 24.9375 13.5625C25.2993 13.5625 25.5938 13.8569 25.5938 14.2188V14.4375C25.5938 17.0909 23.4347 19.25 20.7812 19.25H18.1842C18.179 19.25 18.1751 19.2526 18.1702 19.2531C18.1654 19.2526 18.1615 19.25 18.1562 19.25C17.9143 19.25 17.7188 19.4456 17.7188 19.6875V23.4811C17.5254 23.4259 17.3289 23.3625 17.1202 23.2916Z" fill="#43BF41"/>
<path d="M3.84314 7.30746L4.71814 8.18246C4.80345 8.26777 4.91545 8.31065 5.02745 8.31065C5.13945 8.31065 5.25145 8.26777 5.33677 8.18246C5.50783 8.0114 5.50783 7.7349 5.33677 7.56384L4.77108 6.99815L5.33677 6.43247C5.50783 6.2614 5.50783 5.9849 5.33677 5.81384L4.77108 5.24815L5.33677 4.68247C5.50783 4.51141 5.50783 4.23491 5.33677 4.06384C5.1657 3.89278 4.8892 3.89278 4.71814 4.06384L3.84314 4.93884C3.67208 5.1099 3.67208 5.3864 3.84314 5.55747L4.40883 6.12315L3.84314 6.68884C3.67208 6.8599 3.67208 7.13684 3.84314 7.30746Z" fill="#E50E0F"/>
<path d="M20.472 6.87289C20.5574 6.9582 20.6694 7.00108 20.7814 7.00108C20.8934 7.00108 21.0054 6.9582 21.0907 6.87289L21.9657 5.99789C22.1367 5.82683 22.1367 5.55033 21.9657 5.37927L21.4 4.81358L21.9657 4.24789C22.1367 4.07683 22.1367 3.80033 21.9657 3.62927L21.4 3.06358L21.9657 2.4979C22.1367 2.32683 22.1367 2.05033 21.9657 1.87927L21.0907 1.00427C20.9196 0.833211 20.6431 0.833211 20.472 1.00427C20.301 1.17534 20.301 1.45184 20.472 1.6229L21.0377 2.18858L20.472 2.75427C20.301 2.92533 20.301 3.20183 20.472 3.3729L21.0377 3.93858L20.472 4.50427C20.301 4.67533 20.301 4.95183 20.472 5.12289L21.0377 5.68858L20.472 6.25427C20.301 6.42533 20.301 6.70183 20.472 6.87289Z" fill="#E50E0F"/>
<path d="M8.11156 11.8184C8.11156 11.5764 7.91556 11.3809 7.67406 11.3809H7.66925C7.42775 11.3809 7.23438 11.5764 7.23438 11.8184C7.23438 12.0603 7.43213 12.2559 7.67406 12.2559C7.91556 12.2559 8.11156 12.0599 8.11156 11.8184Z" fill="#E50E0F"/>
<path d="M1.54472 1.30957H1.54034C1.29884 1.30957 1.10547 1.50513 1.10547 1.74707C1.10547 1.98901 1.30322 2.18457 1.54516 2.18457C1.78666 2.18457 1.98266 1.98901 1.98266 1.74707C1.98266 1.50513 1.78622 1.30957 1.54472 1.30957Z" fill="#E50E0F"/>
<path d="M21.2278 10.9375C20.9863 10.9375 20.793 11.1331 20.793 11.375C20.793 11.6169 20.9907 11.8125 21.2327 11.8125C21.4742 11.8125 21.6702 11.6169 21.6702 11.375C21.6702 11.1331 21.4742 10.9375 21.2327 10.9375H21.2278Z" fill="#E50E0F"/>
<path d="M10.7148 0C10.4729 0 10.2773 0.195563 10.2773 0.4375V0.875C10.0354 0.875 9.83984 1.07056 9.83984 1.3125C9.83984 1.55444 10.0354 1.75 10.2773 1.75V2.1875C10.2773 2.42944 10.4729 2.625 10.7148 2.625C10.9568 2.625 11.1523 2.42944 11.1523 2.1875V1.75C11.3943 1.75 11.5898 1.55444 11.5898 1.3125C11.5898 1.07056 11.3943 0.875 11.1523 0.875V0.4375C11.1523 0.195563 10.9568 0 10.7148 0Z" fill="#E50E0F"/>
<path d="M26.4688 7.87402C26.7107 7.87402 26.9062 7.67846 26.9062 7.43652C26.9062 7.19458 26.7107 6.99902 26.4688 6.99902V6.56152C26.4688 6.31959 26.2732 6.12402 26.0312 6.12402C25.7893 6.12402 25.5938 6.31959 25.5938 6.56152V6.99902C25.3518 6.99902 25.1562 7.19458 25.1562 7.43652C25.1562 7.67846 25.3518 7.87402 25.5938 7.87402V8.31152C25.5938 8.55345 25.7893 8.74902 26.0312 8.74902C26.2732 8.74902 26.4688 8.55345 26.4688 8.31152V7.87402Z" fill="#E50E0F"/>
<path d="M14.2188 26.6875C14.9424 26.6875 15.5313 26.0986 15.5313 25.375C15.5313 24.6514 14.9424 24.0625 14.2188 24.0625C13.4951 24.0625 12.9062 24.6514 12.9062 25.375C12.9062 26.0986 13.4951 26.6875 14.2188 26.6875ZM14.2188 24.9375C14.4603 24.9375 14.6563 25.1335 14.6563 25.375C14.6563 25.6165 14.4603 25.8125 14.2188 25.8125C13.9773 25.8125 13.7813 25.6165 13.7813 25.375C13.7813 25.1335 13.9773 24.9375 14.2188 24.9375Z" fill="#43BF41"/>
</svg>
