<svg width="28" height="28" viewBox="0 0 28 28" fill="none" xmlns="http://www.w3.org/2000/svg">
<g clip-path="url(#clip0)">
<path d="M13.9991 0C7.61328 0 2.41797 5.19526 2.41797 11.5811V17.6305C2.41797 19.7541 3.40803 21.447 3.40803 21.447C7.17934 27.2515 13.212 27.9373 13.212 27.9373C13.4213 27.9701 13.6993 28.0001 14.0184 28.0001C14.2403 28.0001 14.482 27.9856 14.7343 27.9477C14.7343 27.9477 17.1293 27.3365 18.221 26.8399C18.43 26.7448 18.5224 26.4983 18.4274 26.2892C18.3323 26.0801 18.0856 25.9878 17.8766 26.0829C16.8468 26.5513 15.745 26.9024 14.6019 27.1265C14.0995 27.2008 13.6451 27.1627 13.3493 27.1169C11.0243 26.6537 9.1605 25.7246 7.70034 24.6748C8.18291 23.8486 8.43622 22.9135 8.43622 21.9467C8.43622 20.3462 7.9413 19.0571 6.96523 18.1151C5.72514 16.9183 4.03327 16.6242 3.24977 16.5524V11.5811C3.24977 7.91749 5.09252 4.67666 7.89935 2.7352V6.19276C7.89935 7.08881 8.62834 7.81785 9.52444 7.81785C10.4206 7.81785 11.1495 7.08887 11.1495 6.19276V1.21581C12.0574 0.965945 13.0129 0.831688 13.9992 0.831688C14.9855 0.831688 15.9409 0.965945 16.8489 1.21581V6.1927C16.8489 7.08876 17.5779 7.8178 18.474 7.8178C19.3701 7.8178 20.099 7.08881 20.099 6.1927V2.73514C22.9059 4.6766 24.7486 7.91744 24.7486 11.5811V16.5526C23.9651 16.6245 22.2732 16.9182 21.0332 18.1151C20.0571 19.057 19.5622 20.3462 19.5622 21.9466C19.5622 22.9146 19.8162 23.8508 20.2999 24.6778C19.9237 24.9482 19.5215 25.2103 19.0915 25.4582C18.8925 25.5729 18.8242 25.8272 18.9389 26.0262C19.0536 26.2252 19.3115 26.2994 19.5068 26.1787C23.425 23.7584 24.6043 21.4248 24.6043 21.4248C24.6441 21.3575 25.5803 19.7539 25.5803 17.6303V11.5811C25.5802 5.19526 20.3849 0 13.9991 0ZM5.74685 22.9926C5.03564 22.2642 3.85253 21.2218 3.41345 19.0986C4.28484 19.2817 5.94105 19.8991 5.94105 21.9467C5.94105 22.3063 5.87444 22.6604 5.74685 22.9926ZM6.42405 18.7493C7.20728 19.5256 7.60437 20.6014 7.60437 21.9467C7.60437 22.7301 7.40733 23.4884 7.0325 24.165C6.80494 23.9807 6.58887 23.7945 6.38407 23.6081C6.63886 23.0931 6.77268 22.5252 6.77268 21.9468C6.77268 20.8926 6.4287 20.0255 5.7503 19.3693C4.93195 18.5778 3.84837 18.317 3.27815 18.2322C3.26016 18.0375 3.2496 17.3858 3.2496 17.3858C3.94654 17.4559 5.38991 17.7241 6.42405 18.7493ZM10.3177 6.1927C10.3177 6.63015 9.96184 6.98611 9.52439 6.98611C9.08695 6.98611 8.73098 6.6302 8.73098 6.1927V2.21413C9.23619 1.92888 9.76633 1.68279 10.3178 1.48121V6.1927H10.3177ZM19.2672 6.1927C19.2672 6.63015 18.9113 6.98611 18.4738 6.98611C18.0363 6.98611 17.6805 6.6302 17.6805 6.1927V1.48116C18.232 1.68273 18.762 1.92883 19.2673 2.21408V6.1927H19.2672ZM22.2522 22.9951C22.124 22.6622 22.0571 22.3072 22.0571 21.9468C22.0571 20.7909 22.5425 19.9531 23.4999 19.4566C23.8883 19.2551 24.2853 19.1471 24.5868 19.0892C24.312 20.7782 22.9512 22.2778 22.2522 22.9951ZM24.7205 18.2268C24.1484 18.304 23.0599 18.551 22.2477 19.3366C21.5694 19.9927 21.2254 20.8708 21.2254 21.9468C21.2254 22.5264 21.3598 23.0952 21.6155 23.6111C21.4106 23.7979 21.1944 23.984 20.9673 24.1681C20.5914 23.4907 20.3938 22.7312 20.3938 21.9468C20.3938 20.6014 20.7909 19.5257 21.5741 18.7493C22.6084 17.7242 24.0517 17.456 24.7486 17.3858C24.7485 17.3858 24.7382 18.0338 24.7205 18.2268Z" fill="#43BF41"/>
<path d="M14.002 13.9492C12.6336 13.9492 11.7656 16.5589 11.7656 17.6605C11.7656 19.2517 13.3903 19.2517 14.002 19.2517C14.6137 19.2517 16.2384 19.2517 16.2384 17.6605C16.2384 16.5588 15.3705 13.9492 14.002 13.9492ZM14.002 18.4199C12.7008 18.4199 12.5973 18.0908 12.5973 17.6605C12.5973 16.6435 13.4232 14.7809 14.002 14.7809C14.5809 14.7809 15.4067 16.6435 15.4067 17.6605C15.4067 18.0908 15.3033 18.4199 14.002 18.4199Z" fill="#43BF41"/>
<path d="M12.321 13.2311C12.1068 12.6603 11.683 12.2071 11.1279 11.9551C10.5467 11.6911 9.22626 11.4062 8.1067 11.4062C7.02673 11.4062 6.35954 11.6697 6.12351 12.1894C5.85472 12.7814 6.19991 13.5693 7.14945 14.5315C7.80302 15.1937 8.68245 15.8582 9.24048 16.1116C9.53962 16.2474 9.85676 16.3162 10.1831 16.3162C11.0768 16.3162 11.8931 15.7906 12.2625 14.9771C12.5145 14.4219 12.5353 13.8019 12.321 13.2311ZM11.5051 14.6332C11.0417 15.6999 9.77467 15.4408 9.5843 15.3543C9.17972 15.1706 8.37976 14.5941 7.74139 13.9472C6.98632 13.1822 6.81307 12.6825 6.88082 12.5332C6.9272 12.4311 7.24313 12.2379 8.1067 12.2379C9.08326 12.2379 10.2795 12.4832 10.784 12.7123C11.5124 13.0431 11.8239 13.8995 11.5051 14.6332Z" fill="#43BF41"/>
<path d="M21.8756 12.1894C21.6396 11.6697 20.9724 11.4062 19.8924 11.4062C18.7728 11.4062 17.4525 11.6911 16.8712 11.955C16.3161 12.2071 15.8924 12.6603 15.6781 13.2311C15.4638 13.8018 15.4847 14.4219 15.7367 14.977C16.1061 15.7905 16.9223 16.3162 17.8161 16.3162C17.8162 16.3163 17.8162 16.3163 17.8163 16.3163C18.1426 16.3163 18.4597 16.2475 18.7588 16.1117C19.3168 15.8583 20.1962 15.1937 20.8498 14.5315C21.7992 13.5693 22.1444 12.7814 21.8756 12.1894ZM20.2577 13.9472C19.6193 14.5941 18.8194 15.1706 18.4148 15.3543C18.2245 15.4408 16.902 15.6396 16.494 14.6332C16.1935 13.8919 16.4867 13.0431 17.2151 12.7124C17.7196 12.4833 18.9158 12.2379 19.8924 12.2379C20.756 12.2379 21.0719 12.4311 21.1183 12.5333C21.1861 12.6825 21.0128 13.1822 20.2577 13.9472Z" fill="#43BF41"/>
<path d="M15.501 19.6406H12.5052C11.7549 19.6406 11.1445 20.251 11.1445 21.0013C11.1445 21.7516 11.755 22.362 12.5052 22.362H15.501C16.2514 22.362 16.8617 21.7516 16.8617 21.0013C16.8617 20.251 16.2514 19.6406 15.501 19.6406ZM15.5011 21.5303H12.5053C12.2136 21.5303 11.9763 21.293 11.9763 21.0013C11.9763 20.7096 12.2136 20.4723 12.5053 20.4723H15.5011C15.7927 20.4723 16.0301 20.7096 16.0301 21.0013C16.0301 21.293 15.7928 21.5303 15.5011 21.5303Z" fill="#43BF41"/>
<path d="M6.39729 14.955C6.33566 14.8888 6.27474 14.8221 6.21485 14.7547C6.06217 14.5831 5.79934 14.5678 5.62773 14.7203C5.45612 14.873 5.44081 15.1359 5.59344 15.3075C5.65759 15.3796 5.71419 15.4603 5.78884 15.5221C6.03821 15.7284 6.29645 15.6174 6.37656 15.5427C6.54462 15.3862 6.55386 15.123 6.39729 14.955Z" fill="#E50E0F"/>
<path d="M23.9216 11.2308C23.3535 9.99946 21.5382 9.7363 20.1154 9.73242C20.1053 9.73242 20.0955 9.73242 20.0853 9.73242C18.5463 9.73242 16.7766 10.0542 15.7718 10.5179C15.0333 10.8586 14.4184 11.414 14.0017 12.0996C13.5851 11.414 12.9702 10.8586 12.2317 10.5179C11.2202 10.0512 9.43375 9.73018 7.88806 9.73248C6.46526 9.73636 4.64996 9.99952 4.08187 11.2309C3.71918 12.0168 3.96106 13.0695 4.78127 14.275C4.91038 14.4648 5.16906 14.5141 5.35893 14.3849C5.54881 14.2557 5.59803 13.997 5.4688 13.8071C4.83103 12.8697 4.6066 12.0785 4.83694 11.5792C5.12815 10.948 6.26953 10.5685 7.8902 10.5641C9.32563 10.5598 10.9699 10.8517 11.8831 11.273C12.702 11.6509 13.3299 12.3608 13.6056 13.2207C13.6608 13.3928 13.8209 13.5095 14.0016 13.5095C14.1824 13.5095 14.3424 13.3928 14.3976 13.2207C14.6734 12.3607 15.3012 11.6508 16.1202 11.273C17.0333 10.8517 18.6748 10.5584 20.1131 10.5641C21.7337 10.5685 22.8751 10.948 23.1663 11.5792C23.4575 12.2104 23.0056 13.3251 21.9572 14.561C21.0271 15.6574 19.7398 16.7174 18.8265 17.1388C18.4118 17.3302 17.9705 17.43 17.5147 17.4355C17.3757 17.4372 17.2468 17.5082 17.171 17.6248C17.0953 17.7413 17.0828 17.888 17.1377 18.0157C17.5004 18.8588 18.2508 20.9611 17.3882 22.2713C16.8456 23.0953 15.7195 23.5131 14.0412 23.5131C12.352 23.5131 11.2102 23.0894 10.6474 22.2538C9.76264 20.9399 10.4592 18.8463 10.7998 18.0071C10.8509 17.8811 10.8372 17.738 10.763 17.6239C10.6887 17.5098 10.5634 17.4394 10.4274 17.4352C9.99446 17.4216 9.5737 17.322 9.17672 17.1388C8.65128 16.8964 7.96162 16.4149 7.28464 15.8178C7.11243 15.6659 6.8496 15.6824 6.69774 15.8546C6.54581 16.0268 6.56228 16.2896 6.73454 16.4415C7.46954 17.0898 8.2327 17.6192 8.82831 17.894C9.1526 18.0436 9.48975 18.1489 9.83581 18.209C9.40313 19.4607 9.02808 21.3379 9.95755 22.7183C10.6843 23.7976 12.0582 24.3448 14.0411 24.3448C16.0168 24.3448 17.3766 23.8011 18.0827 22.7286C18.9898 21.3511 18.5761 19.4747 18.1133 18.2174C18.4787 18.1594 18.8339 18.0513 19.1749 17.894C20.1864 17.4273 21.5912 16.278 22.5913 15.099C23.5118 14.014 24.4897 12.4621 23.9216 11.2308Z" fill="#E50E0F"/>
<path d="M22.981 7.37837C22.5508 6.46268 21.984 5.61924 21.2961 4.8716C21.1406 4.70256 20.8775 4.69163 20.7085 4.84716C20.5395 5.00263 20.5285 5.26574 20.6841 5.43472C21.3146 6.12001 21.8342 6.89296 22.2282 7.73193C22.299 7.88265 22.4815 8.06732 22.7814 7.93154C22.9906 7.83682 23.0786 7.58624 22.981 7.37837Z" fill="#E50E0F"/>
<path d="M23.6181 9.1507C23.5724 8.97013 23.5209 8.7884 23.465 8.61055C23.3961 8.39148 23.1626 8.26963 22.9435 8.33865C22.7244 8.40755 22.6027 8.64102 22.6716 8.86009C22.7229 9.02295 22.7796 9.18713 22.8118 9.35458C22.8869 9.74472 23.2828 9.66439 23.3169 9.6558C23.5395 9.59947 23.6744 9.37339 23.6181 9.1507Z" fill="#E50E0F"/>
</g>
<defs>
<clipPath id="clip0">
<rect width="28" height="28" fill="white"/>
</clipPath>
</defs>
</svg>
