<svg width="28" height="28" viewBox="0 0 28 28" fill="none" xmlns="http://www.w3.org/2000/svg">
<path d="M2.625 23.1875C2.625 23.4291 2.82088 23.625 3.0625 23.625C3.30412 23.625 3.5 23.4291 3.5 23.1875C3.5 22.9459 3.30412 22.75 3.0625 22.75C2.82088 22.75 2.625 22.9459 2.625 23.1875Z" fill="#43BF41"/>
<path d="M24.9375 12.2872V9.1875C24.9375 8.8394 24.7992 8.50556 24.5531 8.25942C24.3069 8.01328 23.9731 7.875 23.625 7.875H22.75V6.5625C22.75 6.44647 22.7039 6.33519 22.6219 6.25314C22.5398 6.17109 22.4285 6.125 22.3125 6.125H21V0.875H20.125V6.125H18.8125C18.6965 6.125 18.5852 6.17109 18.5031 6.25314C18.4211 6.33519 18.375 6.44647 18.375 6.5625V7.875H17.5C17.1519 7.875 16.8181 8.01328 16.5719 8.25942C16.3258 8.50556 16.1875 8.8394 16.1875 9.1875V12.285C15.5214 12.3815 14.9056 12.6948 14.4354 13.1764C13.9651 13.658 13.6667 14.2811 13.5861 14.9494C13.1141 14.4545 12.4895 14.1325 11.8125 14.035V10.9375C11.8125 10.5894 11.6742 10.2556 11.4281 10.0094C11.1819 9.76328 10.8481 9.625 10.5 9.625H9.625V8.3125C9.625 8.19647 9.57891 8.08519 9.49686 8.00314C9.41481 7.92109 9.30353 7.875 9.1875 7.875H7.875V0.875H7V7.875H5.6875C5.57147 7.875 5.46019 7.92109 5.37814 8.00314C5.29609 8.08519 5.25 8.19647 5.25 8.3125V9.625H4.375C4.0269 9.625 3.69306 9.76328 3.44692 10.0094C3.20078 10.2556 3.0625 10.5894 3.0625 10.9375V14.0372C1.73819 14.2463 0.875 15.4074 0.875 17.0625V24.0625C0.875926 24.8744 1.19888 25.6529 1.77301 26.227C2.34714 26.8011 3.12556 27.1241 3.9375 27.125H10.0625C10.8744 27.1241 11.6529 26.8011 12.227 26.227C12.8011 25.6529 13.1241 24.8744 13.125 24.0625V22.3125C13.4731 22.3125 13.8069 22.1742 14.0531 21.9281C14.2992 21.6819 14.4375 21.3481 14.4375 21V20.1149C14.5725 20.2193 14.7194 20.3074 14.875 20.3774V22.3125C14.8759 23.1244 15.1989 23.9029 15.773 24.477C16.3471 25.0511 17.1256 25.3741 17.9375 25.375H24.0625C24.8744 25.3741 25.6529 25.0511 26.227 24.477C26.8011 23.9029 27.1241 23.1244 27.125 22.3125V15.3125C27.125 13.6574 26.2618 12.4963 24.9375 12.2872ZM17.0625 11.375H24.0625V12.25H17.0625V11.375ZM19.25 7H21.875V7.875H19.25V7ZM17.0625 9.1875C17.0625 9.07147 17.1086 8.96019 17.1906 8.87814C17.2727 8.79609 17.384 8.75 17.5 8.75H23.625C23.741 8.75 23.8523 8.79609 23.9344 8.87814C24.0164 8.96019 24.0625 9.07147 24.0625 9.1875V10.5H17.0625V9.1875ZM3.9375 13.125H10.9375V14H3.9375V13.125ZM6.125 8.75H8.75V9.625H6.125V8.75ZM3.9375 10.9375C3.9375 10.8215 3.98359 10.7102 4.06564 10.6281C4.14769 10.5461 4.25897 10.5 4.375 10.5H10.5C10.616 10.5 10.7273 10.5461 10.8094 10.6281C10.8914 10.7102 10.9375 10.8215 10.9375 10.9375V12.25H3.9375V10.9375ZM12.25 24.0625C12.2493 24.6424 12.0186 25.1984 11.6085 25.6085C11.1984 26.0186 10.6424 26.2493 10.0625 26.25H3.9375C3.35755 26.2493 2.80156 26.0186 2.39147 25.6085C1.98139 25.1984 1.75069 24.6424 1.75 24.0625V17.0625C1.75 16.0051 2.20981 14.875 3.5 14.875H11.375C11.9549 14.8757 12.5109 15.1064 12.921 15.5165C13.3311 15.9266 13.5618 16.4826 13.5625 17.0625V17.9375H10.6877C10.2108 17.4278 9.625 16.625 9.625 16.1875H8.75C8.83477 16.8365 9.11056 17.4456 9.54231 17.9375H3.9375C3.5894 17.9375 3.25556 18.0758 3.00942 18.3219C2.76328 18.5681 2.625 18.9019 2.625 19.25V21.875H3.5V19.25C3.5 19.134 3.54609 19.0227 3.62814 18.9406C3.71019 18.8586 3.82147 18.8125 3.9375 18.8125H8.76137C8.47183 19.1889 8.31411 19.6501 8.3125 20.125C8.31319 20.7049 8.54389 21.2609 8.95397 21.671C9.36406 22.0811 9.92005 22.3118 10.5 22.3125H12.25V24.0625ZM13.5625 21C13.5625 21.116 13.5164 21.2273 13.4344 21.3094C13.3523 21.3914 13.241 21.4375 13.125 21.4375H10.5C10.1519 21.4375 9.81806 21.2992 9.57192 21.0531C9.32578 20.8069 9.1875 20.4731 9.1875 20.125C9.1875 19.7769 9.32578 19.4431 9.57192 19.1969C9.81806 18.9508 10.1519 18.8125 10.5 18.8125H13.5625V21ZM26.25 22.3125C26.2493 22.8924 26.0186 23.4484 25.6085 23.8585C25.1984 24.2686 24.6424 24.4993 24.0625 24.5H17.9375C17.3576 24.4993 16.8016 24.2686 16.3915 23.8585C15.9814 23.4484 15.7507 22.8924 15.75 22.3125V20.5625C16.3299 20.5618 16.8859 20.3311 17.296 19.921C17.7061 19.5109 17.9368 18.9549 17.9375 18.375V16.625H17.0625V18.375C17.0641 18.5735 17.0203 18.7697 16.9345 18.9487C16.8486 19.1277 16.723 19.2847 16.5672 19.4076C16.4113 19.5306 16.2295 19.6163 16.0354 19.6582C15.8414 19.7001 15.6404 19.6971 15.4477 19.6494C15.4442 19.6494 15.442 19.6459 15.4385 19.6451C15.1534 19.5763 14.8996 19.4137 14.7181 19.1834C14.5365 18.953 14.4377 18.6683 14.4375 18.375V15.3125C14.4382 14.7326 14.6689 14.1766 15.079 13.7665C15.4891 13.3564 16.0451 13.1257 16.625 13.125H24.5C25.7902 13.125 26.25 14.2551 26.25 15.3125V22.3125Z" fill="#43BF41"/>
<path fill-rule="evenodd" clip-rule="evenodd" d="M14.4393 20.1336V20.1149C14.5744 20.2193 14.7212 20.3074 14.8768 20.3774V22.3125C14.8778 23.1244 15.2007 23.9029 15.7748 24.477C16.349 25.0511 17.1274 25.3741 17.9393 25.375H24.0643C24.8763 25.3741 25.6547 25.0511 26.2288 24.477C26.803 23.9029 27.1259 23.1244 27.1268 22.3125V15.3125C27.1268 13.6574 26.2637 12.4963 24.9393 12.2872V9.1875C24.9393 8.8394 24.8011 8.50556 24.5549 8.25942C24.3088 8.01328 23.9749 7.875 23.6268 7.875H22.7518V6.5625C22.7518 6.44647 22.7057 6.33519 22.6237 6.25314C22.5417 6.17109 22.4304 6.125 22.3143 6.125H21.0018V0.875H20.1268V6.125H18.8143C18.6983 6.125 18.587 6.17109 18.505 6.25314C18.4229 6.33519 18.3768 6.44647 18.3768 6.5625V7.875H17.5018C17.1537 7.875 16.8199 8.01328 16.5738 8.25942C16.3276 8.50556 16.1893 8.8394 16.1893 9.1875V12.285C15.5232 12.3815 14.9074 12.6948 14.4372 13.1764C13.967 13.658 13.6685 14.2811 13.588 14.9494C13.586 14.9473 13.584 14.9452 13.582 14.9432V19.32V19.46L14.4393 20.1336ZM24.0643 11.375H17.0643V12.25H24.0643V11.375ZM21.8768 7H19.2518V7.875H21.8768V7ZM17.1925 8.87814C17.1104 8.96019 17.0643 9.07147 17.0643 9.1875V10.5H24.0643V9.1875C24.0643 9.07147 24.0182 8.96019 23.9362 8.87814C23.8542 8.79609 23.7429 8.75 23.6268 8.75H17.5018C17.3858 8.75 17.2745 8.79609 17.1925 8.87814ZM25.6104 23.8585C26.0205 23.4484 26.2511 22.8924 26.2518 22.3125V15.3125C26.2518 14.2551 25.792 13.125 24.5018 13.125H16.6268C16.0469 13.1257 15.4909 13.3564 15.0808 13.7665C14.6707 14.1766 14.44 14.7326 14.4393 15.3125V18.375C14.4395 18.6683 14.5383 18.953 14.7199 19.1834C14.9014 19.4137 15.1552 19.5763 15.4403 19.6451C15.4419 19.6455 15.4432 19.6464 15.4445 19.6472C15.446 19.6484 15.4476 19.6494 15.4495 19.6494C15.6422 19.6971 15.8433 19.7001 16.0373 19.6582C16.2313 19.6163 16.4132 19.5306 16.569 19.4076C16.7248 19.2847 16.8505 19.1277 16.9363 18.9487C17.0222 18.7697 17.066 18.5735 17.0643 18.375V16.625H17.9393V18.375C17.9386 18.9549 17.708 19.5109 17.2979 19.921C16.8878 20.3311 16.3318 20.5618 15.7518 20.5625V22.3125C15.7525 22.8924 15.9832 23.4484 16.3933 23.8585C16.8034 24.2686 17.3594 24.4993 17.9393 24.5H24.0643C24.6443 24.4993 25.2003 24.2686 25.6104 23.8585Z" fill="#E50E0F"/>
<path d="M17.0625 15.3125C17.0625 15.5541 17.2584 15.75 17.5 15.75C17.7416 15.75 17.9375 15.5541 17.9375 15.3125C17.9375 15.0709 17.7416 14.875 17.5 14.875C17.2584 14.875 17.0625 15.0709 17.0625 15.3125Z" fill="#E50E0F"/>
<path d="M22.75 23.1875C22.75 23.4291 22.9459 23.625 23.1875 23.625C23.4291 23.625 23.625 23.4291 23.625 23.1875C23.625 22.9459 23.4291 22.75 23.1875 22.75C22.9459 22.75 22.75 22.9459 22.75 23.1875Z" fill="#E50E0F"/>
<path d="M24.0625 21.875C24.0625 22.1166 24.2584 22.3125 24.5 22.3125C24.7416 22.3125 24.9375 22.1166 24.9375 21.875C24.9375 21.6334 24.7416 21.4375 24.5 21.4375C24.2584 21.4375 24.0625 21.6334 24.0625 21.875Z" fill="#E50E0F"/>
</svg>
