<svg width="28" height="28" viewBox="0 0 28 28" fill="none" xmlns="http://www.w3.org/2000/svg">
<g clip-path="url(#clip0)">
<path d="M24.5453 20.6894H23.7871V2.47525C23.7871 2.33276 23.7314 2.19583 23.632 2.09372L21.7552 0.165344C21.7549 0.165131 21.7545 0.164917 21.7543 0.16449C21.7421 0.1521 21.7295 0.14035 21.7163 0.129242C21.7156 0.128815 21.7152 0.128387 21.7146 0.127747C21.6195 0.0480652 21.4973 0 21.3636 0H21.3634C21.3448 0 21.3264 0.000854492 21.308 0.0027771C21.2343 0.0102539 21.1649 0.0322571 21.1028 0.0662232C21.0912 0.0724182 21.0803 0.0794678 21.0694 0.0863037C21.0654 0.0888672 21.0613 0.0910034 21.0575 0.0935669C21.0461 0.101257 21.0352 0.109802 21.0244 0.118347C21.0214 0.120911 21.0182 0.122833 21.0152 0.125397C21.0051 0.133728 20.9957 0.1427 20.9861 0.151672C20.9827 0.15509 20.9791 0.158081 20.9759 0.161499C20.9744 0.162781 20.9729 0.164062 20.9714 0.165558L19.0945 2.09372C18.9951 2.19583 18.9396 2.33276 18.9396 2.47525V6.55652C17.1819 4.4957 14.5678 3.1864 11.6534 3.1864C6.37344 3.1864 2.07812 7.48172 2.07812 12.7614C2.07812 18.0409 6.37344 22.336 11.6534 22.336C14.5678 22.336 17.1819 21.0267 18.9396 18.9659V20.6896H18.193C17.4039 20.6896 16.7619 21.3315 16.7619 22.1205C16.7619 22.9096 17.4039 23.5515 18.193 23.5515H19.6668L19.9481 26.9062H19.6834C19.3814 26.9062 19.1366 27.1511 19.1366 27.4531C19.1366 27.7552 19.3814 28 19.6834 28H23.1617C23.4637 28 23.7085 27.7552 23.7085 27.4531C23.7085 27.1511 23.4637 26.9062 23.1617 26.9062H22.9337L23.1832 23.5513H24.5451C25.3342 23.5513 25.9761 22.9094 25.9761 22.1205C25.9761 21.3313 25.3342 20.6894 24.5453 20.6894ZM11.6531 21.242C6.9765 21.242 3.17188 17.4376 3.17188 12.7614C3.17188 8.08478 6.9765 4.28015 11.6531 4.28015C15.4204 4.28015 18.6213 6.74921 19.7238 10.1539C19.9355 10.811 20.0682 11.4929 20.1143 12.1819C20.1609 12.8755 20.1237 13.5736 20.0015 14.2581C19.9338 14.6383 19.839 15.013 19.7202 15.3802C18.6138 18.7787 15.4161 21.242 11.6531 21.242ZM20.7364 15.7921C20.9972 15.0085 21.1562 14.1931 21.2085 13.369C21.2598 12.5617 21.2089 11.7476 21.0562 10.9531C20.9701 10.5041 20.8515 10.0614 20.7018 9.62949C20.5226 9.11081 20.3 8.6073 20.0334 8.12579V2.69742L20.8167 1.89249V4.88235C20.8167 5.18442 21.0615 5.42923 21.3636 5.42923C21.6656 5.42923 21.9105 5.18442 21.9105 4.88235V1.89313L22.6934 2.69742V20.6894H21.9694V17.1883C21.9694 16.8865 21.7246 16.6414 21.4225 16.6414C21.1207 16.6414 20.8757 16.8865 20.8757 17.1883V20.6894H20.0334V17.3964C20.2982 16.9181 20.5198 16.418 20.6982 15.903C20.711 15.866 20.7238 15.8293 20.7364 15.7921ZM21.837 26.9062H21.0457L20.7642 23.5513H22.0865L21.837 26.9062ZM24.5453 22.4576H18.193C18.0069 22.4576 17.8557 22.3063 17.8557 22.1205C17.8557 21.9344 18.0069 21.7831 18.193 21.7831H24.5453C24.7311 21.7831 24.8824 21.9344 24.8824 22.1205C24.8824 22.3063 24.7311 22.4576 24.5453 22.4576Z" fill="#43BF41"/>
<path d="M14.1227 5.8978C14.1109 5.89267 14.0989 5.88776 14.0868 5.88348C13.5427 5.69101 12.9798 5.56497 12.406 5.50623C11.9078 5.45496 11.4037 5.45496 10.9055 5.50623C10.3317 5.56497 9.76901 5.69101 9.22491 5.88348C9.21274 5.88776 9.20099 5.89267 9.18924 5.89758C6.37839 6.91101 4.36328 9.60501 4.36328 12.7611C4.36328 15.9174 6.37903 18.6114 9.19095 19.6244C9.20206 19.6293 9.21317 19.6338 9.2247 19.6378C9.59726 19.7696 9.97858 19.87 10.3663 19.9392C10.3665 19.9392 10.3665 19.9395 10.3667 19.9395C10.5451 19.9713 10.7245 19.9967 10.9053 20.0151C11.4037 20.0663 11.9078 20.0663 12.4062 20.0151C12.98 19.9565 13.5427 19.8303 14.0868 19.6378C14.0985 19.6338 14.1096 19.6291 14.1209 19.6244C16.9324 18.6114 18.9482 15.9174 18.9482 12.7611C18.9482 9.60501 16.9333 6.91122 14.1227 5.8978ZM13.2086 18.7628C12.4162 18.9679 11.5827 19.0128 10.7728 18.8968C10.5472 18.8643 10.3232 18.8203 10.1027 18.7626C10.0529 18.7498 10.0034 18.7363 9.95401 18.7222V6.79929C10.0044 6.78476 10.0551 6.77087 10.1059 6.75784C10.8948 6.54956 11.7322 6.50897 12.5388 6.62476C12.7634 6.6568 12.9855 6.70187 13.2054 6.75763C13.2562 6.77087 13.3068 6.78476 13.3575 6.79929V18.7222C13.3081 18.7363 13.2585 18.7498 13.2086 18.7628ZM5.45703 12.7611C5.45703 10.3478 6.8428 8.25256 8.86026 7.22888V18.2926C6.8428 17.269 5.45703 15.174 5.45703 12.7611ZM14.4512 18.2926V7.22888C16.4687 8.25256 17.8544 10.3478 17.8544 12.7609C17.8544 15.174 16.4687 17.269 14.4512 18.2926Z" fill="#E50E0F"/>
<path d="M11.1459 9.6491C11.2333 9.85909 11.4495 9.99773 11.6774 9.98577C11.903 9.97402 12.1012 9.82149 12.1709 9.6068C12.2411 9.39083 12.1647 9.14367 11.9835 9.00588C11.7985 8.86531 11.5409 8.8572 11.3471 8.98516C11.1316 9.12764 11.0485 9.41134 11.1459 9.6491Z" fill="#E50E0F"/>
<path d="M12.1564 15.7511C12.0691 15.5324 11.8362 15.3952 11.6031 15.4162C11.3769 15.4367 11.1823 15.5995 11.1236 15.8193C11.0657 16.0361 11.1496 16.2747 11.3333 16.405C11.5203 16.5377 11.7734 16.5396 11.9625 16.4102C12.1733 16.2655 12.2526 15.9861 12.1564 15.7511Z" fill="#E50E0F"/>
<path d="M7.17715 9.6482C7.26453 9.85819 7.48135 9.99662 7.70908 9.98487C7.93402 9.97312 8.13354 9.82059 8.20233 9.6059C8.27197 9.38907 8.19678 9.14341 8.01498 9.00498C7.8302 8.8642 7.57236 8.8563 7.37881 8.98426C7.16327 9.12696 7.07953 9.41001 7.17715 9.6482Z" fill="#E50E0F"/>
<path d="M8.18809 15.7512C8.09709 15.533 7.87001 15.395 7.63417 15.4162C7.40132 15.4373 7.20415 15.6093 7.15074 15.8366C7.10033 16.0509 7.18877 16.2816 7.36885 16.4078C7.55235 16.5366 7.80016 16.5386 7.98686 16.4151C8.20241 16.2724 8.28572 15.9893 8.18809 15.7512Z" fill="#E50E0F"/>
<path d="M15.1459 9.6491C15.2333 9.85909 15.4495 9.99752 15.6774 9.98577C15.9021 9.97402 16.1025 9.82171 16.1713 9.6068C16.2407 9.38976 16.1653 9.14431 15.9833 9.00588C15.7983 8.86531 15.5409 8.8572 15.3471 8.98516C15.1316 9.12764 15.0485 9.41134 15.1459 9.6491Z" fill="#E50E0F"/>
<path d="M16.1568 15.7512C16.066 15.5333 15.8385 15.395 15.6028 15.4162C15.3764 15.4367 15.1828 15.5995 15.1237 15.8193C15.0656 16.0359 15.1495 16.2747 15.333 16.4051C15.5202 16.5377 15.7733 16.5396 15.9624 16.4102C16.1728 16.2658 16.2531 15.9861 16.1568 15.7512Z" fill="#E50E0F"/>
<path d="M21.363 7.38355C21.5943 7.38355 21.805 7.23188 21.88 7.01356C21.9541 6.7978 21.8832 6.55213 21.7048 6.40986C21.5285 6.2693 21.279 6.25178 21.0848 6.36607C20.8892 6.48143 20.7828 6.71598 20.8259 6.93922C20.8753 7.19322 21.1036 7.38355 21.363 7.38355Z" fill="#43BF41"/>
</g>
<defs>
<clipPath id="clip0">
<rect width="28" height="28" fill="white"/>
</clipPath>
</defs>
</svg>
