<svg width="28" height="28" viewBox="0 0 28 28" fill="none" xmlns="http://www.w3.org/2000/svg">
<path d="M26.9481 25.1557L25.9573 21.027C25.9044 20.8067 25.6829 20.6714 25.4627 20.7239C25.2424 20.7768 25.1067 20.9982 25.1596 21.2184L26.1504 25.3467C26.2024 25.5645 26.2288 25.7886 26.2288 26.0127V26.9516C26.2288 27.0774 26.1265 27.1797 26.0008 27.1797H23.3156L24.043 25.6883C24.0852 25.6017 24.0957 25.503 24.0725 25.4096L22.8106 20.3328L25.2206 19.6318C25.4156 19.5754 25.5625 19.3592 25.5049 19.1423L24.5442 15.1397C24.5394 13.8787 24.12 12.5134 23.3403 11.4346L18.9724 5.3241C18.5918 4.7921 18.0261 4.44172 17.3928 4.33606C17.5741 4.0221 17.6784 3.65838 17.6784 3.27053V1.89498C17.6784 0.850117 16.8283 0 15.7834 0H14.7106C13.6657 0 12.8156 0.850117 12.8156 1.89498V3.27048C12.7998 4.36384 13.7472 5.4128 14.9395 5.4087C14.8707 5.5253 13.9328 6.99688 13.8914 7.1068L10.9849 7.79182C10.1743 7.97541 9.38875 8.5138 8.91012 9.22534C8.38583 9.36534 7.95703 9.75149 7.76776 10.2682L7.35344 11.4007C6.68276 12.0024 5.96362 12.7372 5.76701 13.6786L4.97574 16.9432C4.91274 17.2023 4.8026 17.4425 4.64816 17.6577L1.2641 22.3844C0.632514 23.243 1.00357 24.7022 2.11684 25.0841L4.00854 25.7879C4.08964 25.818 4.17391 25.8328 4.25764 25.8328C4.40754 25.8328 4.55563 25.7853 4.68021 25.6932C4.87424 25.5499 4.98176 25.3205 4.96781 25.0791L4.89108 23.7736L8.19798 19.2226C8.37938 18.9723 8.51883 18.6963 8.61257 18.4019C8.61262 18.4016 8.61279 18.4014 8.61284 18.4011L8.91362 17.4532C9.07933 17.607 9.28063 17.72 9.506 17.7817L10.97 18.1829C11.1337 18.2311 11.4475 18.1379 11.4866 17.8277L11.537 17.3181L12.3989 17.7379C12.4567 17.7661 12.5179 17.7794 12.5782 17.7794C12.7302 17.7794 12.8762 17.6945 12.9472 17.5487C13.0464 17.3451 12.9617 17.0996 12.7581 17.0004L11.6231 16.4475L11.644 16.2358L12.5086 13.5947C13.3188 13.892 14.4088 13.7158 15.0979 13.0358C15.1786 13.2453 15.3297 13.5848 15.4496 13.8338L14.6678 14.6194L14.3156 14.4093C14.121 14.2933 13.8692 14.357 13.7532 14.5515C13.6372 14.7461 13.7009 14.9979 13.8954 15.1139L15.3168 15.9615L14.9353 16.189C14.9348 16.1893 14.9345 16.1896 14.9341 16.1898C14.4131 16.5006 14.0643 17.046 14.0009 17.6492L13.4775 22.599L12.5434 23.8285C12.3761 24.0494 12.3488 24.3408 12.4721 24.589C12.5954 24.8369 12.844 24.991 13.1208 24.991H19.114C19.3909 24.991 19.6394 24.837 19.7627 24.589C19.8861 24.3408 19.8588 24.0494 19.6911 23.8279L18.7574 22.599L18.3211 18.4755L21.1307 17.1074L21.1731 17.1451L23.2404 25.4626L22.5111 26.958C22.401 27.1841 22.4149 27.4464 22.5482 27.6596C22.6814 27.8727 22.9109 27.9999 23.162 27.9999H26.0008C26.5789 27.9999 27.0492 27.5296 27.0492 26.9516V26.0126C27.0492 25.7245 27.0152 25.4362 26.9481 25.1557ZM13.6359 1.89498C13.6359 1.30238 14.118 0.820312 14.7106 0.820312H15.7834C16.376 0.820312 16.8581 1.30238 16.8581 1.89498V3.27048C16.8581 3.99738 16.2667 4.58872 15.5398 4.58872H14.9542C14.6131 4.58872 14.3019 4.45851 14.0675 4.24517L14.4092 4.03085C14.6011 3.91048 14.659 3.65728 14.5386 3.46544C14.4182 3.27359 14.1651 3.21568 13.9732 3.33594L13.6619 3.53123C13.6449 3.4469 13.6358 3.35973 13.6358 3.27042V1.89498H13.6359ZM11.1729 8.59031L13.5424 8.03184C13.484 8.19623 13.3115 8.68087 13.2461 8.86495L11.7411 9.33417C11.4882 9.41303 11.2535 9.53176 11.0432 9.68198L9.93103 9.27505C10.2724 8.93938 10.7009 8.70127 11.1729 8.59031ZM9.2138 9.99775C9.35725 9.97615 9.49933 9.99053 9.63626 10.0407L10.42 10.3275C10.2954 10.5154 10.195 10.721 10.125 10.9408L9.86601 11.7547C9.48008 11.5746 8.68744 11.3846 8.25633 11.3205L8.53814 10.5502C8.64571 10.2565 8.90482 10.0447 9.2138 9.99775ZM7.29646 12.5955L7.83699 12.0741L8.95005 12.2929L9.61701 12.5372L7.96846 17.7198L5.85424 16.8014L6.5643 13.8718C6.68232 13.3845 6.93541 12.9433 7.29646 12.5955ZM4.14126 23.4101C4.08548 23.4869 4.05808 23.5806 4.06361 23.6753L4.13919 24.9612L2.40324 24.3154C1.90066 24.1375 1.54782 23.4221 1.93419 22.8576L5.31491 18.1356C5.43676 17.9658 5.53815 17.7845 5.61985 17.5939L7.68748 18.4921C7.64198 18.5782 7.59144 18.6616 7.53408 18.7409L4.14126 23.4101ZM10.8503 16.0233C10.8312 16.0225 10.7233 17.2459 10.7181 17.2634L9.72283 16.9906C9.44426 16.899 9.21008 16.6347 9.3053 16.222L10.9067 11.1896C11.0695 10.678 11.4727 10.2771 11.9853 10.1174L12.9017 9.83161L10.8503 16.0233ZM14.0678 12.7582C13.6546 12.95 13.1917 12.9701 12.7637 12.8151L13.3702 10.9625C13.6904 10.0399 14.2845 8.43752 14.5871 7.51893C14.6443 7.4393 15.537 5.99408 15.6066 5.88673C15.8278 5.53574 16.2481 5.20685 16.7591 5.13756L17.7343 9.81395C17.3202 9.75352 16.8975 9.8012 16.5011 9.9569L16.7968 9.14916C16.8746 8.93643 16.7653 8.70089 16.5525 8.62307C16.3399 8.5452 16.1043 8.65457 16.0264 8.8673L14.9554 11.7928C14.7981 12.2228 14.4829 12.5656 14.0678 12.7582ZM19.1149 13.2961C18.9929 13.6147 18.7779 13.8802 18.4984 14.064C17.7648 14.583 16.5211 14.3003 16.1391 13.376L15.9166 12.8772C15.5547 12.0659 15.9203 11.1114 16.7316 10.7495C17.4343 10.4056 18.5121 10.7267 18.8593 11.5645L19.0818 12.0635C19.2571 12.4564 19.2689 12.8942 19.1149 13.2961ZM15.394 15.0525L15.9482 14.4956C16.1523 14.681 16.4956 14.9217 16.8699 15.0352L16.1175 15.4839L15.394 15.0525ZM13.3136 24.1708L14.1999 23.0041C14.2452 22.9445 14.2733 22.8736 14.2812 22.7992L14.8166 17.7353C14.8445 17.4707 14.9677 17.2256 15.1573 17.0445L17.0539 18.3268C16.8388 18.576 16.6996 18.8887 16.6671 19.2231L16.2022 23.9649C16.1908 24.0823 16.0934 24.1708 15.9755 24.1708H13.3136ZM18.9213 24.1708H16.9978C17.0069 24.1295 17.4835 19.3028 17.4835 19.3028C17.4923 19.2116 17.5177 19.1238 17.5562 19.0426L17.9536 22.7992C17.9615 22.8736 17.9896 22.9445 18.035 23.0041L18.9213 24.1708ZM17.7792 17.827L15.9097 16.563L18.7864 14.8474C19.8325 14.2989 20.3625 12.8668 19.831 11.7292L19.6085 11.2303C19.4024 10.7681 19.0652 10.3907 18.6396 10.1364L17.6209 5.25164C17.8642 5.36277 18.0954 5.51037 18.3052 5.8013L22.673 11.9115C23.3566 12.8498 23.7252 14.0605 23.7356 15.2847L24.6161 18.9534L22.6128 19.5361L21.9387 16.8241C21.9163 16.7915 21.9589 16.7775 21.8133 16.6166L20.5741 15.5144C20.4049 15.3637 20.1457 15.379 19.9951 15.5481C19.8446 15.7175 19.8597 15.9767 20.029 16.1272L20.4681 16.5179L17.7792 17.827Z" fill="#43BF41"/>
</svg>
