<svg width="28" height="28" viewBox="0 0 28 28" fill="none" xmlns="http://www.w3.org/2000/svg">
<g clip-path="url(#clip0)">
<path fill-rule="evenodd" clip-rule="evenodd" d="M13.0716 6.38906L12.2974 7.16326L20.3585 14.6216L18.2704 17.7462C17.9096 18.2862 17.8108 18.9523 17.9995 19.5736L18.8645 22.4231L17.7122 22.8192L15.9844 19.438C15.6903 18.8623 15.7326 18.172 16.0948 17.6366L17.8427 15.0527C17.9818 14.847 17.9651 14.5735 17.8018 14.3864L16.1574 12.5026C15.9587 12.275 15.6132 12.2515 15.3857 12.4502C15.1581 12.6488 15.1346 12.9944 15.3333 13.222L16.7006 14.7885L15.1887 17.0236C14.6031 17.8892 14.5347 19.0051 15.0103 19.9357L16.7132 23.2682C16.4495 23.484 16.2509 23.7852 16.1353 24.1548C15.9853 24.6345 15.9878 25.2093 16.142 25.7317C16.183 25.8709 16.2777 25.988 16.4052 26.0574C16.4861 26.1014 16.5761 26.1239 16.6667 26.1239C16.7186 26.1239 16.7708 26.1165 16.8215 26.1015L19.7037 25.2509C20.2986 25.0753 20.6397 24.4484 20.4641 23.8536L20.0387 22.4122C20.0199 22.3485 19.9901 22.2911 19.9527 22.2408L19.0465 19.2557C18.9534 18.9492 19.0021 18.6205 19.1802 18.354L21.5278 14.8411C21.5388 14.8247 21.5484 14.8077 21.5574 14.7906C21.5577 14.7899 21.5581 14.7894 21.5585 14.7888C21.5589 14.7882 21.5593 14.7876 21.5596 14.787L22.6151 12.7312L24.8898 14.5551C24.8959 14.942 25.0489 15.3048 25.3231 15.5791H25.3232C25.6119 15.8679 25.9913 16.0122 26.3706 16.0122C26.75 16.0122 27.1293 15.8678 27.4181 15.5791L27.5666 15.4306C27.8463 15.1508 28.0005 14.7788 28.0005 14.3831C28.0002 13.9874 27.8461 13.6155 27.5663 13.3357C27.3899 13.1593 27.1769 13.0331 26.9445 12.9637C26.9273 12.9187 26.9041 12.8754 26.8744 12.8349L22.9415 7.47647C22.7767 7.25198 22.5573 7.07714 22.3093 6.96405C22.5724 6.59535 22.7279 6.14483 22.7279 5.65839V5.34815C22.7279 4.10566 21.717 3.09493 20.4746 3.09493C19.2321 3.09493 18.2213 4.10576 18.2213 5.34815V5.65839C18.2213 6.27433 18.47 6.83313 18.8719 7.24028C18.584 7.49769 18.3849 7.8548 18.3324 8.26145L17.9869 10.9368L13.0716 6.38906ZM11.87 7.59068L11.0947 8.36601L12.6412 10.1378C12.8398 10.3654 13.1854 10.3888 13.4129 10.1902C13.6406 9.99154 13.664 9.64602 13.4653 9.41842L11.87 7.59068ZM11.1772 3.9414L10.2256 3.01552C9.93275 2.73049 9.54836 2.5766 9.13782 2.58218C8.72925 2.58776 8.34726 2.75209 8.06229 3.045C7.77736 3.33785 7.62348 3.7241 7.62905 4.13273C7.63463 4.54135 7.79897 4.92329 8.09182 5.20826L8.59942 5.7022H8.57807L8.96029 5.74042L9.66029 5.32042L10.3095 4.73026L9.64089 5.18901L8.85492 4.42426C8.77153 4.34316 8.72466 4.23428 8.72307 4.11791C8.7216 4.00148 8.7654 3.89145 8.84656 3.80799C8.92771 3.72459 9.03659 3.67773 9.15291 3.67614C9.2717 3.67368 9.37937 3.71836 9.46277 3.79963L10.3662 4.67869L11.1772 3.9414ZM19.4147 24.1632L19.2077 23.4619L17.6188 24.0081C17.616 24.0091 17.6131 24.0099 17.6102 24.0107C17.6084 24.0113 17.6065 24.0118 17.6046 24.0124C17.6029 24.0129 17.6012 24.0136 17.5995 24.0142C17.5983 24.0146 17.5971 24.0151 17.5959 24.0154C17.3978 24.0739 17.2577 24.2306 17.1794 24.4812C17.1421 24.6003 17.1219 24.734 17.1186 24.8732L19.3938 24.2017C19.4101 24.1968 19.4196 24.1796 19.4147 24.1632ZM20.4746 4.18894C19.8354 4.18894 19.3153 4.70891 19.3153 5.34815V5.65839C19.3153 6.29758 19.8354 6.8176 20.4746 6.8176C21.1138 6.8176 21.6339 6.29763 21.6339 5.65839V5.34815C21.6339 4.70897 21.1138 4.18894 20.4746 4.18894ZM25.4714 13.3357C25.4973 13.3098 25.5242 13.2854 25.5517 13.2616L25.7132 13.1019L22.0596 8.12391C21.962 7.99102 21.8055 7.91173 21.6406 7.91173H19.9746C19.693 7.91173 19.4534 8.12238 19.4173 8.40162L18.9776 11.8071C18.976 11.8195 18.9735 11.8314 18.9711 11.8434L18.9704 11.8469L20.9152 13.6463L21.7437 12.0327L20.4753 11.0157C20.2396 10.8267 20.2018 10.4824 20.3908 10.2467C20.5798 10.011 20.924 9.97311 21.1598 10.1621L22.7748 11.4572L22.7793 11.4608L25.3142 13.4933C25.3157 13.4918 25.3172 13.4903 25.3186 13.4887C25.32 13.4872 25.3215 13.4856 25.323 13.4841L25.4714 13.3357ZM26.6443 14.8055L26.7927 14.6571C26.8659 14.584 26.9062 14.4867 26.9062 14.3833C26.9062 14.2798 26.8659 14.1825 26.7928 14.1094C26.7196 14.0362 26.6223 13.9959 26.5189 13.9959C26.4335 13.9959 26.3525 14.0237 26.2856 14.0745L26.0683 14.2895C26.0132 14.3579 25.9831 14.4425 25.9831 14.5317C25.9831 14.6351 26.0234 14.7324 26.0965 14.8055V14.8056C26.2476 14.9565 26.4933 14.9565 26.6443 14.8055Z" fill="#E50E0F"/>
<mask id="mask0" style="mask-type:alpha" maskUnits="userSpaceOnUse" x="-1" y="0" width="18" height="27">
<path d="M13.1614 6.30027L11.0614 8.40027L9.80141 13.7203L7.98141 16.6603L10.9214 24.5003V25.7603L5.74141 26.1803L0.281406 25.9003L0.841406 17.0803L1.68141 13.5803L0.141406 12.8803L-0.558594 10.7803L-0.138594 8.82027L1.96141 5.74027L1.68141 4.90027L1.40141 3.36027L2.10141 1.54027L4.90141 0.280273L6.86141 3.08027L7.56141 5.60027L8.96141 5.74027L9.66141 5.32027L11.2014 3.92027L10.6414 1.96027L12.6014 0.980273L15.6814 2.24027L16.1014 4.20027L14.8414 6.02027L13.1614 6.30027Z" fill="#C4C4C4"/>
</mask>
<g mask="url(#mask0)">
<path d="M27.566 13.3346C27.3896 13.1582 27.1766 13.032 26.9442 12.9626C26.927 12.9177 26.9038 12.8743 26.8742 12.8339L22.9413 7.4754C22.7764 7.25091 22.557 7.07607 22.309 6.96298C22.5721 6.59428 22.7276 6.14376 22.7276 5.65732V5.34708C22.7276 4.10458 21.7168 3.09385 20.4743 3.09385C19.2318 3.09385 18.221 4.10469 18.221 5.34708V5.65732C18.221 6.27326 18.4697 6.83206 18.8716 7.2392C18.5837 7.49662 18.3846 7.85373 18.3321 8.26038L17.9866 10.9357L13.0222 6.3425L13.309 6.05019C13.3572 6.05457 13.4055 6.05692 13.4539 6.05692C13.8601 6.05692 14.2664 5.90227 14.5756 5.59306L14.9383 5.23038V5.23032C15.5567 4.61175 15.5567 3.60545 14.9383 2.98694L14.2928 2.34147C13.6742 1.72295 12.6679 1.72295 12.0494 2.34147L11.6868 2.70415C11.3872 3.00378 11.2221 3.40213 11.2221 3.8259C11.2221 3.88206 11.2252 3.93773 11.2309 3.99286L10.2253 3.01445C9.93247 2.72942 9.54807 2.57553 9.13754 2.58111C8.72897 2.58668 8.34698 2.75102 8.062 3.04392C7.77708 3.33678 7.62319 3.72303 7.62877 4.13165C7.63435 4.54028 7.79868 4.92221 8.09153 5.20719L8.59914 5.70112H6.34389C6.561 5.3502 6.68667 4.93714 6.68667 4.49505V4.17644C6.68667 2.90846 5.6551 1.87695 4.38718 1.87695C3.1192 1.87695 2.08785 2.90863 2.08785 4.17655V4.49516C2.08785 5.03979 2.27855 5.54051 2.59617 5.93491C2.22276 6.12391 1.90487 6.41939 1.69115 6.79421L0.32178 9.19499C0.111234 9.56396 0 9.98369 0 10.4085C0 11.3111 0.493717 12.1376 1.2886 12.5655L2.34078 13.1318L2.1024 13.9313C2.05307 14.0968 2.08479 14.276 2.18798 14.4144C2.29118 14.5529 2.45382 14.6346 2.62658 14.6346H2.72031L1.39245 22.7525C1.36653 22.9109 1.41148 23.0727 1.51544 23.195C1.61935 23.3173 1.77181 23.3878 1.93232 23.3878H2.0383V24.2153C2.0383 24.3089 2.04782 24.4004 2.06581 24.4888H1.39485C1.09276 24.4888 0.847817 24.7337 0.847817 25.0358C0.847817 25.3379 1.09271 25.5828 1.39485 25.5828H10.2017C10.5038 25.5828 10.7487 25.3379 10.7487 25.0358C10.7487 24.7338 10.5038 24.4888 10.2017 24.4888H8.16377C8.01612 23.7644 7.58108 23.1437 6.98368 22.7503L7.00057 14.6345H7.8683C8.04105 14.6345 8.20369 14.5529 8.30689 14.4143C8.41008 14.2758 8.44186 14.0967 8.39248 13.9312L7.56741 11.1644V9.47553H9.05671C9.62327 9.47553 10.1758 9.2436 10.5725 8.83924L11.0678 8.33448L12.6409 10.1368C12.8395 10.3643 13.1851 10.3878 13.4127 10.1891C13.6403 9.99047 13.6637 9.64495 13.465 9.41734L11.8363 7.5513L12.2557 7.12387L20.3582 14.6206L18.2701 17.7452C17.9093 18.2852 17.8106 18.9512 17.9992 19.5725L18.8642 22.422L17.7119 22.8181L15.9841 19.4369C15.69 18.8612 15.7323 18.1709 16.0945 17.6355L17.8424 15.0516C17.9816 14.8459 17.9648 14.5724 17.8015 14.3854L16.1571 12.5015C15.9585 12.2739 15.6129 12.2505 15.3854 12.4491C15.1578 12.6478 15.1343 12.9933 15.333 13.221L16.7003 14.7875L15.1884 17.0225C14.6028 17.8881 14.5345 19.004 15.01 19.9346L16.7129 23.2671C16.4492 23.4829 16.2506 23.7841 16.135 24.1538C15.985 24.6334 15.9875 25.2082 16.1417 25.7306C16.1827 25.8698 16.2775 25.9869 16.4049 26.0563C16.4858 26.1004 16.5758 26.1228 16.6664 26.1228C16.7183 26.1228 16.7705 26.1154 16.8212 26.1005L19.7034 25.2499C20.2983 25.0742 20.6394 24.4473 20.4638 23.8525L20.0385 22.4111C20.0196 22.3474 19.9898 22.2901 19.9524 22.2398L19.0462 19.2547C18.9531 18.9481 19.0019 18.6194 19.1799 18.353L21.5275 14.84C21.5385 14.8236 21.5481 14.8067 21.5571 14.7895C21.5578 14.7882 21.5587 14.7872 21.5593 14.7859L22.6148 12.7301L24.8896 14.5541C24.8956 14.9409 25.0486 15.3038 25.3228 15.578C25.3228 15.578 25.3228 15.578 25.3229 15.578C25.6116 15.8668 25.991 16.0112 26.3703 16.0112C26.7497 16.0112 27.129 15.8667 27.4178 15.578L27.5663 15.4296C27.8461 15.1498 28.0002 14.7777 28.0002 14.3821C27.9999 13.9864 27.8458 13.6144 27.566 13.3346ZM8.84627 3.80692C8.92743 3.72352 9.03631 3.67666 9.15263 3.67507C9.27141 3.67261 9.37909 3.71729 9.46249 3.79855L10.3735 4.68504L9.6406 5.18794L8.85464 4.42319C8.77124 4.34209 8.72437 4.23321 8.72279 4.11683C8.72131 4.00041 8.76511 3.89037 8.84627 3.80692ZM3.18182 4.1765C3.18182 3.51183 3.72256 2.97097 4.38729 2.97097C5.05201 2.97097 5.59281 3.51177 5.59281 4.1765V4.49511C5.59281 5.15983 5.05207 5.70058 4.38729 5.70058C3.72251 5.70058 3.18182 5.15983 3.18182 4.49511V4.1765ZM3.82888 14.6346H5.9065L5.89059 22.2938H2.57599L3.82888 14.6346ZM7.03109 24.4888H3.40587C3.25504 24.4888 3.13238 24.3661 3.13238 24.2153V23.3948H5.48382C6.19694 23.3948 6.80529 23.8521 7.03109 24.4888ZM6.45469 13.5405V13.5405H3.36409H3.36048L3.51552 13.0206C3.51606 13.0189 3.51656 13.0171 3.5171 13.0153L3.88214 11.7913H6.61268L7.13428 13.5405H6.45469ZM9.79159 8.07313C9.59921 8.26913 9.33135 8.38157 9.05665 8.38157H7.56735V8.23572C7.56735 7.93368 7.32246 7.68873 7.02032 7.68873C6.71817 7.68873 6.47328 7.93368 6.47328 8.23572V10.6972H3.70107L3.13599 10.1322C2.92238 9.91861 2.57599 9.91861 2.36238 10.1322C2.14877 10.3458 2.14872 10.6922 2.36238 10.9058L2.85703 11.4005L2.65999 12.0612L1.80709 11.6021C1.36718 11.3653 1.09396 10.908 1.09396 10.4085C1.09396 10.1734 1.15549 9.94114 1.27203 9.73688L2.6414 7.33606C2.83187 7.00208 3.18903 6.79465 3.57354 6.79465L9.06207 6.79525C9.17259 6.79525 9.28043 6.76184 9.37149 6.69933L11.7835 5.0445L12.2781 5.53903L9.79159 8.07313ZM12.3163 3.82601C12.3162 3.69443 12.3675 3.57084 12.4605 3.47781L12.8232 3.11513C12.9191 3.01915 13.0452 2.97114 13.1713 2.97114C13.2974 2.97114 13.4234 3.0191 13.5195 3.11513L14.1649 3.7606C14.3568 3.95255 14.3568 4.26487 14.1649 4.45688L13.8023 4.81951C13.6103 5.01146 13.298 5.01152 13.106 4.81951L12.4605 4.17409C12.3675 4.08107 12.3163 3.95748 12.3163 3.82601ZM19.2074 23.4608L19.4144 24.1621C19.4193 24.1785 19.4098 24.1958 19.3935 24.2006L17.1183 24.8721C17.1217 24.733 17.1418 24.5992 17.1791 24.4801C17.2574 24.2296 17.3976 24.0728 17.5956 24.0144C17.5986 24.0135 17.6014 24.0122 17.6043 24.0113C17.6091 24.0098 17.6138 24.0087 17.6185 24.007L19.2074 23.4608ZM19.3151 5.34708C19.3151 4.70784 19.8351 4.18787 20.4743 4.18787C21.1136 4.18787 21.6336 4.70789 21.6336 5.34708V5.65732C21.6336 6.29656 21.1136 6.81653 20.4743 6.81653C19.8351 6.81653 19.3151 6.29651 19.3151 5.65732V5.34708ZM25.5514 13.2605C25.5239 13.2843 25.497 13.3087 25.4711 13.3346L25.3227 13.4831C25.3197 13.4861 25.3169 13.4892 25.3139 13.4923L22.7791 11.4598C22.7775 11.4585 22.7761 11.4573 22.7745 11.4561L21.1595 10.161C20.9237 9.97204 20.5795 10.0099 20.3905 10.2456C20.2015 10.4813 20.2393 10.8256 20.475 11.0146L21.7434 12.0317L20.9149 13.6453L18.9701 11.8458C18.9728 11.8327 18.9756 11.8196 18.9773 11.806L19.417 8.40054C19.4531 8.12131 19.6927 7.91066 19.9743 7.91066H21.6404C21.8052 7.91066 21.9618 7.98995 22.0593 8.12284L25.7129 13.1008L25.5514 13.2605ZM26.7924 14.656L26.644 14.8045C26.493 14.9555 26.2473 14.9554 26.0962 14.8045V14.8045C26.0231 14.7314 25.9828 14.6341 25.9828 14.5306C25.9828 14.4414 26.0129 14.3569 26.068 14.2884L26.2853 14.0734C26.3522 14.0227 26.4332 13.9948 26.5186 13.9948C26.622 13.9948 26.7193 14.0351 26.7925 14.1083C26.8656 14.1814 26.9059 14.2787 26.9059 14.3822C26.9059 14.4857 26.8656 14.5829 26.7924 14.656Z" fill="#43BF41"/>
</g>
<path d="M14.8127 10.9641C14.711 10.8623 14.5704 10.8037 14.4259 10.8037C14.2821 10.8037 14.141 10.8622 14.0392 10.9641C13.9375 11.0657 13.8789 11.2064 13.8789 11.3507C13.8789 11.4947 13.9374 11.6358 14.0392 11.7375C14.1409 11.8392 14.2821 11.8978 14.4259 11.8978C14.5704 11.8978 14.7109 11.8393 14.8127 11.7375C14.915 11.6358 14.973 11.4947 14.973 11.3507C14.973 11.2069 14.915 11.0657 14.8127 10.9641Z" fill="#E50E0F"/>
<path d="M12.5471 24.6486C12.4453 24.5468 12.3047 24.4883 12.1603 24.4883C12.0164 24.4883 11.8759 24.5467 11.7736 24.6486C11.6719 24.7503 11.6133 24.8914 11.6133 25.0353C11.6133 25.1792 11.6718 25.3203 11.7736 25.422C11.8758 25.5237 12.0164 25.5824 12.1603 25.5824C12.3042 25.5824 12.4453 25.5238 12.5471 25.422C12.6493 25.3203 12.7074 25.1792 12.7074 25.0353C12.7074 24.8914 12.6493 24.7503 12.5471 24.6486Z" fill="#43BF41"/>
</g>
<defs>
<clipPath id="clip0">
<rect width="28" height="28" fill="white"/>
</clipPath>
</defs>
</svg>
