<svg width="28" height="28" viewBox="0 0 28 28" fill="none" xmlns="http://www.w3.org/2000/svg">
<g clip-path="url(#clip0)">
<path d="M26.6367 18.5626C26.535 18.4609 26.3939 18.4023 26.2501 18.4023C26.1057 18.4023 25.9651 18.4609 25.8628 18.5626C25.7611 18.6643 25.7031 18.8054 25.7031 18.9493C25.7031 19.0931 25.7611 19.2342 25.8628 19.336C25.9651 19.4377 26.1057 19.4962 26.2501 19.4962C26.3939 19.4962 26.535 19.4377 26.6367 19.336C26.7385 19.2342 26.797 19.0931 26.797 18.9493C26.797 18.8054 26.7385 18.6644 26.6367 18.5626Z" fill="#43BF41"/>
<path d="M27.8998 12.9479L25.6846 9.77617C25.6843 9.77584 25.6841 9.77552 25.6839 9.77513C25.6837 9.77502 25.6837 9.77486 25.6836 9.77475C25.6834 9.77453 25.6833 9.77431 25.683 9.77409C25.6796 9.76934 25.6763 9.76458 25.6728 9.75987L23.744 7.20405C22.7942 5.94542 21.2858 5.19396 19.709 5.19396H19.4839V3.80834C19.4839 2.52155 18.437 1.47461 17.1501 1.47461C15.8633 1.47461 14.8164 2.52149 14.8164 3.80834V5.74094C14.8164 7.02774 15.8633 8.07468 17.1501 8.07468C17.1849 8.07468 17.2194 8.07359 17.2538 8.07205C16.9939 8.67941 17.0913 9.40681 17.5552 9.92727L20.1677 12.858C20.2418 12.9412 20.2826 13.0483 20.2826 13.1597V16.5643V17.6582C20.2826 18.3097 20.6644 18.8737 21.2159 19.1384V23.659C20.5911 24.05 20.1345 24.6859 19.9825 25.4316H15.786C15.4839 25.4316 15.239 25.6765 15.239 25.9785C15.239 26.2806 15.4839 26.5255 15.786 26.5255H26.3661C26.6682 26.5255 26.9131 26.2806 26.9131 25.9785C26.9131 25.6765 26.6682 25.4316 26.3661 25.4316H26.08C26.0979 25.3432 26.1075 25.2517 26.1075 25.1581V24.3376H26.248C26.5501 24.3376 26.7949 24.0928 26.7949 23.7907V20.8918C26.7949 20.5897 26.5501 20.3448 26.248 20.3448C25.9459 20.3448 25.701 20.5897 25.701 20.8918V23.2437H22.3098V19.2526C23.0287 19.0785 23.5644 18.4299 23.5644 17.6581V16.5642V16.2779L25.701 14.9719V16.7075C25.701 17.0096 25.9459 17.2545 26.248 17.2545C26.5501 17.2545 26.795 17.0096 26.795 16.7075V14.4376C26.795 14.3944 26.7895 14.3526 26.78 14.3124L27.7366 13.7277C27.8653 13.649 27.9558 13.5206 27.9867 13.373C28.0176 13.2254 27.9861 13.0715 27.8998 12.9479ZM17.1503 6.98071C16.4666 6.98071 15.9104 6.42454 15.9104 5.74089V3.80834C15.9104 3.1247 16.4666 2.56852 17.1503 2.56852C17.8339 2.56852 18.3901 3.1247 18.3901 3.80834V5.74094C18.3901 6.42454 17.8339 6.98071 17.1503 6.98071ZM22.6624 24.3376H25.0136V25.1581C25.0136 25.3088 24.8909 25.4316 24.7401 25.4316H21.1152C21.3409 24.7949 21.9492 24.3376 22.6624 24.3376ZM22.4706 17.6582C22.4706 17.9598 22.2252 18.2052 21.9236 18.2052C21.622 18.2052 21.3766 17.9598 21.3766 17.6582V17.1112H22.4705V17.6582H22.4706ZM22.4706 16.0172H21.3767V13.1597C21.3767 12.7795 21.2374 12.4138 20.9844 12.13L18.3719 9.19933C18.1412 8.94055 18.152 8.54532 18.3965 8.29961C18.528 8.16737 18.7029 8.09858 18.8896 8.10667C19.076 8.11455 19.2447 8.19751 19.3647 8.34035L21.8563 11.3073C22.2524 11.779 22.4706 12.378 22.4706 12.9939V16.0172ZM22.9859 11.003C22.8979 10.8642 22.8005 10.7307 22.694 10.6038L20.2023 7.6368C19.9216 7.3026 19.5247 7.08631 19.0954 7.02829C19.2435 6.80527 19.354 6.55552 19.4186 6.28787H19.709C20.9446 6.28787 22.1266 6.87675 22.8709 7.86298L24.4589 9.96725L22.9859 11.003ZM23.5645 14.9959V12.994C23.5645 12.6645 23.5204 12.3385 23.4353 12.0243L25.102 10.8523L26.6701 13.0976L23.5645 14.9959Z" fill="#43BF41"/>
<path d="M13.1289 25.5919C13.0272 25.4902 12.8861 25.4316 12.7422 25.4316C12.5984 25.4316 12.4573 25.4902 12.3555 25.5919C12.2538 25.6936 12.1953 25.8347 12.1953 25.9786C12.1953 26.1224 12.2538 26.2635 12.3555 26.3653C12.4573 26.467 12.5984 26.5255 12.7422 26.5255C12.8861 26.5255 13.0272 26.467 13.1289 26.3653C13.2307 26.2635 13.2892 26.1224 13.2892 25.9786C13.2892 25.8347 13.2307 25.6936 13.1289 25.5919Z" fill="#E50E0F"/>
<path d="M10.8481 1.47461C9.56124 1.47461 8.51436 2.52149 8.51436 3.80834V5.19396H8.28926C6.71246 5.19396 5.20401 5.94537 4.2542 7.20405L2.32548 9.75988C2.32198 9.76458 2.31854 9.76928 2.3152 9.77409C2.31504 9.77431 2.31487 9.77453 2.31471 9.77475C2.3146 9.77486 2.31455 9.77502 2.31444 9.77513C2.31422 9.77546 2.31394 9.77579 2.31373 9.77617L0.0985533 12.9479C0.012147 13.0715 -0.0192983 13.2254 0.0116002 13.3731C0.0424986 13.5207 0.132952 13.6491 0.261741 13.7277L1.21833 14.3124C1.20887 14.3527 1.20335 14.3945 1.20335 14.4376V23.7907C1.20335 24.0928 1.44824 24.3377 1.75033 24.3377H1.89083V25.1581C1.89083 25.2517 1.90034 25.3432 1.91833 25.4316H0.960921C0.658827 25.4316 0.413936 25.6765 0.413936 25.9786C0.413936 26.2807 0.658827 26.5256 0.960921 26.5256H10.6658C10.9679 26.5256 11.2127 26.2807 11.2127 25.9786C11.2127 25.6765 10.9679 25.4316 10.6658 25.4316H8.01572C7.86374 24.686 7.4071 24.0501 6.7823 23.6591V19.1385C7.33382 18.8737 7.71559 18.3098 7.71559 17.6582V16.5643V13.1598C7.71559 13.0484 7.75644 12.9412 7.83055 12.858L10.443 9.92733C10.907 9.40681 11.0043 8.67936 10.7445 8.07211C10.7789 8.07364 10.8133 8.07473 10.8481 8.07473C12.1349 8.07473 13.1818 7.02785 13.1818 5.741V3.80834C13.1818 2.52155 12.1349 1.47461 10.8481 1.47461ZM5.1274 7.86304C5.87164 6.87675 7.05371 6.28793 8.28926 6.28793H8.57971C8.64424 6.55557 8.75476 6.80533 8.90286 7.02834C8.47356 7.08642 8.07675 7.30266 7.79604 7.63691L5.30437 10.6039C5.19783 10.7307 5.10044 10.8642 5.01244 11.003L3.53955 9.9673L5.1274 7.86304ZM5.52776 17.1112H6.62168V17.6582C6.62168 17.9598 6.3763 18.2052 6.07469 18.2052C5.77309 18.2052 5.52771 17.9598 5.52771 17.6582V17.1112H5.52776ZM1.32826 13.0976L2.89637 10.8523L4.56302 12.0242C4.47798 12.3384 4.43385 12.6644 4.43385 12.9939V14.9958L1.32826 13.0976ZM2.29721 14.972L4.4338 16.278V16.5643V17.6582C4.4338 18.4299 4.96946 19.0785 5.68844 19.2527V23.2438H2.29721V14.972ZM6.88314 25.4316H3.25818C3.10741 25.4316 2.98469 25.309 2.98469 25.1581V24.3376H5.33592C6.04905 24.3376 6.65733 24.7949 6.88314 25.4316ZM9.62643 9.19927L7.01395 12.13C6.76097 12.4138 6.62168 12.7795 6.62168 13.1597V16.0173H5.52776V12.994C5.52776 12.378 5.74597 11.779 6.14207 11.3074L8.63374 8.34041C8.75367 8.19756 8.92244 8.11455 9.10881 8.10667C9.29508 8.09913 9.47024 8.16732 9.60182 8.29961C9.84627 8.54538 9.85705 8.9406 9.62643 9.19927ZM12.0879 5.74089C12.0879 6.42454 11.5317 6.98071 10.848 6.98071C10.1644 6.98071 9.60822 6.42454 9.60822 5.74089V3.80834H9.60827C9.60827 3.1247 10.1644 2.56852 10.8481 2.56852C11.5317 2.56852 12.0879 3.1247 12.0879 3.80834V5.74089Z" fill="#E50E0F"/>
</g>
<defs>
<clipPath id="clip0">
<rect width="28" height="28" fill="white"/>
</clipPath>
</defs>
</svg>
