<svg width="28" height="28" viewBox="0 0 28 28" fill="none" xmlns="http://www.w3.org/2000/svg">
<g clip-path="url(#clip0)">
<path d="M9.48047 24.4961C9.62424 24.4961 9.76523 24.4376 9.86691 24.3359C9.9686 24.2342 10.0273 24.093 10.0273 23.9492C10.0273 23.8055 9.96881 23.6642 9.86691 23.5626C9.76523 23.4609 9.62424 23.4023 9.48047 23.4023C9.33649 23.4023 9.1955 23.4609 9.09381 23.5626C8.99213 23.6642 8.93359 23.8055 8.93359 23.9492C8.93359 24.093 8.99191 24.2342 9.09381 24.3359C9.1955 24.4376 9.3367 24.4961 9.48047 24.4961Z" fill="#43BF41"/>
<path d="M27.4788 26.9062H24.848L23.8484 25.1195V20.2451C23.8484 19.0956 23.1106 18.0941 22.0126 17.7534L17.8172 16.4511V12.009C17.8172 11.5963 17.6953 11.2077 17.4814 10.8813C18.6719 10.4707 19.5298 9.33981 19.5298 8.01172C19.5298 6.42941 18.3124 5.12653 16.7651 4.98917V2.73779C16.7651 1.22812 15.537 0 14.0273 0C13.7253 0 13.4805 0.244812 13.4805 0.546875V4.91183C13.4779 4.91183 13.4756 4.91141 13.473 4.91141C12.9973 4.90179 12.5474 5.07974 12.2051 5.40979C11.8629 5.73984 11.6696 6.18353 11.661 6.65884C11.6431 7.64023 12.4271 8.45306 13.4085 8.47101L13.4403 8.47165C13.3452 9.36609 13.0804 10.2501 12.6584 11.0635C12.5081 11.3536 12.4284 11.6805 12.4284 12.009V16.7126L11.111 19.0864L4.05286 23.5237C3.38144 23.9459 2.98047 24.6713 2.98047 25.4645V26.9062H0.574219C0.272156 26.9062 0.0273438 27.1511 0.0273438 27.4531C0.0273438 27.7552 0.272156 28 0.574219 28H27.479C27.7808 28 28.0258 27.7552 28.0258 27.4531C28.0258 27.1511 27.7808 26.9062 27.4788 26.9062ZM18.4361 8.01172C18.4361 8.99054 17.7081 9.80231 16.7651 9.93433V6.08911C17.7081 6.22113 18.4361 7.0329 18.4361 8.01172ZM14.5742 1.18732C15.2127 1.41312 15.6714 2.0228 15.6714 2.73779V10.5705C15.6714 10.8089 15.8256 11.0197 16.0529 11.0917C16.4539 11.2191 16.7235 11.5878 16.7235 12.009V16.3073H13.5223V12.009C13.5223 11.8529 13.5584 11.7042 13.6294 11.567C14.2476 10.3752 14.5742 9.04971 14.5742 7.73337V1.18732ZM12.9466 7.16748C12.8195 7.03568 12.7512 6.862 12.7546 6.67871C12.7578 6.49542 12.8323 6.32431 12.9644 6.19699C13.0932 6.07288 13.2619 6.00473 13.4403 6.00473C13.448 6.00473 13.4557 6.00494 13.4634 6.00494C13.4691 6.00494 13.4747 6.0043 13.4805 6.00409V7.37833L13.4283 7.37747C13.2451 7.37405 13.0739 7.2995 12.9466 7.16748ZM8.30011 24.5278C8.16702 24.2567 7.83932 24.1447 7.56802 24.278L5.14511 25.4681C5.10901 25.4859 5.07504 25.5077 5.04364 25.5329L4.07422 26.312V25.4645C4.07422 25.0499 4.28378 24.6705 4.63498 24.4496L11.8119 19.9374C11.8898 19.8885 11.9543 19.8204 11.999 19.7401L13.2972 17.4011H16.2486L14.6689 19.7723C14.0094 20.762 13.0966 21.5623 12.0291 22.0865L10.8969 22.6428C10.6258 22.7758 10.5141 23.1035 10.6472 23.3746C10.7805 23.6457 11.1082 23.7577 11.3793 23.6244L12.5113 23.0683C13.752 22.4588 14.8126 21.5289 15.5791 20.3786L16.0085 19.7341L20.4805 21.3813V26.4367C20.4805 26.6003 20.5057 26.758 20.5525 26.9062H5.0806L5.68173 26.423L8.05038 25.2596C8.32147 25.1266 8.4332 24.7989 8.30011 24.5278ZM22.0438 26.9062C21.7849 26.9062 21.5742 26.6956 21.5742 26.4367V21C21.5742 20.771 21.4313 20.5659 21.2164 20.4869L16.6323 18.7982L17.2272 17.905L17.4987 17.4977L21.6885 18.7978C22.3262 18.9958 22.7547 19.5773 22.7547 20.2451V25.2622C22.7547 25.3558 22.7786 25.4476 22.8241 25.5292L23.5947 26.9062H22.0438Z" fill="#43BF41"/>
</g>
<defs>
<clipPath id="clip0">
<rect width="27.9453" height="28" fill="white"/>
</clipPath>
</defs>
</svg>
