<svg width="28" height="28" viewBox="0 0 28 28" fill="none" xmlns="http://www.w3.org/2000/svg">
<g clip-path="url(#clip0)">
<path d="M15.8121 13.7531L27.8749 0.785615C28.0505 0.596966 28.0399 0.301684 27.8513 0.126101C27.7649 0.0456598 27.6513 0.000918286 27.5332 0.000976619C26.2145 0.00406827 24.9522 0.536358 24.0293 1.47838L13.913 11.8543L8.26329 6.20453C8.08106 6.02229 7.7856 6.02229 7.60331 6.20453L6.20332 7.60452C6.02108 7.78675 6.02108 8.08221 6.20332 8.2645L8.1433 10.2045C7.41921 10.7892 6.9988 11.6703 6.99997 12.6009H7.9333C7.93254 11.9695 8.21015 11.3698 8.69204 10.9618L8.72261 11.0229C9.09203 11.7567 9.15252 12.6078 8.8906 13.3865L9.77598 13.6817C9.95442 13.1498 10.0195 12.5864 9.96702 12.0278L11.8791 13.9399L7.46244 18.4699L6.8633 17.8707L6.20332 18.5307L6.80665 19.1342L0.136674 25.8042C-0.0455582 25.9864 -0.0455582 26.2819 0.136674 26.4642L1.53667 27.8642C1.7189 28.0464 2.01436 28.0464 2.19665 27.8642L6.06664 23.9942V27.5342C6.06664 27.7919 6.27559 28.0009 6.53331 28.0009H8.39996C8.65768 28.0009 8.86663 27.7919 8.86663 27.5342V26.909C9.29894 26.7571 9.76782 26.7433 10.2083 26.8695L10.8538 27.0541C11.91 27.3565 13.0435 27.2223 13.9999 26.6817C14.9563 27.2225 16.0898 27.3567 17.146 27.0541L17.7916 26.8695C18.2321 26.7433 18.7009 26.757 19.1333 26.9089V27.5342C19.1333 27.7919 19.3422 28.0009 19.5999 28.0009H21.4666C21.7243 28.0009 21.9332 27.7919 21.9332 27.5342V23.9942L25.8032 27.8642C25.9855 28.0464 26.2809 28.0464 26.4632 27.8642L27.8632 26.4642C28.0454 26.282 28.0454 25.9865 27.8632 25.8042L15.8121 13.7531ZM8.35995 9.10094L9.09996 8.36093L9.60664 8.86761L8.86663 9.60768L8.35995 9.10094ZM9.52661 10.2676L10.2666 9.52759L10.7733 10.0343L10.0333 10.7743L9.52661 10.2676ZM7.9333 7.19421L8.43998 7.70095L7.69997 8.44096L7.19323 7.93428L7.9333 7.19421ZM10.6933 11.4343L11.4333 10.6942L13.2614 12.5224L12.5308 13.2718L10.6933 11.4343ZM24.6976 2.13013C25.1356 1.68243 25.6733 1.34462 26.2667 1.14431L8.8545 19.8622L8.12247 19.1301L24.6976 2.13013ZM1.86666 26.8743L1.12659 26.1342L7.46664 19.7942L8.20665 20.5342L1.86666 26.8743ZM7.9333 27.0675H6.99997V23.3342H7.9333V27.0675ZM17.5349 25.9722L16.8895 26.1566C15.9948 26.4129 15.0327 26.2627 14.2586 25.7459C14.1019 25.6414 13.8976 25.6414 13.7409 25.7459C12.9669 26.2627 12.0047 26.4129 11.1101 26.1566L10.465 25.9722C9.9441 25.8229 9.39349 25.8108 8.86663 25.9372V24.2675H19.1333V25.9371C18.6064 25.8107 18.0558 25.8228 17.5349 25.9722ZM20.9999 27.0675H20.0666V23.3342H20.9999V27.0675ZM19.5999 22.4009C19.3422 22.4009 19.1333 22.6098 19.1333 22.8675V23.3342H8.86663V22.8675C8.86663 22.6098 8.65768 22.4009 8.39996 22.4009H7.65995L8.86663 21.1942L9.46997 21.7975L10.1299 21.1376L9.51488 20.5226L13.8265 15.8875L20.3399 22.4009H19.5999ZM26.1332 26.8743L14.4626 15.2037L15.1759 14.4369L26.8733 26.1342L26.1332 26.8743Z" fill="#E50E0F"/>
<path fill-rule="evenodd" clip-rule="evenodd" d="M27.8749 0.785615L15.8121 13.7531L27.8632 25.8042C28.0454 25.9865 28.0454 26.282 27.8632 26.4642L26.4632 27.8642C26.2809 28.0464 25.9855 28.0464 25.8032 27.8642L22.0414 24.1024L22.0391 24.0625L20.3438 22.4219L20.3102 22.4009H20.3399L13.8265 15.8875L9.51488 20.5226L10.1299 21.1376L9.46997 21.7975L8.86663 21.1942L7.65995 22.4009H7.67724L6.06664 24.0115V23.9942L2.19665 27.8642C2.01436 28.0464 1.7189 28.0464 1.53667 27.8642L0.136674 26.4642C-0.0455581 26.2819 -0.0455581 25.9864 0.136674 25.8042L6.80665 19.1342L6.20332 18.5307L6.8633 17.8707L7.46244 18.4699L11.8791 13.9399L9.96702 12.0278C10.0195 12.5864 9.95442 13.1498 9.77598 13.6817L8.8906 13.3865C9.15252 12.6078 9.09203 11.7567 8.72261 11.0229L8.69204 10.9618C8.21015 11.3698 7.93254 11.9695 7.9333 12.6009H6.99997C6.9988 11.6703 7.41921 10.7892 8.1433 10.2045L6.20332 8.2645C6.02108 8.08221 6.02108 7.78675 6.20332 7.60452L7.60331 6.20453C7.7856 6.02229 8.08106 6.02229 8.26329 6.20453L13.913 11.8543L24.0293 1.47838C24.9522 0.536358 26.2145 0.00406833 27.5332 0.000976619C27.6513 0.000918343 27.7649 0.0456598 27.8513 0.126101C28.0399 0.301684 28.0505 0.596966 27.8749 0.785615ZM9.09996 8.36093L8.35995 9.10094L8.86663 9.60768L9.60664 8.86761L9.09996 8.36093ZM10.2666 9.52759L9.52661 10.2676L10.0333 10.7743L10.7733 10.0343L10.2666 9.52759ZM8.43998 7.70095L7.9333 7.19421L7.19323 7.93428L7.69997 8.44096L8.43998 7.70095ZM11.4333 10.6942L10.6933 11.4343L12.5308 13.2718L13.2614 12.5224L11.4333 10.6942ZM26.2667 1.14431C25.6733 1.34462 25.1356 1.68243 24.6976 2.13013L8.12247 19.1301L8.8545 19.8622L26.2667 1.14431ZM1.12659 26.1342L1.86666 26.8743L8.20665 20.5342L7.46664 19.7942L1.12659 26.1342ZM14.4626 15.2037L26.1332 26.8743L26.8733 26.1342L15.1759 14.4369L14.4626 15.2037Z" fill="#43BF41"/>
</g>
<defs>
<clipPath id="clip0">
<rect width="28" height="28" fill="white"/>
</clipPath>
</defs>
</svg>
