<svg width="28" height="28" viewBox="0 0 28 28" fill="none" xmlns="http://www.w3.org/2000/svg">
<g clip-path="url(#clip0)">
<path d="M9.03106 19.0665C8.92934 18.9648 8.78825 18.9062 8.64448 18.9062C8.5007 18.9062 8.35955 18.9648 8.25789 19.0665C8.15617 19.1682 8.09766 19.3093 8.09766 19.4531C8.09766 19.5969 8.15617 19.738 8.25789 19.8397C8.35961 19.9413 8.5007 19.9999 8.64448 19.9999C8.7883 19.9999 8.9294 19.9414 9.03106 19.8397C9.13278 19.7379 9.19129 19.5968 9.19129 19.4531C9.19129 19.3093 9.13278 19.1682 9.03106 19.0665Z" fill="#43BF41"/>
<path d="M26.4934 4.22798L24.28 0.939791V0.559932C24.28 0.257949 24.0351 0.0131132 23.7331 0.0131132C23.4311 0.0131132 23.1863 0.257949 23.1863 0.559932V0.939846L20.9728 4.22803C20.3811 4.48364 19.9076 4.96227 19.659 5.55759C19.8018 5.13924 19.7709 4.66373 19.533 4.25171L18.9267 3.20155C18.7149 2.83476 18.3729 2.57232 17.9638 2.46267C17.5546 2.35297 17.1272 2.40924 16.7604 2.6211L16.0912 3.00741C15.6822 3.24366 15.4184 3.63593 15.331 4.06605L14.4643 4.56644L14.426 4.50169C14.2735 4.24346 13.9416 4.15628 13.6818 4.30618L11.755 5.41863C11.5844 5.51707 11.3764 5.51095 11.212 5.40283L9.19668 4.07721C8.34394 3.51628 7.26512 3.48483 6.3812 3.99518L5.98838 4.22202C6.0014 4.18073 6.01387 4.13922 6.02513 4.09711C6.22928 3.33526 6.1245 2.53951 5.7301 1.85646L5.51135 1.47764C5.11699 0.794651 4.48022 0.306019 3.71836 0.101925C2.95651 -0.102277 2.1607 0.00250381 1.47771 0.396909C0.794612 0.791205 0.30598 1.42799 0.101887 2.18989C-0.102261 2.95174 0.00251998 3.7475 0.396926 4.43054L0.615675 4.80936C1.00997 5.49241 1.64675 5.98104 2.40866 6.18519C2.40997 6.18552 2.41128 6.18579 2.41254 6.18617L1.29506 6.83137C0.583628 7.24208 0.141645 8.00759 0.141645 8.8291V12.1592C0.141645 13.4312 1.17644 14.466 2.44847 14.466H3.90365C3.91086 14.466 3.91781 14.4651 3.92497 14.4649C4.1796 14.8553 4.58204 15.0989 5.0156 15.1649L2.31186 24.7519C1.0045 24.9559 0.000934023 26.0894 0.000934023 27.4532C0.000934023 27.7551 0.24577 28 0.547753 28H10.6367C10.9387 28 11.1835 27.7551 11.1835 27.4532C11.1835 27.1512 10.9387 26.9064 10.6367 26.9064H6.15184C6.16984 26.818 6.17935 26.7265 6.17935 26.6329V25.3991L8.06098 21.767C8.19994 21.4989 8.09516 21.1689 7.82697 21.03C7.55873 20.8911 7.2288 20.9957 7.0899 21.264L5.29998 24.719H3.45734L6.23765 14.8605L6.94169 14.454C7.29623 14.2493 7.54189 13.9274 7.65799 13.5651L10.6866 11.6153C10.9405 11.4518 11.0138 11.1135 10.8504 10.8595C10.6869 10.6056 10.3485 10.5323 10.0946 10.6957L7.6884 12.2449L6.52859 5.17298L6.92797 4.94236C7.45149 4.64005 8.09051 4.65864 8.59561 4.99092L10.6109 6.31655C11.123 6.65342 11.7709 6.67229 12.3017 6.36577L13.7597 5.52402L13.8849 5.73609L14.7936 7.30989L11.6293 9.20798L9.92538 7.45197C9.715 7.23519 9.36883 7.22999 9.15211 7.44032C8.93538 7.65065 8.93013 7.99682 9.14046 8.2136L11.1464 10.2808C11.286 10.4247 11.4892 10.4773 11.6757 10.429C11.7561 10.4499 11.8424 10.4532 11.9291 10.4342L19.4678 8.78492V11.4381L11.053 13.9745C10.9115 14.0172 10.7932 14.1154 10.7252 14.2466L9.18229 17.225C9.04333 17.4932 9.14811 17.8232 9.4163 17.9621C9.49675 18.0038 9.58266 18.0235 9.66743 18.0235C9.86523 18.0235 10.0561 17.9159 10.1534 17.7281L11.5901 14.955L19.4678 12.5803V20.0484C19.4678 21.4204 20.584 22.5366 21.956 22.5366H25.5101C26.8821 22.5366 27.9983 21.4204 27.9983 20.0484V6.51326C27.9984 5.49033 27.3777 4.60992 26.4934 4.22798ZM5.08566 25.8126V26.6329C5.08566 26.7836 4.963 26.9063 4.81222 26.9063H2.89904H1.1882C1.41389 26.2697 2.02207 25.8127 2.73503 25.8127H5.08566V25.8126ZM5.43095 5.23784L5.75902 7.23858L3.73767 6.26186C3.73592 6.25251 3.73417 6.24316 3.73187 6.2338C4.05043 6.17212 4.3599 6.05727 4.6492 5.89031C4.9502 5.71652 5.21319 5.49563 5.43095 5.23784ZM1.5627 4.2626L1.34395 3.88378C1.09561 3.45372 1.02971 2.95267 1.15823 2.47295C1.2868 1.99329 1.59436 1.59232 2.02448 1.34399C2.31098 1.17861 2.62888 1.09412 2.95105 1.09412C3.11254 1.09412 3.27518 1.11534 3.43525 1.15827C3.91491 1.28684 4.31588 1.59445 4.56416 2.02457L4.78291 2.40339C5.03124 2.83345 5.0972 3.3345 4.96863 3.81422C4.84006 4.29388 4.5325 4.69485 4.10238 4.94313C3.67226 5.19146 3.17127 5.25736 2.69155 5.12885C2.21189 5.00033 1.81103 4.69266 1.5627 4.2626ZM4.09117 9.52555C3.951 9.25802 3.62058 9.15471 3.353 9.29488C3.08547 9.43504 2.98222 9.76546 3.12233 10.033L4.02997 11.7658C3.50929 12.1318 3.26812 12.769 3.38794 13.3724H2.44841C1.77948 13.3723 1.23528 12.8281 1.23528 12.1591V8.82905C1.23528 8.39702 1.4677 7.99441 1.84188 7.77845L2.99048 7.11531L5.97548 8.55775L6.38525 11.0566C5.95907 10.9006 5.46935 10.927 5.04639 11.1711L4.97481 11.2125L4.09117 9.52555ZM6.57507 12.8345C6.64075 12.9484 6.6582 13.081 6.62418 13.208C6.59016 13.335 6.50873 13.4411 6.39488 13.5068L5.49828 14.0244C5.26317 14.16 4.96168 14.0793 4.82595 13.8443L4.51642 13.3082C4.45068 13.1943 4.43324 13.0617 4.46725 12.9347C4.50127 12.8077 4.5827 12.7016 4.69656 12.6358L5.59316 12.1182C5.67049 12.0736 5.75498 12.0524 5.83843 12.0524C6.00867 12.0524 6.17443 12.1406 6.26548 12.2984L6.57507 12.8345ZM16.6381 3.95449L17.3073 3.56818C17.3832 3.52443 17.4673 3.50206 17.5526 3.50206C17.5953 3.50206 17.6383 3.50769 17.6808 3.51907C17.8078 3.55308 17.9139 3.63451 17.9796 3.74837L18.5859 4.79853C18.7216 5.03358 18.6408 5.33513 18.4058 5.47081L17.7365 5.85712C17.5017 5.99269 17.2001 5.91202 17.0644 5.67714L16.4578 4.6266C16.3224 4.39166 16.4032 4.09017 16.6381 3.95449ZM15.5331 5.21224L16.0949 6.18524L15.5919 6.47563L15.0205 5.50821L15.5331 5.21224ZM19.4679 6.51326V7.66536L14.5242 8.74685L15.8374 7.95914C16.022 7.8484 16.1172 7.64583 16.1006 7.4448L16.9862 6.93348C17.1492 6.98805 17.3204 7.01638 17.4932 7.01638C17.7621 7.01638 18.0344 6.94802 18.2835 6.80425L18.9527 6.41794C19.2575 6.24201 19.4815 5.97945 19.6122 5.67916C19.519 5.94008 19.4679 6.22079 19.4679 6.51326ZM24.28 2.89831L25.0385 4.02504H24.28V2.89831ZM23.1863 2.89826V4.02504H22.4278L23.1863 2.89826ZM20.5615 6.51326C20.5615 5.7443 21.1871 5.11873 21.9561 5.11873H25.5101C26.2791 5.11873 26.9047 5.7443 26.9047 6.51326V6.66709H22.7301C22.4281 6.66709 22.1833 6.91193 22.1833 7.21391C22.1833 7.51595 22.4281 7.76073 22.7301 7.76073H26.9047V18.8009H20.5615V6.51326ZM26.9047 20.0484C26.9047 20.8173 26.2791 21.4429 25.5101 21.4429H21.9561C21.1871 21.4429 20.5615 20.8173 20.5615 20.0484V19.8946H26.9047V20.0484Z" fill="#43BF41"/>
<path fill-rule="evenodd" clip-rule="evenodd" d="M19.4688 20.1062C19.4998 21.4514 20.6037 22.5361 21.9562 22.5361H25.5103C26.8823 22.5361 27.9985 21.42 27.9985 20.048V6.51284C27.9986 5.48991 27.378 4.6095 26.4936 4.22756L24.2802 0.939373V0.559515C24.2802 0.257531 24.0354 0.0126953 23.7334 0.0126953C23.4314 0.0126953 23.1866 0.257531 23.1866 0.559515V0.939428L20.9731 4.22762C20.3814 4.48323 19.9079 4.96185 19.6592 5.55718C19.671 5.52267 19.6816 5.48777 19.691 5.45255L19.5978 5.71131C19.6028 5.7005 19.6077 5.68965 19.6125 5.67875C19.5252 5.92312 19.4748 6.18486 19.4688 6.45736V20.1062ZM25.0387 4.02462L24.2802 2.89789V4.02462H25.0387ZM23.1866 4.02462V2.89784L22.428 4.02462H23.1866ZM21.9563 5.11831C21.1873 5.11831 20.5618 5.74388 20.5617 6.51284V18.8004H26.9049V7.76031H22.7303C22.4284 7.76031 22.1835 7.51553 22.1835 7.21349C22.1835 6.91151 22.4283 6.66668 22.7303 6.66668H26.9049V6.51284C26.9049 5.74388 26.2793 5.11831 25.5104 5.11831H21.9563ZM25.5104 21.4425C26.2793 21.4425 26.905 20.8169 26.905 20.048V19.8941H20.5618V20.048C20.5618 20.8169 21.1873 21.4425 21.9563 21.4425H25.5104Z" fill="#E50E0F"/>
<path d="M22.3632 9.98926C22.0612 9.98926 21.8164 10.2341 21.8164 10.5361V14.4571C21.8164 14.7592 22.0612 15.0039 22.3632 15.0039C22.6652 15.0039 22.91 14.759 22.91 14.4571V10.5361C22.91 10.234 22.6653 9.98926 22.3632 9.98926Z" fill="#E50E0F"/>
<path d="M22.7498 16.2853C22.648 16.1835 22.5069 16.125 22.3632 16.125C22.2189 16.125 22.0783 16.1835 21.9766 16.2853C21.8744 16.387 21.8164 16.528 21.8164 16.6718C21.8164 16.8157 21.8744 16.9567 21.9766 17.0584C22.0784 17.1601 22.2189 17.2186 22.3632 17.2186C22.5071 17.2186 22.6481 17.1602 22.7498 17.0584C22.8515 16.9567 22.91 16.8156 22.91 16.6718C22.91 16.528 22.8515 16.3869 22.7498 16.2853Z" fill="#E50E0F"/>
</g>
<defs>
<clipPath id="clip0">
<rect width="28" height="28" fill="white"/>
</clipPath>
</defs>
</svg>
