<svg width="28" height="28" viewBox="0 0 28 28" fill="none" xmlns="http://www.w3.org/2000/svg">
<g clip-path="url(#clip0)">
<path d="M27.5912 27.1797H17.8115C17.8722 26.7342 17.6036 26.2962 17.1745 26.1521L14.9526 25.4064L16.7304 14.6749L18.1583 13.6117C18.8904 14.372 20.1094 14.4844 20.9725 13.8818L22.7525 12.6389C23.4508 12.1514 23.91 11.3862 24.0125 10.5397C24.0762 10.0135 23.2617 9.91439 23.1982 10.4411C23.1238 11.0563 22.7901 11.6122 22.2829 11.9664L20.5029 13.2092C19.8741 13.6483 18.9681 13.459 18.5653 12.8052L16.7072 9.8439L17.7448 9.19521L19.347 11.6701C19.511 11.8743 19.7061 11.9105 19.9324 11.7788L22.0257 10.2565C22.4546 9.94458 21.9722 9.28133 21.5433 9.59313L19.8002 10.8608L18.7959 9.30949L23.0615 6.82609C23.4315 7.28318 23.6027 7.87353 23.5318 8.46022C23.4698 8.97194 24.2813 9.09437 24.346 8.5587C24.4324 7.84493 24.2577 7.12733 23.8643 6.53567C24.4558 6.31207 24.9684 5.92716 25.3484 5.43486C26.6801 5.72314 27.9889 4.67171 27.9889 3.30847C27.9889 1.90833 26.6115 0.846448 25.2544 1.2044C22.6878 -1.75206 18.0149 1.22939 19.6158 4.81202L18.571 5.61066L15.8704 4.73273C15.6492 4.65957 15.4133 4.78938 15.3474 5.01134L14.6867 4.76188C13.0709 4.15173 12.2078 6.74953 13.8931 7.20799L14.4815 7.36805C14.4655 7.54478 14.5658 7.7179 14.7387 7.78631L15.1379 7.94434C15.1121 8.04731 15.1009 8.15274 15.1043 8.26046L13.5663 9.43603L7.90602 6.29868C7.4422 6.0415 7.0446 6.75905 7.50842 7.01605L13.3083 10.2308L14.7733 12.6381C14.7332 12.6546 14.6954 12.6776 14.6613 12.707L12.9273 14.2079C12.5264 14.555 13.0631 15.1751 13.4641 14.8282L14.2137 14.1792L13.665 16.3559C13.5389 16.8559 14.3292 17.0768 14.4604 16.5564L15.2505 13.4224L15.9232 14.528L14.143 25.2739H12.8062L11.7792 14.3495C11.7699 14.251 11.7255 14.1593 11.654 14.0911L3.32116 6.14305L4.24929 5.20967L5.86352 6.10439C6.32728 6.36134 6.72493 5.64402 6.26111 5.38701L1.6721 2.72332C0.529897 2.04257 -0.605311 3.77634 0.458263 4.57924L10.9769 14.5788L12.0228 25.7031C12.0333 25.8983 11.9938 27.0136 12.0548 27.1797H0.414025C0.187475 27.1797 0.00390625 27.3632 0.00390625 27.5898C0.00390625 27.8163 0.187475 27.9999 0.414025 27.9999H27.5912C28.1215 27.9867 28.1452 27.2017 27.5912 27.1797ZM0.958881 3.92934C0.663596 3.71903 0.960904 3.28113 1.26062 3.43293L3.4267 4.72891L2.70473 5.5603L1.00137 3.96412C0.987972 3.95154 0.973809 3.94 0.958881 3.92934ZM14.1443 10.0267L15.4037 9.06413L15.7262 9.4871C15.6739 9.60718 15.68 9.74996 15.7546 9.86895L17.6834 12.9428L16.4691 13.8469L14.1443 10.0267ZM16.7894 7.99028L17.1057 8.49943L16.3724 8.982L16.0196 8.51922C15.6488 8.03298 16.4601 7.46057 16.7894 7.99028ZM18.1478 8.30826C18.0646 8.19413 17.9611 8.13229 17.8374 8.12277C17.71 7.91531 17.5879 7.7009 17.4488 7.50081L19.7822 5.71724L18.2021 8.39208L18.1478 8.30826ZM22.5183 3.56614C22.3475 4.34591 22.3692 5.23045 22.7939 5.92979C20.8927 6.03598 19.4968 3.92961 20.3852 2.23697L22.5183 3.56614ZM20.5619 6.01006C20.9137 6.29228 21.3229 6.50543 21.7691 6.6294L19.3713 8.02533L20.5619 6.01006ZM25.8112 1.95257C27.6257 2.03054 27.5974 4.59887 25.7956 4.66356C26.1543 3.83392 26.1291 2.76482 25.7353 1.95568C25.7606 1.95432 25.7858 1.95257 25.8112 1.95257ZM25.2306 3.37781C25.2306 4.43499 24.5844 5.3443 23.6659 5.73233C22.9234 4.92237 23.3755 3.52305 23.3802 3.50894C23.441 3.32871 23.3699 3.13032 23.2084 3.0297L20.8666 1.57055C22.4449 -0.0249169 25.2358 1.10936 25.2306 3.37781ZM16.7529 7.00036C16.3735 6.88974 15.8893 6.98658 15.5802 7.23725L15.4149 7.17179L15.9902 5.63412L17.7793 6.21578L16.7529 7.00036ZM13.8099 6.16842C13.6205 5.77553 14.0266 5.38947 14.3969 5.52924L15.06 5.77952L14.7558 6.59259L14.1085 6.41646C13.9756 6.38037 13.8696 6.29228 13.8099 6.16842ZM13.112 27.1797C12.9771 27.1639 12.843 27.0801 12.843 26.9225V26.0942H14.4239L16.9134 26.9297C17.0424 27.0246 17.0289 27.1079 16.8726 27.1797H13.112Z" fill="#43BF41"/>
</g>
<defs>
<clipPath id="clip0">
<rect width="28" height="28" fill="white"/>
</clipPath>
</defs>
</svg>
